<?xml version="1.0" encoding="UTF-8" standalone="no"?>
<svg
   xmlns:dc="http://purl.org/dc/elements/1.1/"
   xmlns:cc="http://creativecommons.org/ns#"
   xmlns:rdf="http://www.w3.org/1999/02/22-rdf-syntax-ns#"
   xmlns:svg="http://www.w3.org/2000/svg"
   xmlns="http://www.w3.org/2000/svg"
   xmlns:sodipodi="http://sodipodi.sourceforge.net/DTD/sodipodi-0.dtd"
   xmlns:inkscape="http://www.inkscape.org/namespaces/inkscape"
   width="90.311111mm"
   height="67.653473mm"
   viewBox="0 0 90.311113 67.653475"
   version="1.1"
   id="svg2"
   inkscape:version="0.91 r13725"
   sodipodi:docname="cortex.svg">
  <metadata
     id="metadata57">
    <rdf:RDF>
      <cc:Work
         rdf:about="">
        <dc:format>image/svg+xml</dc:format>
        <dc:type
           rdf:resource="http://purl.org/dc/dcmitype/StillImage" />
        <dc:title />
      </cc:Work>
    </rdf:RDF>
  </metadata>
  <defs
     id="defs55" />
  <sodipodi:namedview
     pagecolor="#ffffff"
     bordercolor="#666666"
     borderopacity="1"
     objecttolerance="10"
     gridtolerance="10"
     guidetolerance="10"
     inkscape:pageopacity="0"
     inkscape:pageshadow="2"
     inkscape:window-width="1366"
     inkscape:window-height="692"
     id="namedview53"
     showgrid="false"
     fit-margin-top="0"
     fit-margin-left="0"
     fit-margin-right="0"
     fit-margin-bottom="0"
     inkscape:zoom="2.162482"
     inkscape:cx="162.76879"
     inkscape:cy="119.95172"
     inkscape:window-x="0"
     inkscape:window-y="23"
     inkscape:window-maximized="1"
     inkscape:current-layer="svg2" />
  <g
     id="Pocket049"
     transform="matrix(0.28147897,0,0,-0.28147897,45.155557,33.826735)"
     style="stroke:#000000;stroke-opacity:1;stroke-width:1.00264053;stroke-miterlimit:4;stroke-dasharray:none">
    <path
       id="Pocket049_f0000"
       d="m -60,120 -50,0 0,0 50,0 0,0 z"
       style="fill:#bfb07d;fill-rule:evenodd;stroke:#000000;stroke-width:1.00264053;stroke-miterlimit:4;stroke-dasharray:none;stroke-opacity:1"
       inkscape:connector-curvature="0" />
    <circle
       cx="65"
       cy="-35"
       r="1"
       style="fill:#bfb07d;stroke:#000000;stroke-width:1.00264053;stroke-miterlimit:4;stroke-dasharray:none;stroke-opacity:1"
       id="circle6" />
    <path
       id="Pocket049_f0002"
       d="m -60,120 0,-5 0,0 0,5 0,0 z"
       style="fill:#bfb07d;fill-rule:evenodd;stroke:#000000;stroke-width:1.00264053;stroke-miterlimit:4;stroke-dasharray:none;stroke-opacity:1"
       inkscape:connector-curvature="0" />
    <path
       id="Pocket049_f0004"
       d="m -160,70 50,50 0,0 -50,-50 0,0 z"
       style="fill:#bfb07d;fill-rule:evenodd;stroke:#000000;stroke-width:1.00264053;stroke-miterlimit:4;stroke-dasharray:none;stroke-opacity:1"
       inkscape:connector-curvature="0" />
    <path
       id="Pocket049_f0005"
       d="m -160,60 0,0 0,10 0,0 0,-10 z"
       style="fill:#bfb07d;fill-rule:evenodd;stroke:#000000;stroke-width:1.00264053;stroke-miterlimit:4;stroke-dasharray:none;stroke-opacity:1"
       inkscape:connector-curvature="0" />
    <path
       id="Pocket049_f0006"
       d="m -60,115 20,0 0,0 -20,0 0,0 z"
       style="fill:#bfb07d;fill-rule:evenodd;stroke:#000000;stroke-width:1.00264053;stroke-miterlimit:4;stroke-dasharray:none;stroke-opacity:1"
       inkscape:connector-curvature="0" />
    <path
       id="Pocket049_f0007"
       d="m -150,60 -10,0 0,0 10,0 0,0 z"
       style="fill:#bfb07d;fill-rule:evenodd;stroke:#000000;stroke-width:1.00264053;stroke-miterlimit:4;stroke-dasharray:none;stroke-opacity:1"
       inkscape:connector-curvature="0" />
    <path
       id="Pocket049_f0008"
       d="m -40,115 0,-70 0,0 0,70 0,0 z"
       style="fill:#bfb07d;fill-rule:evenodd;stroke:#000000;stroke-width:1.00264053;stroke-miterlimit:4;stroke-dasharray:none;stroke-opacity:1"
       inkscape:connector-curvature="0" />
    <path
       id="Pocket049_f0009"
       d="m -150,15 0,45 0,0 0,-45 0,0 z"
       style="fill:#bfb07d;fill-rule:evenodd;stroke:#000000;stroke-width:1.00264053;stroke-miterlimit:4;stroke-dasharray:none;stroke-opacity:1"
       inkscape:connector-curvature="0" />
    <path
       id="Pocket049_f0010"
       d="m 40,45 0,0 -80,0 0,0 80,0 z"
       style="fill:#bfb07d;fill-rule:evenodd;stroke:#000000;stroke-width:1.00264053;stroke-miterlimit:4;stroke-dasharray:none;stroke-opacity:1"
       inkscape:connector-curvature="0" />
    <path
       id="Pocket049_f0011"
       d="m -150,15 0,0 70,0 0,0 -70,0 z"
       style="fill:#bfb07d;fill-rule:evenodd;stroke:#000000;stroke-width:1.00264053;stroke-miterlimit:4;stroke-dasharray:none;stroke-opacity:1"
       inkscape:connector-curvature="0" />
    <path
       id="Pocket049_f0012"
       d="m 40,45 0,70 0,0 0,-70 0,0 z"
       style="fill:#bfb07d;fill-rule:evenodd;stroke:#000000;stroke-width:1.00264053;stroke-miterlimit:4;stroke-dasharray:none;stroke-opacity:1"
       inkscape:connector-curvature="0" />
    <path
       id="Pocket049_f0013"
       d="m -80,15 0,0 0,-50 0,0 0,50 z"
       style="fill:#bfb07d;fill-rule:evenodd;stroke:#000000;stroke-width:1.00264053;stroke-miterlimit:4;stroke-dasharray:none;stroke-opacity:1"
       inkscape:connector-curvature="0" />
    <path
       id="Pocket049_f0014"
       d="m 40,115 20,0 0,0 -20,0 0,0 z"
       style="fill:#bfb07d;fill-rule:evenodd;stroke:#000000;stroke-width:1.00264053;stroke-miterlimit:4;stroke-dasharray:none;stroke-opacity:1"
       inkscape:connector-curvature="0" />
    <path
       id="Pocket049_f0015"
       d="m -80,-35 0,0 -70,0 0,0 70,0 z"
       style="fill:#bfb07d;fill-rule:evenodd;stroke:#000000;stroke-width:1.00264053;stroke-miterlimit:4;stroke-dasharray:none;stroke-opacity:1"
       inkscape:connector-curvature="0" />
    <path
       id="Pocket049_f0016"
       d="m 60,115 0,5 0,0 0,-5 0,0 z"
       style="fill:#bfb07d;fill-rule:evenodd;stroke:#000000;stroke-width:1.00264053;stroke-miterlimit:4;stroke-dasharray:none;stroke-opacity:1"
       inkscape:connector-curvature="0" />
    <path
       id="Pocket049_f0017"
       d="m -150,-60 0,25 0,0 0,-25 0,0 z"
       style="fill:#bfb07d;fill-rule:evenodd;stroke:#000000;stroke-width:1.00264053;stroke-miterlimit:4;stroke-dasharray:none;stroke-opacity:1"
       inkscape:connector-curvature="0" />
    <path
       id="Pocket049_f0018"
       d="m 110,120 -50,0 0,0 50,0 0,0 z"
       style="fill:#bfb07d;fill-rule:evenodd;stroke:#000000;stroke-width:1.00264053;stroke-miterlimit:4;stroke-dasharray:none;stroke-opacity:1"
       inkscape:connector-curvature="0" />
    <path
       id="Pocket049_f0019"
       d="m -160,-60 10,0 0,0 -10,0 0,0 z"
       style="fill:#bfb07d;fill-rule:evenodd;stroke:#000000;stroke-width:1.00264053;stroke-miterlimit:4;stroke-dasharray:none;stroke-opacity:1"
       inkscape:connector-curvature="0" />
    <path
       id="Pocket049_f0020"
       d="m 110,120 0,0 50,-50 0,0 -50,50 z"
       style="fill:#bfb07d;fill-rule:evenodd;stroke:#000000;stroke-width:1.00264053;stroke-miterlimit:4;stroke-dasharray:none;stroke-opacity:1"
       inkscape:connector-curvature="0" />
    <path
       id="Pocket049_f0021"
       d="m -160,-60 0,0 0,-10 0,0 0,10 z"
       style="fill:#bfb07d;fill-rule:evenodd;stroke:#000000;stroke-width:1.00264053;stroke-miterlimit:4;stroke-dasharray:none;stroke-opacity:1"
       inkscape:connector-curvature="0" />
    <path
       id="Pocket049_f0022"
       d="m 160,60 0,10 0,0 0,-10 0,0 z"
       style="fill:#bfb07d;fill-rule:evenodd;stroke:#000000;stroke-width:1.00264053;stroke-miterlimit:4;stroke-dasharray:none;stroke-opacity:1"
       inkscape:connector-curvature="0" />
    <path
       id="Pocket049_f0023"
       d="m -110,-120 -50,50 0,0 50,-50 0,0 z"
       style="fill:#bfb07d;fill-rule:evenodd;stroke:#000000;stroke-width:1.00264053;stroke-miterlimit:4;stroke-dasharray:none;stroke-opacity:1"
       inkscape:connector-curvature="0" />
    <path
       id="Pocket049_f0024"
       d="m 150,60 0,0 10,0 0,0 -10,0 z"
       style="fill:#bfb07d;fill-rule:evenodd;stroke:#000000;stroke-width:1.00264053;stroke-miterlimit:4;stroke-dasharray:none;stroke-opacity:1"
       inkscape:connector-curvature="0" />
    <path
       id="Pocket049_f0025"
       d="m -110,-120 50,0 0,0 -50,0 0,0 z"
       style="fill:#bfb07d;fill-rule:evenodd;stroke:#000000;stroke-width:1.00264053;stroke-miterlimit:4;stroke-dasharray:none;stroke-opacity:1"
       inkscape:connector-curvature="0" />
    <path
       id="Pocket049_f0026"
       d="m 150,15 0,45 0,0 0,-45 0,0 z"
       style="fill:#bfb07d;fill-rule:evenodd;stroke:#000000;stroke-width:1.00264053;stroke-miterlimit:4;stroke-dasharray:none;stroke-opacity:1"
       inkscape:connector-curvature="0" />
    <path
       id="Pocket049_f0027"
       d="m -60,-110 0,-10 0,0 0,10 0,0 z"
       style="fill:#bfb07d;fill-rule:evenodd;stroke:#000000;stroke-width:1.00264053;stroke-miterlimit:4;stroke-dasharray:none;stroke-opacity:1"
       inkscape:connector-curvature="0" />
    <path
       id="Pocket049_f0028"
       d="m 150,15 -70,0 0,0 70,0 0,0 z"
       style="fill:#bfb07d;fill-rule:evenodd;stroke:#000000;stroke-width:1.00264053;stroke-miterlimit:4;stroke-dasharray:none;stroke-opacity:1"
       inkscape:connector-curvature="0" />
    <path
       id="Pocket049_f0029"
       d="m 60,-110 -120,0 0,0 120,0 0,0 z"
       style="fill:#bfb07d;fill-rule:evenodd;stroke:#000000;stroke-width:1.00264053;stroke-miterlimit:4;stroke-dasharray:none;stroke-opacity:1"
       inkscape:connector-curvature="0" />
    <path
       id="Pocket049_f0030"
       d="m 80,15 0,-50 0,0 0,50 0,0 z"
       style="fill:#bfb07d;fill-rule:evenodd;stroke:#000000;stroke-width:1.00264053;stroke-miterlimit:4;stroke-dasharray:none;stroke-opacity:1"
       inkscape:connector-curvature="0" />
    <path
       id="Pocket049_f0031"
       d="m 60,-120 0,10 0,0 0,-10 0,0 z"
       style="fill:#bfb07d;fill-rule:evenodd;stroke:#000000;stroke-width:1.00264053;stroke-miterlimit:4;stroke-dasharray:none;stroke-opacity:1"
       inkscape:connector-curvature="0" />
    <path
       id="Pocket049_f0032"
       d="m 80,-35 70,0 0,0 -70,0 0,0 z"
       style="fill:#bfb07d;fill-rule:evenodd;stroke:#000000;stroke-width:1.00264053;stroke-miterlimit:4;stroke-dasharray:none;stroke-opacity:1"
       inkscape:connector-curvature="0" />
    <path
       id="Pocket049_f0033"
       d="m 60,-120 50,0 0,0 -50,0 0,0 z"
       style="fill:#bfb07d;fill-rule:evenodd;stroke:#000000;stroke-width:1.00264053;stroke-miterlimit:4;stroke-dasharray:none;stroke-opacity:1"
       inkscape:connector-curvature="0" />
    <path
       id="Pocket049_f0034"
       d="m 150,-60 0,25 0,0 0,-25 0,0 z"
       style="fill:#bfb07d;fill-rule:evenodd;stroke:#000000;stroke-width:1.00264053;stroke-miterlimit:4;stroke-dasharray:none;stroke-opacity:1"
       inkscape:connector-curvature="0" />
    <path
       id="Pocket049_f0035"
       d="m 160,-70 0,0 -50,-50 0,0 50,50 z"
       style="fill:#bfb07d;fill-rule:evenodd;stroke:#000000;stroke-width:1.00264053;stroke-miterlimit:4;stroke-dasharray:none;stroke-opacity:1"
       inkscape:connector-curvature="0" />
    <path
       id="Pocket049_f0036"
       d="m 160,-60 0,0 -10,0 0,0 10,0 z"
       style="fill:#bfb07d;fill-rule:evenodd;stroke:#000000;stroke-width:1.00264053;stroke-miterlimit:4;stroke-dasharray:none;stroke-opacity:1"
       inkscape:connector-curvature="0" />
    <path
       id="Pocket049_f0037"
       d="m 160,-70 0,10 0,0 0,-10 0,0 z"
       style="fill:#bfb07d;fill-rule:evenodd;stroke:#000000;stroke-width:1.00264053;stroke-miterlimit:4;stroke-dasharray:none;stroke-opacity:1"
       inkscape:connector-curvature="0" />
    <path
       id="Pocket049_f0038"
       d="m 60,-45 0,-10 0,0 0,10 0,0 z"
       style="fill:#bfb07d;fill-rule:evenodd;stroke:#000000;stroke-width:1.00264053;stroke-miterlimit:4;stroke-dasharray:none;stroke-opacity:1"
       inkscape:connector-curvature="0" />
    <path
       id="Pocket049_f0039"
       d="m 60,-55 10,0 0,0 -10,0 0,0 z"
       style="fill:#bfb07d;fill-rule:evenodd;stroke:#000000;stroke-width:1.00264053;stroke-miterlimit:4;stroke-dasharray:none;stroke-opacity:1"
       inkscape:connector-curvature="0" />
    <path
       id="Pocket049_f0040"
       d="m 70,-55 0,10 0,0 0,-10 0,0 z"
       style="fill:#bfb07d;fill-rule:evenodd;stroke:#000000;stroke-width:1.00264053;stroke-miterlimit:4;stroke-dasharray:none;stroke-opacity:1"
       inkscape:connector-curvature="0" />
    <path
       id="Pocket049_f0041"
       d="m 70,-45 -10,0 0,0 10,0 0,0 z"
       style="fill:#bfb07d;fill-rule:evenodd;stroke:#000000;stroke-width:1.00264053;stroke-miterlimit:4;stroke-dasharray:none;stroke-opacity:1"
       inkscape:connector-curvature="0" />
    <circle
       cx="65"
       cy="-35"
       r="1"
       style="fill:#bfb07d;stroke:#000000;stroke-width:1.00264053;stroke-miterlimit:4;stroke-dasharray:none;stroke-opacity:1"
       id="circle47" />
    <circle
       cx="65"
       cy="-60"
       r="1"
       style="fill:#bfb07d;stroke:#000000;stroke-width:1.00264053;stroke-miterlimit:4;stroke-dasharray:none;stroke-opacity:1"
       id="circle49" />
    <title
       id="title51">Pocket049</title>
  </g>
</svg>
