<?xml version="1.0" encoding="UTF-8" standalone="no"?>
<svg
   xmlns:dc="http://purl.org/dc/elements/1.1/"
   xmlns:cc="http://creativecommons.org/ns#"
   xmlns:rdf="http://www.w3.org/1999/02/22-rdf-syntax-ns#"
   xmlns:svg="http://www.w3.org/2000/svg"
   xmlns="http://www.w3.org/2000/svg"
   xmlns:sodipodi="http://sodipodi.sourceforge.net/DTD/sodipodi-0.dtd"
   xmlns:inkscape="http://www.inkscape.org/namespaces/inkscape"
   width="27.226383mm"
   height="20.351152mm"
   viewBox="0 0 27.226384 20.351153"
   version="1.1"
   id="svg2"
   inkscape:version="0.91 r13725"
   sodipodi:docname="cortex_small.svg">
  <metadata
     id="metadata57">
    <rdf:RDF>
      <cc:Work
         rdf:about="">
        <dc:format>image/svg+xml</dc:format>
        <dc:type
           rdf:resource="http://purl.org/dc/dcmitype/StillImage" />
        <dc:title></dc:title>
      </cc:Work>
    </rdf:RDF>
  </metadata>
  <defs
     id="defs55" />
  <sodipodi:namedview
     pagecolor="#ffffff"
     bordercolor="#666666"
     borderopacity="1"
     objecttolerance="10"
     gridtolerance="10"
     guidetolerance="10"
     inkscape:pageopacity="0"
     inkscape:pageshadow="2"
     inkscape:window-width="1920"
     inkscape:window-height="1043"
     id="namedview53"
     showgrid="false"
     fit-margin-top="0"
     fit-margin-left="0"
     fit-margin-right="0"
     fit-margin-bottom="0"
     inkscape:zoom="2.162482"
     inkscape:cx="50.542076"
     inkscape:cy="36.14839"
     inkscape:window-x="3520"
     inkscape:window-y="0"
     inkscape:window-maximized="1"
     inkscape:current-layer="svg2" />
  <g
     id="Pocket049"
     transform="matrix(0.08444369,0,0,-0.08444369,13.613192,10.175576)"
     style="fill:#ffccaa;stroke:#000000;stroke-width:1.00264049;stroke-miterlimit:4;stroke-dasharray:none;stroke-opacity:1">
    <path
       id="Pocket049_f0000"
       d="m -60,120 -50,0 0,0 50,0 0,0 z"
       style="fill:#ffccaa;fill-rule:evenodd;stroke:#000000;stroke-width:1.00264049;stroke-miterlimit:4;stroke-dasharray:none;stroke-opacity:1"
       inkscape:connector-curvature="0" />
    <circle
       cx="65"
       cy="-35"
       r="1"
       style="fill:#ffccaa;stroke:#000000;stroke-width:1.00264049;stroke-miterlimit:4;stroke-dasharray:none;stroke-opacity:1"
       id="circle6" />
    <path
       id="Pocket049_f0002"
       d="m -60,120 0,-5 0,0 0,5 0,0 z"
       style="fill:#ffccaa;fill-rule:evenodd;stroke:#000000;stroke-width:1.00264049;stroke-miterlimit:4;stroke-dasharray:none;stroke-opacity:1"
       inkscape:connector-curvature="0" />
    <path
       id="Pocket049_f0004"
       d="m -160,70 50,50 0,0 -50,-50 0,0 z"
       style="fill:#ffccaa;fill-rule:evenodd;stroke:#000000;stroke-width:1.00264049;stroke-miterlimit:4;stroke-dasharray:none;stroke-opacity:1"
       inkscape:connector-curvature="0" />
    <path
       id="Pocket049_f0005"
       d="m -160,60 0,0 0,10 0,0 0,-10 z"
       style="fill:#ffccaa;fill-rule:evenodd;stroke:#000000;stroke-width:1.00264049;stroke-miterlimit:4;stroke-dasharray:none;stroke-opacity:1"
       inkscape:connector-curvature="0" />
    <path
       id="Pocket049_f0006"
       d="m -60,115 20,0 0,0 -20,0 0,0 z"
       style="fill:#ffccaa;fill-rule:evenodd;stroke:#000000;stroke-width:1.00264049;stroke-miterlimit:4;stroke-dasharray:none;stroke-opacity:1"
       inkscape:connector-curvature="0" />
    <path
       id="Pocket049_f0007"
       d="m -150,60 -10,0 0,0 10,0 0,0 z"
       style="fill:#ffccaa;fill-rule:evenodd;stroke:#000000;stroke-width:1.00264049;stroke-miterlimit:4;stroke-dasharray:none;stroke-opacity:1"
       inkscape:connector-curvature="0" />
    <path
       id="Pocket049_f0008"
       d="m -40,115 0,-70 0,0 0,70 0,0 z"
       style="fill:#ffccaa;fill-rule:evenodd;stroke:#000000;stroke-width:1.00264049;stroke-miterlimit:4;stroke-dasharray:none;stroke-opacity:1"
       inkscape:connector-curvature="0" />
    <path
       id="Pocket049_f0009"
       d="m -150,15 0,45 0,0 0,-45 0,0 z"
       style="fill:#ffccaa;fill-rule:evenodd;stroke:#000000;stroke-width:1.00264049;stroke-miterlimit:4;stroke-dasharray:none;stroke-opacity:1"
       inkscape:connector-curvature="0" />
    <path
       id="Pocket049_f0010"
       d="m 40,45 0,0 -80,0 0,0 80,0 z"
       style="fill:#ffccaa;fill-rule:evenodd;stroke:#000000;stroke-width:1.00264049;stroke-miterlimit:4;stroke-dasharray:none;stroke-opacity:1"
       inkscape:connector-curvature="0" />
    <path
       id="Pocket049_f0011"
       d="m -150,15 0,0 70,0 0,0 -70,0 z"
       style="fill:#ffccaa;fill-rule:evenodd;stroke:#000000;stroke-width:1.00264049;stroke-miterlimit:4;stroke-dasharray:none;stroke-opacity:1"
       inkscape:connector-curvature="0" />
    <path
       id="Pocket049_f0012"
       d="m 40,45 0,70 0,0 0,-70 0,0 z"
       style="fill:#ffccaa;fill-rule:evenodd;stroke:#000000;stroke-width:1.00264049;stroke-miterlimit:4;stroke-dasharray:none;stroke-opacity:1"
       inkscape:connector-curvature="0" />
    <path
       id="Pocket049_f0013"
       d="m -80,15 0,0 0,-50 0,0 0,50 z"
       style="fill:#ffccaa;fill-rule:evenodd;stroke:#000000;stroke-width:1.00264049;stroke-miterlimit:4;stroke-dasharray:none;stroke-opacity:1"
       inkscape:connector-curvature="0" />
    <path
       id="Pocket049_f0014"
       d="m 40,115 20,0 0,0 -20,0 0,0 z"
       style="fill:#ffccaa;fill-rule:evenodd;stroke:#000000;stroke-width:1.00264049;stroke-miterlimit:4;stroke-dasharray:none;stroke-opacity:1"
       inkscape:connector-curvature="0" />
    <path
       id="Pocket049_f0015"
       d="m -80,-35 0,0 -70,0 0,0 70,0 z"
       style="fill:#ffccaa;fill-rule:evenodd;stroke:#000000;stroke-width:1.00264049;stroke-miterlimit:4;stroke-dasharray:none;stroke-opacity:1"
       inkscape:connector-curvature="0" />
    <path
       id="Pocket049_f0016"
       d="m 60,115 0,5 0,0 0,-5 0,0 z"
       style="fill:#ffccaa;fill-rule:evenodd;stroke:#000000;stroke-width:1.00264049;stroke-miterlimit:4;stroke-dasharray:none;stroke-opacity:1"
       inkscape:connector-curvature="0" />
    <path
       id="Pocket049_f0017"
       d="m -150,-60 0,25 0,0 0,-25 0,0 z"
       style="fill:#ffccaa;fill-rule:evenodd;stroke:#000000;stroke-width:1.00264049;stroke-miterlimit:4;stroke-dasharray:none;stroke-opacity:1"
       inkscape:connector-curvature="0" />
    <path
       id="Pocket049_f0018"
       d="m 110,120 -50,0 0,0 50,0 0,0 z"
       style="fill:#ffccaa;fill-rule:evenodd;stroke:#000000;stroke-width:1.00264049;stroke-miterlimit:4;stroke-dasharray:none;stroke-opacity:1"
       inkscape:connector-curvature="0" />
    <path
       id="Pocket049_f0019"
       d="m -160,-60 10,0 0,0 -10,0 0,0 z"
       style="fill:#ffccaa;fill-rule:evenodd;stroke:#000000;stroke-width:1.00264049;stroke-miterlimit:4;stroke-dasharray:none;stroke-opacity:1"
       inkscape:connector-curvature="0" />
    <path
       id="Pocket049_f0020"
       d="m 110,120 0,0 50,-50 0,0 -50,50 z"
       style="fill:#ffccaa;fill-rule:evenodd;stroke:#000000;stroke-width:1.00264049;stroke-miterlimit:4;stroke-dasharray:none;stroke-opacity:1"
       inkscape:connector-curvature="0" />
    <path
       id="Pocket049_f0021"
       d="m -160,-60 0,0 0,-10 0,0 0,10 z"
       style="fill:#ffccaa;fill-rule:evenodd;stroke:#000000;stroke-width:1.00264049;stroke-miterlimit:4;stroke-dasharray:none;stroke-opacity:1"
       inkscape:connector-curvature="0" />
    <path
       id="Pocket049_f0022"
       d="m 160,60 0,10 0,0 0,-10 0,0 z"
       style="fill:#ffccaa;fill-rule:evenodd;stroke:#000000;stroke-width:1.00264049;stroke-miterlimit:4;stroke-dasharray:none;stroke-opacity:1"
       inkscape:connector-curvature="0" />
    <path
       id="Pocket049_f0023"
       d="m -110,-120 -50,50 0,0 50,-50 0,0 z"
       style="fill:#ffccaa;fill-rule:evenodd;stroke:#000000;stroke-width:1.00264049;stroke-miterlimit:4;stroke-dasharray:none;stroke-opacity:1"
       inkscape:connector-curvature="0" />
    <path
       id="Pocket049_f0024"
       d="m 150,60 0,0 10,0 0,0 -10,0 z"
       style="fill:#ffccaa;fill-rule:evenodd;stroke:#000000;stroke-width:1.00264049;stroke-miterlimit:4;stroke-dasharray:none;stroke-opacity:1"
       inkscape:connector-curvature="0" />
    <path
       id="Pocket049_f0025"
       d="m -110,-120 50,0 0,0 -50,0 0,0 z"
       style="fill:#ffccaa;fill-rule:evenodd;stroke:#000000;stroke-width:1.00264049;stroke-miterlimit:4;stroke-dasharray:none;stroke-opacity:1"
       inkscape:connector-curvature="0" />
    <path
       id="Pocket049_f0026"
       d="m 150,15 0,45 0,0 0,-45 0,0 z"
       style="fill:#ffccaa;fill-rule:evenodd;stroke:#000000;stroke-width:1.00264049;stroke-miterlimit:4;stroke-dasharray:none;stroke-opacity:1"
       inkscape:connector-curvature="0" />
    <path
       id="Pocket049_f0027"
       d="m -60,-110 0,-10 0,0 0,10 0,0 z"
       style="fill:#ffccaa;fill-rule:evenodd;stroke:#000000;stroke-width:1.00264049;stroke-miterlimit:4;stroke-dasharray:none;stroke-opacity:1"
       inkscape:connector-curvature="0" />
    <path
       id="Pocket049_f0028"
       d="m 150,15 -70,0 0,0 70,0 0,0 z"
       style="fill:#ffccaa;fill-rule:evenodd;stroke:#000000;stroke-width:1.00264049;stroke-miterlimit:4;stroke-dasharray:none;stroke-opacity:1"
       inkscape:connector-curvature="0" />
    <path
       id="Pocket049_f0029"
       d="m 60,-110 -120,0 0,0 120,0 0,0 z"
       style="fill:#ffccaa;fill-rule:evenodd;stroke:#000000;stroke-width:1.00264049;stroke-miterlimit:4;stroke-dasharray:none;stroke-opacity:1"
       inkscape:connector-curvature="0" />
    <path
       id="Pocket049_f0030"
       d="m 80,15 0,-50 0,0 0,50 0,0 z"
       style="fill:#ffccaa;fill-rule:evenodd;stroke:#000000;stroke-width:1.00264049;stroke-miterlimit:4;stroke-dasharray:none;stroke-opacity:1"
       inkscape:connector-curvature="0" />
    <path
       id="Pocket049_f0031"
       d="m 60,-120 0,10 0,0 0,-10 0,0 z"
       style="fill:#ffccaa;fill-rule:evenodd;stroke:#000000;stroke-width:1.00264049;stroke-miterlimit:4;stroke-dasharray:none;stroke-opacity:1"
       inkscape:connector-curvature="0" />
    <path
       id="Pocket049_f0032"
       d="m 80,-35 70,0 0,0 -70,0 0,0 z"
       style="fill:#ffccaa;fill-rule:evenodd;stroke:#000000;stroke-width:1.00264049;stroke-miterlimit:4;stroke-dasharray:none;stroke-opacity:1"
       inkscape:connector-curvature="0" />
    <path
       id="Pocket049_f0033"
       d="m 60,-120 50,0 0,0 -50,0 0,0 z"
       style="fill:#ffccaa;fill-rule:evenodd;stroke:#000000;stroke-width:1.00264049;stroke-miterlimit:4;stroke-dasharray:none;stroke-opacity:1"
       inkscape:connector-curvature="0" />
    <path
       id="Pocket049_f0034"
       d="m 150,-60 0,25 0,0 0,-25 0,0 z"
       style="fill:#ffccaa;fill-rule:evenodd;stroke:#000000;stroke-width:1.00264049;stroke-miterlimit:4;stroke-dasharray:none;stroke-opacity:1"
       inkscape:connector-curvature="0" />
    <path
       id="Pocket049_f0035"
       d="m 160,-70 0,0 -50,-50 0,0 50,50 z"
       style="fill:#ffccaa;fill-rule:evenodd;stroke:#000000;stroke-width:1.00264049;stroke-miterlimit:4;stroke-dasharray:none;stroke-opacity:1"
       inkscape:connector-curvature="0" />
    <path
       id="Pocket049_f0036"
       d="m 160,-60 0,0 -10,0 0,0 10,0 z"
       style="fill:#ffccaa;fill-rule:evenodd;stroke:#000000;stroke-width:1.00264049;stroke-miterlimit:4;stroke-dasharray:none;stroke-opacity:1"
       inkscape:connector-curvature="0" />
    <path
       id="Pocket049_f0037"
       d="m 160,-70 0,10 0,0 0,-10 0,0 z"
       style="fill:#ffccaa;fill-rule:evenodd;stroke:#000000;stroke-width:1.00264049;stroke-miterlimit:4;stroke-dasharray:none;stroke-opacity:1"
       inkscape:connector-curvature="0" />
    <path
       id="Pocket049_f0038"
       d="m 60,-45 0,-10 0,0 0,10 0,0 z"
       style="fill:#ffccaa;fill-rule:evenodd;stroke:#000000;stroke-width:1.00264049;stroke-miterlimit:4;stroke-dasharray:none;stroke-opacity:1"
       inkscape:connector-curvature="0" />
    <path
       id="Pocket049_f0039"
       d="m 60,-55 10,0 0,0 -10,0 0,0 z"
       style="fill:#ffccaa;fill-rule:evenodd;stroke:#000000;stroke-width:1.00264049;stroke-miterlimit:4;stroke-dasharray:none;stroke-opacity:1"
       inkscape:connector-curvature="0" />
    <path
       id="Pocket049_f0040"
       d="m 70,-55 0,10 0,0 0,-10 0,0 z"
       style="fill:#ffccaa;fill-rule:evenodd;stroke:#000000;stroke-width:1.00264049;stroke-miterlimit:4;stroke-dasharray:none;stroke-opacity:1"
       inkscape:connector-curvature="0" />
    <path
       id="Pocket049_f0041"
       d="m 70,-45 -10,0 0,0 10,0 0,0 z"
       style="fill:#ffccaa;fill-rule:evenodd;stroke:#000000;stroke-width:1.00264049;stroke-miterlimit:4;stroke-dasharray:none;stroke-opacity:1"
       inkscape:connector-curvature="0" />
    <circle
       cx="65"
       cy="-35"
       r="1"
       style="fill:#ffccaa;stroke:#000000;stroke-width:1.00264049;stroke-miterlimit:4;stroke-dasharray:none;stroke-opacity:1"
       id="circle47" />
    <circle
       cx="65"
       cy="-60"
       r="1"
       style="fill:#ffccaa;stroke:#000000;stroke-width:1.00264049;stroke-miterlimit:4;stroke-dasharray:none;stroke-opacity:1"
       id="circle49" />
    <title
       id="title51">Pocket049</title>
  </g>
  <path
     style="opacity:1;fill:#eeffd9;fill-opacity:1;fill-rule:evenodd;stroke:#241f1c;stroke-width:0.08466666;stroke-linejoin:miter;stroke-miterlimit:4;stroke-dasharray:none;stroke-dashoffset:0;stroke-opacity:1"
     d="m 2.2343411,18.126466 -2.084735,-2.085008 0,-0.380277 0,-0.380277 0.42089,-0.01111 0.42089,-0.01111 0.01043,-1.047082 0.01043,-1.047083 2.945589,-0.01004 2.94559,-0.01004 0.01013,-2.109813 c 0.0073,-1.5255439 -0.0021,-2.1245909 -0.03416,-2.1631779 -0.03666,-0.04418 -0.545695,-0.05336 -2.95636,-0.05336 l -2.91207,0 0,-1.851916 c 0,-1.388175 -0.01177,-1.86368 -0.04698,-1.898898 -0.03015,-0.03015 -0.184452,-0.04698 -0.430678,-0.04698 l -0.383695,0 0,-0.362297 0,-0.362297 2.104584,-2.104313 2.104584,-2.10431297 2.063116,0 2.063115,0 0.01184,0.205551 0.01183,0.20555 0.831744,0.01057 0.8317439,0.01057 0.01004,2.94545097 0.01003,2.945451 3.406272,0 3.406271,0 0.01003,-2.946229 0.01004,-2.94622797 0.814126,0 c 0.581004,0 0.827578,-0.01345 0.861107,-0.04698 0.02584,-0.02584 0.04698,-0.122744 0.04698,-0.215339 l 0,-0.168356 2.065434,0 2.065434,0 2.084735,2.08500797 2.084735,2.085009 0,0.380232 0,0.380231 -0.401313,0.01116 -0.401314,0.01116 -0.01016,1.888863 -0.01016,1.888863 -2.945853,0.01004 -2.945853,0.01004 0,2.1533899 0,2.15339 2.94559,0.01004 2.94559,0.01004 0.01043,1.047083 0.01043,1.047083 0.401314,0.01116 0.401313,0.01116 0,0.380504 0,0.380505 -2.085009,2.084736 -2.085008,2.084735 -2.065162,0 -2.06516,0 0,-0.39078 c 0,-0.37285 -0.004,-0.391755 -0.08809,-0.412044 -0.04845,-0.0117 -2.352089,-0.01644 -5.119195,-0.01053 l -5.0311009,0.01073 -0.01116,0.401313 -0.01116,0.401313 -2.083641,0 -2.08364,0 -2.084736,-2.085009 z m 16.9629769,-2.90694 c 0,-0.08927 -0.01961,-0.120259 -0.08173,-0.129135 -0.106512,-0.01522 -0.186438,0.08309 -0.153058,0.188261 0.01951,0.06146 0.05274,0.07939 0.13048,0.0704 0.08712,-0.01008 0.10431,-0.03143 0.10431,-0.129522 z m 0.352372,-0.841779 0,-0.450255 -0.391526,-0.01145 c -0.60222,-0.01761 -0.567711,-0.04552 -0.567711,0.459184 0,0.304367 0.01403,0.43251 0.04894,0.447044 0.02692,0.01121 0.242745,0.01708 0.479618,0.01305 l 0.430678,-0.0073 0,-0.450255 z M 19.197318,13.10529 c 0,-0.08927 -0.01961,-0.120261 -0.08173,-0.129136 -0.106512,-0.01522 -0.186438,0.08309 -0.153058,0.188262 0.01951,0.06146 0.05274,0.07939 0.13048,0.07039 0.08712,-0.01007 0.10431,-0.03142 0.10431,-0.129521 z"
     id="path3389"
     inkscape:connector-curvature="0" />
</svg>
