<?xml version="1.0" encoding="UTF-8" standalone="no"?>
<svg
   xmlns:dc="http://purl.org/dc/elements/1.1/"
   xmlns:cc="http://creativecommons.org/ns#"
   xmlns:rdf="http://www.w3.org/1999/02/22-rdf-syntax-ns#"
   xmlns:svg="http://www.w3.org/2000/svg"
   xmlns="http://www.w3.org/2000/svg"
   xmlns:sodipodi="http://sodipodi.sourceforge.net/DTD/sodipodi-0.dtd"
   xmlns:inkscape="http://www.inkscape.org/namespaces/inkscape"
   viewBox="0 0 3000.0001 2000"
   height="2000"
   width="3000"
   xml:space="preserve"
   version="1.1"
   id="svg3393"
   inkscape:version="0.91 r13725"
   sodipodi:docname="playing_area.svg"><sodipodi:namedview
     pagecolor="#ffffff"
     bordercolor="#666666"
     borderopacity="1"
     objecttolerance="10"
     gridtolerance="10"
     guidetolerance="10"
     inkscape:pageopacity="0"
     inkscape:pageshadow="2"
     inkscape:window-width="1366"
     inkscape:window-height="692"
     id="namedview3786"
     showgrid="false"
     inkscape:zoom="0.26741214"
     inkscape:cx="1502.9572"
     inkscape:cy="987.27628"
     inkscape:window-x="0"
     inkscape:window-y="23"
     inkscape:window-maximized="1"
     inkscape:current-layer="g3453"
     showguides="true" /><metadata
     id="metadata3399"><rdf:RDF><cc:Work
         rdf:about=""><dc:format>image/svg+xml</dc:format><dc:type
           rdf:resource="http://purl.org/dc/dcmitype/StillImage" /><dc:title /></cc:Work></rdf:RDF></metadata><defs
     id="defs3397"><clipPath
       id="clipPath3407"
       clipPathUnits="userSpaceOnUse"><path
         id="path3409"
         d="m 0,0 8503.937,0 0,5669.291 L 0,5669.291 0,0 Z"
         inkscape:connector-curvature="0" /></clipPath><clipPath
       id="clipPath3433"
       clipPathUnits="userSpaceOnUse"><path
         id="path3435"
         d="m 0,5669.292 8503.938,0 L 8503.938,0 0,0 0,5669.292 Z"
         inkscape:connector-curvature="0" /></clipPath><clipPath
       id="clipPath3449"
       clipPathUnits="userSpaceOnUse"><path
         id="path3451"
         d="m 0,5669.292 8503.938,0 L 8503.938,0 0,0 0,5669.292 Z"
         inkscape:connector-curvature="0" /></clipPath><clipPath
       id="clipPath3705"
       clipPathUnits="userSpaceOnUse"><path
         id="path3707"
         d="m 0,5669.292 8503.938,0 L 8503.938,0 0,0 0,5669.292 Z"
         inkscape:connector-curvature="0" /></clipPath></defs><path
     inkscape:connector-curvature="0"
     d="m 0,360.00069 360.00016,0 0,-360.00015638234 -360.00016,0 L 0,360.00069 Z"
     style="fill:#007cb0;fill-opacity:1;fill-rule:nonzero;stroke:none"
     id="path3417" /><path
     inkscape:connector-curvature="0"
     d="m 3000,360.00034 -359.9998,0 0,-360.00015916008 359.9998,0 L 3000,360.00034 Z"
     style="fill:#f7b500;fill-opacity:1;fill-rule:nonzero;stroke:none"
     id="path3419" /><path
     inkscape:connector-curvature="0"
     d="m 1069.9999,360.00034 -360.00013,0 0,-360.00015916008 360.00013,0 0,360.00015916008 z"
     style="fill:#007cb0;fill-opacity:1;fill-rule:nonzero;stroke:none"
     id="path3421" /><path
     inkscape:connector-curvature="0"
     d="m 2289.9995,360.00034 -360.0001,0 0,-360.00015916008 360.0001,0 0,360.00015916008 z"
     style="fill:#f7b500;fill-opacity:1;fill-rule:nonzero;stroke:none;stroke-width:0.28346461;stroke-miterlimit:4;stroke-dasharray:none"
     id="path3423" /><g
     style="fill:none"
     id="g3425"
     transform="matrix(0.35277774,0,0,-0.35277774,0,371.00058)"><path
       inkscape:connector-curvature="0"
       d="M 0,0 2012.598,0 0,0 Z"
       style="fill:none;fill-opacity:1;fill-rule:nonzero;stroke:none"
       id="path3427" /></g><g
     clip-path="url(#clipPath3433)"
     id="g3431"
     style="fill:none"
     transform="matrix(0.35277774,0,0,-0.35277774,0,2000.0002)"><g
       transform="translate(0,4617.6387)"
       id="g3437"
       style="fill:none"><path
         id="path3439"
         style="fill:none;stroke:#dadbd5;stroke-width:62.36199951;stroke-linecap:butt;stroke-linejoin:miter;stroke-miterlimit:4;stroke-dasharray:none;stroke-opacity:1"
         d="M 0,0 2012.599,0"
         inkscape:connector-curvature="0" /></g></g><g
     style="fill:none"
     id="g3441"
     transform="matrix(0.35277774,0,0,-0.35277774,2290,369.99997)"><path
       inkscape:connector-curvature="0"
       d="M 0,0 2012.598,0 0,0 Z"
       style="fill:none;fill-opacity:1;fill-rule:nonzero;stroke:none"
       id="path3443" /></g><g
     style="fill:none;stroke:#000000;stroke-opacity:1"
     id="g3453"
     transform="matrix(0.35277774,0,0,-0.35277774,2290.0004,370.00014)"><path
       inkscape:connector-curvature="0"
       d="M 0,0 2012.597,0"
       style="fill:none;stroke:#000000;stroke-width:62.36199951;stroke-linecap:butt;stroke-linejoin:miter;stroke-miterlimit:4;stroke-dasharray:none;stroke-opacity:1"
       id="path3455" /></g><g
     style="fill:none;stroke:#000000;stroke-opacity:1"
     id="g3457"
     transform="matrix(0.35277774,0,0,-0.35277774,1699.9999,2000.0002)"><path
       inkscape:connector-curvature="0"
       d="M 0,0 C 0,313.107 -253.824,566.93 -566.93,566.93 -880.036,566.93 -1133.859,313.107 -1133.859,0 L 0,0 Z"
       style="fill:none;fill-opacity:1;fill-rule:nonzero;stroke:#000000;stroke-opacity:1"
       id="path3459" /></g><g
     style="fill:none;stroke:#000000;stroke-opacity:1"
     id="g3461"
     transform="matrix(0.35277774,0,0,-0.35277774,1699.9999,2000.0002)"><path
       inkscape:connector-curvature="0"
       d="M 0,0 C 0,313.107 -253.824,566.93 -566.93,566.93 -880.036,566.93 -1133.859,313.107 -1133.859,0 L 0,0 Z"
       style="fill:none;stroke:#000000;stroke-width:1;stroke-linecap:butt;stroke-linejoin:miter;stroke-miterlimit:4;stroke-dasharray:none;stroke-opacity:1"
       id="path3463" /></g><g
     style="fill:none;stroke:#000000;stroke-opacity:1"
     id="g3465"
     transform="matrix(0.35277774,0,0,-0.35277774,555.9889,477.22923)"><path
       inkscape:connector-curvature="0"
       d="M 0,0 245.488,141.732"
       style="fill:none;fill-opacity:1;fill-rule:nonzero;stroke:#000000;stroke-width:85.03900146;stroke-linecap:butt;stroke-linejoin:miter;stroke-miterlimit:4;stroke-dasharray:none;stroke-opacity:1"
       id="path3467" /></g><g
     style="fill:none;stroke:#000000;stroke-opacity:1"
     id="g3469"
     transform="matrix(0.35277774,0,0,-0.35277774,657.40837,427.22919)"><path
       inkscape:connector-curvature="0"
       d="M 0,0 245.488,-141.732"
       style="fill:none;fill-opacity:1;fill-rule:nonzero;stroke:#000000;stroke-width:85.03900146;stroke-linecap:butt;stroke-linejoin:miter;stroke-miterlimit:4;stroke-dasharray:none;stroke-opacity:1"
       id="path3471" /></g><g
     style="fill:none;stroke:#000000;stroke-opacity:1"
     id="g3473"
     transform="matrix(0.35277774,0,0,-0.35277774,751.41951,589.9765)"><path
       inkscape:connector-curvature="0"
       d="M 0,0 0,283.465"
       style="fill:none;fill-opacity:1;fill-rule:nonzero;stroke:#000000;stroke-width:85.03900146;stroke-linecap:butt;stroke-linejoin:miter;stroke-miterlimit:4;stroke-dasharray:none;stroke-opacity:1"
       id="path3475" /></g><g
     style="fill:none;stroke:#000000;stroke-opacity:1"
     id="g3477"
     transform="matrix(0.35277774,0,0,-0.35277774,744.01118,602.77108)"><path
       inkscape:connector-curvature="0"
       d="M 0,0 -245.488,-141.732"
       style="fill:none;fill-opacity:1;fill-rule:nonzero;stroke:#000000;stroke-width:85.03900146;stroke-linecap:butt;stroke-linejoin:miter;stroke-miterlimit:4;stroke-dasharray:none;stroke-opacity:1"
       id="path3479" /></g><g
     style="fill:none;stroke:#000000;stroke-opacity:1"
     id="g3481"
     transform="matrix(0.35277774,0,0,-0.35277774,642.59171,652.77112)"><path
       inkscape:connector-curvature="0"
       d="M 0,0 -245.488,141.732"
       style="fill:none;fill-opacity:1;fill-rule:nonzero;stroke:#000000;stroke-width:85.03900146;stroke-linecap:butt;stroke-linejoin:miter;stroke-miterlimit:4;stroke-dasharray:none;stroke-opacity:1"
       id="path3483" /></g><g
     style="fill:none;stroke:#000000;stroke-opacity:1"
     id="g3485"
     transform="matrix(0.35277774,0,0,-0.35277774,548.58025,490.02381)"><path
       inkscape:connector-curvature="0"
       d="M 0,0 0,-283.465"
       style="fill:none;fill-opacity:1;fill-rule:nonzero;stroke:#000000;stroke-width:85.03900146;stroke-linecap:butt;stroke-linejoin:miter;stroke-miterlimit:4;stroke-dasharray:none;stroke-opacity:1"
       id="path3487" /></g><path
     inkscape:connector-curvature="0"
     d="m 79.999761,700.00012 -79.999761,0 0,-21.99993 79.999761,0 0,21.99993 z"
     style="fill:none;fill-opacity:1;fill-rule:nonzero;stroke:#000000;stroke-width:0.35277775;stroke-opacity:1"
     id="path3489" /><path
     inkscape:connector-curvature="0"
     d="m 79.999761,1172.0002 -79.999761,0 0,-22 79.999761,0 0,22 z"
     style="fill:none;fill-opacity:1;fill-rule:nonzero;stroke:#000000;stroke-width:0.35277775;stroke-opacity:1"
     id="path3491" /><path
     inkscape:connector-curvature="0"
     d="m 108.00008,1150.0002 -27.999966,0 0,-450.00008 27.999966,0 0,450.00008 z"
     style="fill:none;fill-opacity:1;fill-rule:nonzero;stroke:#000000;stroke-width:0.35277775;stroke-opacity:1"
     id="path3493" /><g
     style="fill:none;stroke:#000000;stroke-opacity:1"
     id="g3495"
     transform="matrix(0.35277774,0,0,-0.35277774,2255.9883,477.22923)"><path
       inkscape:connector-curvature="0"
       d="M 0,0 245.488,141.732"
       style="fill:none;fill-opacity:1;fill-rule:nonzero;stroke:#000000;stroke-width:85.03900146;stroke-linecap:butt;stroke-linejoin:miter;stroke-miterlimit:4;stroke-dasharray:none;stroke-opacity:1"
       id="path3497" /></g><g
     style="fill:none;stroke:#000000;stroke-opacity:1"
     id="g3499"
     transform="matrix(0.35277774,0,0,-0.35277774,2357.4078,427.22919)"><path
       inkscape:connector-curvature="0"
       d="M 0,0 245.488,-141.732"
       style="fill:none;fill-opacity:1;fill-rule:nonzero;stroke:#000000;stroke-width:85.03900146;stroke-linecap:butt;stroke-linejoin:miter;stroke-miterlimit:4;stroke-dasharray:none;stroke-opacity:1"
       id="path3501" /></g><g
     style="fill:none;stroke:#000000;stroke-opacity:1"
     id="g3503"
     transform="matrix(0.35277774,0,0,-0.35277774,2451.4196,589.9765)"><path
       inkscape:connector-curvature="0"
       d="M 0,0 0,283.465"
       style="fill:none;fill-opacity:1;fill-rule:nonzero;stroke:#000000;stroke-width:85.03900146;stroke-linecap:butt;stroke-linejoin:miter;stroke-miterlimit:4;stroke-dasharray:none;stroke-opacity:1"
       id="path3505" /></g><g
     style="fill:none;stroke:#000000;stroke-opacity:1"
     id="g3507"
     transform="matrix(0.35277774,0,0,-0.35277774,2444.0113,602.77108)"><path
       inkscape:connector-curvature="0"
       d="M 0,0 -245.488,-141.732"
       style="fill:none;fill-opacity:1;fill-rule:nonzero;stroke:#000000;stroke-width:85.03900146;stroke-linecap:butt;stroke-linejoin:miter;stroke-miterlimit:4;stroke-dasharray:none;stroke-opacity:1"
       id="path3509" /></g><g
     style="fill:none;stroke:#000000;stroke-opacity:1"
     id="g3511"
     transform="matrix(0.35277774,0,0,-0.35277774,2342.5918,652.77112)"><path
       inkscape:connector-curvature="0"
       d="M 0,0 -245.488,141.732"
       style="fill:none;fill-opacity:1;fill-rule:nonzero;stroke:#000000;stroke-width:85.03900146;stroke-linecap:butt;stroke-linejoin:miter;stroke-miterlimit:4;stroke-dasharray:none;stroke-opacity:1"
       id="path3513" /></g><g
     style="fill:none;stroke:#000000;stroke-opacity:1"
     id="g3515"
     transform="matrix(0.35277774,0,0,-0.35277774,2248.58,490.02381)"><path
       inkscape:connector-curvature="0"
       d="M 0,0 0,-283.465"
       style="fill:none;fill-opacity:1;fill-rule:nonzero;stroke:#000000;stroke-width:85.03900146;stroke-linecap:butt;stroke-linejoin:miter;stroke-miterlimit:4;stroke-dasharray:none;stroke-opacity:1"
       id="path3517" /></g><g
     style="fill:none;stroke:#000000;stroke-opacity:1"
     id="g3519"
     transform="matrix(0.35277774,0,0,-0.35277774,1835.9885,1807.2292)"><path
       inkscape:connector-curvature="0"
       d="M 0,0 245.488,141.732"
       style="fill:none;fill-opacity:1;fill-rule:nonzero;stroke:#000000;stroke-width:85.03900146;stroke-linecap:butt;stroke-linejoin:miter;stroke-miterlimit:4;stroke-dasharray:none;stroke-opacity:1"
       id="path3521" /></g><g
     style="fill:none;stroke:#000000;stroke-opacity:1"
     id="g3523"
     transform="matrix(0.35277774,0,0,-0.35277774,1937.408,1757.2292)"><path
       inkscape:connector-curvature="0"
       d="M 0,0 245.488,-141.732"
       style="fill:none;fill-opacity:1;fill-rule:nonzero;stroke:#000000;stroke-width:85.03900146;stroke-linecap:butt;stroke-linejoin:miter;stroke-miterlimit:4;stroke-dasharray:none;stroke-opacity:1"
       id="path3525" /></g><g
     style="fill:none;stroke:#000000;stroke-opacity:1"
     id="g3527"
     transform="matrix(0.35277774,0,0,-0.35277774,2031.4198,1919.9768)"><path
       inkscape:connector-curvature="0"
       d="M 0,0 0,283.465"
       style="fill:none;fill-opacity:1;fill-rule:nonzero;stroke:#000000;stroke-width:85.03900146;stroke-linecap:butt;stroke-linejoin:miter;stroke-miterlimit:4;stroke-dasharray:none;stroke-opacity:1"
       id="path3529" /></g><g
     style="fill:none;stroke:#000000;stroke-opacity:1"
     id="g3531"
     transform="matrix(0.35277774,0,0,-0.35277774,2024.0115,1932.7712)"><path
       inkscape:connector-curvature="0"
       d="M 0,0 -245.489,-141.732"
       style="fill:none;fill-opacity:1;fill-rule:nonzero;stroke:#000000;stroke-width:85.03900146;stroke-linecap:butt;stroke-linejoin:miter;stroke-miterlimit:4;stroke-dasharray:none;stroke-opacity:1"
       id="path3533" /></g><g
     style="fill:none;stroke:#000000;stroke-opacity:1"
     id="g3535"
     transform="matrix(0.35277774,0,0,-0.35277774,1922.5917,1982.7713)"><path
       inkscape:connector-curvature="0"
       d="M 0,0 -245.488,141.732"
       style="fill:none;fill-opacity:1;fill-rule:nonzero;stroke:#000000;stroke-width:85.03900146;stroke-linecap:butt;stroke-linejoin:miter;stroke-miterlimit:4;stroke-dasharray:none;stroke-opacity:1"
       id="path3537" /></g><g
     style="fill:none;stroke:#000000;stroke-opacity:1"
     id="g3539"
     transform="matrix(0.35277774,0,0,-0.35277774,1828.5802,1820.0236)"><path
       inkscape:connector-curvature="0"
       d="M 0,0 0,-283.465"
       style="fill:none;fill-opacity:1;fill-rule:nonzero;stroke:#000000;stroke-width:85.03900146;stroke-linecap:butt;stroke-linejoin:miter;stroke-miterlimit:4;stroke-dasharray:none;stroke-opacity:1"
       id="path3541" /></g><g
     style="fill:none;stroke:#000000;stroke-opacity:1"
     id="g3543"
     transform="matrix(0.35277774,0,0,-0.35277774,975.98872,1807.2292)"><path
       inkscape:connector-curvature="0"
       d="M 0,0 245.488,141.732"
       style="fill:none;fill-opacity:1;fill-rule:nonzero;stroke:#000000;stroke-width:85.03900146;stroke-linecap:butt;stroke-linejoin:miter;stroke-miterlimit:4;stroke-dasharray:none;stroke-opacity:1"
       id="path3545" /></g><g
     style="fill:none;stroke:#000000;stroke-opacity:1"
     id="g3547"
     transform="matrix(0.35277774,0,0,-0.35277774,1077.4082,1757.2292)"><path
       inkscape:connector-curvature="0"
       d="M 0,0 245.488,-141.732"
       style="fill:none;fill-opacity:1;fill-rule:nonzero;stroke:#000000;stroke-width:85.03900146;stroke-linecap:butt;stroke-linejoin:miter;stroke-miterlimit:4;stroke-dasharray:none;stroke-opacity:1"
       id="path3549" /></g><g
     style="fill:none;stroke:#000000;stroke-opacity:1"
     id="g3551"
     transform="matrix(0.35277774,0,0,-0.35277774,1171.4193,1919.9768)"><path
       inkscape:connector-curvature="0"
       d="M 0,0 0,283.465"
       style="fill:none;fill-opacity:1;fill-rule:nonzero;stroke:#000000;stroke-width:85.03900146;stroke-linecap:butt;stroke-linejoin:miter;stroke-miterlimit:4;stroke-dasharray:none;stroke-opacity:1"
       id="path3553" /></g><g
     style="fill:none;stroke:#000000;stroke-opacity:1"
     id="g3555"
     transform="matrix(0.35277774,0,0,-0.35277774,1164.011,1932.7712)"><path
       inkscape:connector-curvature="0"
       d="M 0,0 -245.488,-141.732"
       style="fill:none;fill-opacity:1;fill-rule:nonzero;stroke:#000000;stroke-width:85.03900146;stroke-linecap:butt;stroke-linejoin:miter;stroke-miterlimit:4;stroke-dasharray:none;stroke-opacity:1"
       id="path3557" /></g><g
     style="fill:none;stroke:#000000;stroke-opacity:1"
     id="g3559"
     transform="matrix(0.35277774,0,0,-0.35277774,1062.5915,1982.7713)"><path
       inkscape:connector-curvature="0"
       d="M 0,0 -245.488,141.732"
       style="fill:none;fill-opacity:1;fill-rule:nonzero;stroke:#000000;stroke-width:85.03900146;stroke-linecap:butt;stroke-linejoin:miter;stroke-miterlimit:4;stroke-dasharray:none;stroke-opacity:1"
       id="path3561" /></g><g
     style="fill:none;stroke:#000000;stroke-opacity:1"
     id="g3563"
     transform="matrix(0.35277774,0,0,-0.35277774,968.58039,1820.0236)"><path
       inkscape:connector-curvature="0"
       d="M 0,0 0,-283.465"
       style="fill:none;fill-opacity:1;fill-rule:nonzero;stroke:#000000;stroke-width:85.03900146;stroke-linecap:butt;stroke-linejoin:miter;stroke-miterlimit:4;stroke-dasharray:none;stroke-opacity:1"
       id="path3565" /></g><path
     inkscape:connector-curvature="0"
     d="m 2919.9999,1149.9999 79.9998,0 0,21.9999 -79.9998,0 0,-21.9999 z"
     style="fill:none;fill-opacity:1;fill-rule:nonzero;stroke:#000000;stroke-width:0.35277775;stroke-opacity:1"
     id="path3567" /><path
     inkscape:connector-curvature="0"
     d="m 2919.9999,678.00019 79.9998,0 0,21.99957 -79.9998,0 0,-21.99957 z"
     style="fill:none;fill-opacity:1;fill-rule:nonzero;stroke:#000000;stroke-width:0.35277775;stroke-opacity:1"
     id="path3569" /><path
     inkscape:connector-curvature="0"
     d="m 2892.0003,699.99976 27.9996,0 0,450.00014 -27.9996,0 0,-450.00014 z"
     style="fill:none;fill-opacity:1;fill-rule:nonzero;stroke:#000000;stroke-width:0.35277775;stroke-opacity:1"
     id="path3571" /><g
     style="fill:none;stroke:#000000;stroke-opacity:1"
     id="g3573"
     transform="matrix(0.35277774,0,0,-0.35277774,509.99998,2000.0002)"><path
       inkscape:connector-curvature="0"
       d="m 0,0 -1445.669,0 0,1445.67 C -647.249,1445.67 0,798.422 0,0 Z"
       style="fill:none;stroke:#000000;stroke-width:1;stroke-linecap:butt;stroke-linejoin:miter;stroke-miterlimit:4;stroke-dasharray:none;stroke-opacity:1"
       id="path3575" /></g><g
     style="fill:none;stroke:#000000;stroke-opacity:1"
     id="g3577"
     transform="matrix(0.35277774,0,0,-0.35277774,529.84546,1897.5499)"><path
       inkscape:connector-curvature="0"
       d="M 0,0 27.662,-282.111 -56.973,-290.41 -84.634,-8.297 0,0 Z"
       style="fill:none;fill-opacity:1;fill-rule:nonzero;stroke:#000000;stroke-opacity:1"
       id="path3579" /></g><g
     style="fill:none;stroke:#000000;stroke-opacity:1"
     id="g3581"
     transform="matrix(0.35277774,0,0,-0.35277774,471.18893,1804.6151)"><path
       inkscape:connector-curvature="0"
       d="M 0,0 -133.515,250.053 -58.499,290.107 75.016,40.055 0,0 Z"
       style="fill:none;fill-opacity:1;fill-rule:nonzero;stroke:#000000;stroke-opacity:1"
       id="path3583" /></g><g
     style="fill:none;stroke:#000000;stroke-opacity:1"
     id="g3585"
     transform="matrix(0.35277774,0,0,-0.35277774,528.87652,1891.6513)"><path
       inkscape:connector-curvature="0"
       d="M 0,0 -82.405,271.225 -163.772,246.502 -81.369,-24.719 0,0 Z"
       style="fill:none;fill-opacity:1;fill-rule:nonzero;stroke:#000000;stroke-opacity:1"
       id="path3587" /></g><g
     style="fill:none;stroke:#000000;stroke-opacity:1"
     id="g3589"
     transform="matrix(0.35277774,0,0,-0.35277774,423.86574,1716.4641)"><path
       inkscape:connector-curvature="0"
       d="M 0,0 -179.923,219.043 -114.21,273.02 65.714,53.977 0,0 Z"
       style="fill:none;fill-opacity:1;fill-rule:nonzero;stroke:#000000;stroke-opacity:1"
       id="path3591" /></g><g
     style="fill:none;stroke:#000000;stroke-opacity:1"
     id="g3593"
     transform="matrix(0.35277774,0,0,-0.35277774,102.45025,1469.8772)"><path
       inkscape:connector-curvature="0"
       d="M 0,0 -282.112,27.662 -290.41,-56.973 -8.298,-84.635 0,0 Z"
       style="fill:none;fill-opacity:1;fill-rule:nonzero;stroke:#000000;stroke-opacity:1"
       id="path3595" /></g><g
     style="fill:none;stroke:#000000;stroke-opacity:1"
     id="g3597"
     transform="matrix(0.35277774,0,0,-0.35277774,195.38514,1528.5334)"><path
       inkscape:connector-curvature="0"
       d="M 0,0 250.052,-133.516 290.107,-58.5 40.055,75.016 0,0 Z"
       style="fill:none;fill-opacity:1;fill-rule:nonzero;stroke:#000000;stroke-opacity:1"
       id="path3599" /></g><g
     style="fill:none;stroke:#000000;stroke-opacity:1"
     id="g3601"
     transform="matrix(0.35277774,0,0,-0.35277774,108.34859,1470.846)"><path
       inkscape:connector-curvature="0"
       d="M 0,0 271.225,-82.404 246.502,-163.771 -24.719,-81.369 0,0 Z"
       style="fill:none;fill-opacity:1;fill-rule:nonzero;stroke:#000000;stroke-opacity:1"
       id="path3603" /></g><g
     style="fill:none;stroke:#000000;stroke-opacity:1"
     id="g3605"
     transform="matrix(0.35277774,0,0,-0.35277774,283.5358,1575.8566)"><path
       inkscape:connector-curvature="0"
       d="m 0,0 219.043,-179.924 53.978,65.713 L 53.977,65.713 0,0 Z"
       style="fill:none;fill-opacity:1;fill-rule:nonzero;stroke:#000000;stroke-opacity:1"
       id="path3607" /></g><g
     style="fill:none;stroke:#000000;stroke-opacity:1"
     id="g3609"
     transform="matrix(0.35277774,0,0,-0.35277774,2489.9999,2000.0002)"><path
       inkscape:connector-curvature="0"
       d="m 0,0 1445.669,0 0,1445.67 C 647.248,1445.67 0,798.422 0,0 Z"
       style="fill:none;stroke:#000000;stroke-width:1;stroke-linecap:butt;stroke-linejoin:miter;stroke-miterlimit:4;stroke-dasharray:none;stroke-opacity:1"
       id="path3611" /></g><g
     style="fill:none;stroke:#000000;stroke-opacity:1"
     id="g3613"
     transform="matrix(0.35277774,0,0,-0.35277774,2470.1544,1897.5499)"><path
       inkscape:connector-curvature="0"
       d="M 0,0 -27.661,-282.111 56.973,-290.41 84.634,-8.297 0,0 Z"
       style="fill:none;fill-opacity:1;fill-rule:nonzero;stroke:#000000;stroke-opacity:1"
       id="path3615" /></g><g
     style="fill:none;stroke:#000000;stroke-opacity:1"
     id="g3617"
     transform="matrix(0.35277774,0,0,-0.35277774,2528.8109,1804.6151)"><path
       inkscape:connector-curvature="0"
       d="M 0,0 133.516,250.053 58.499,290.107 -75.016,40.055 0,0 Z"
       style="fill:none;fill-opacity:1;fill-rule:nonzero;stroke:#000000;stroke-opacity:1"
       id="path3619" /></g><g
     style="fill:none;stroke:#000000;stroke-opacity:1"
     id="g3621"
     transform="matrix(0.35277774,0,0,-0.35277774,2471.1235,1891.6513)"><path
       inkscape:connector-curvature="0"
       d="M 0,0 82.404,271.225 163.771,246.502 81.368,-24.719 0,0 Z"
       style="fill:none;fill-opacity:1;fill-rule:nonzero;stroke:#000000;stroke-opacity:1"
       id="path3623" /></g><g
     style="fill:none;stroke:#000000;stroke-opacity:1"
     id="g3625"
     transform="matrix(0.35277774,0,0,-0.35277774,2576.1341,1716.4641)"><path
       inkscape:connector-curvature="0"
       d="M 0,0 179.923,219.043 114.21,273.02 -65.714,53.977 0,0 Z"
       style="fill:none;fill-opacity:1;fill-rule:nonzero;stroke:#000000;stroke-opacity:1"
       id="path3627" /></g><g
     style="fill:none;stroke:#000000;stroke-opacity:1"
     id="g3629"
     transform="matrix(0.35277774,0,0,-0.35277774,2897.5496,1469.8772)"><path
       inkscape:connector-curvature="0"
       d="M 0,0 282.111,27.662 290.41,-56.973 8.297,-84.635 0,0 Z"
       style="fill:none;fill-opacity:1;fill-rule:nonzero;stroke:#000000;stroke-opacity:1"
       id="path3631" /></g><g
     style="fill:none;stroke:#000000;stroke-opacity:1"
     id="g3633"
     transform="matrix(0.35277774,0,0,-0.35277774,2804.6149,1528.5334)"><path
       inkscape:connector-curvature="0"
       d="M 0,0 -250.053,-133.516 -290.107,-58.5 -40.055,75.016 0,0 Z"
       style="fill:none;fill-opacity:1;fill-rule:nonzero;stroke:#000000;stroke-opacity:1"
       id="path3635" /></g><g
     style="fill:none;stroke:#000000;stroke-opacity:1"
     id="g3637"
     transform="matrix(0.35277774,0,0,-0.35277774,2891.6509,1470.846)"><path
       inkscape:connector-curvature="0"
       d="m 0,0 -271.224,-82.404 24.723,-81.367 271.22,82.402 L 0,0 Z"
       style="fill:none;fill-opacity:1;fill-rule:nonzero;stroke:#000000;stroke-opacity:1"
       id="path3639" /></g><g
     style="fill:none;stroke:#000000;stroke-opacity:1"
     id="g3641"
     transform="matrix(0.35277774,0,0,-0.35277774,2716.4639,1575.8566)"><path
       inkscape:connector-curvature="0"
       d="M 0,0 -219.043,-179.924 -273.02,-114.211 -53.977,65.713 0,0 Z"
       style="fill:none;fill-opacity:1;fill-rule:nonzero;stroke:#000000;stroke-opacity:1"
       id="path3643" /></g><g
     style="fill:none;stroke:#000000;stroke-opacity:1"
     id="g3645"
     transform="matrix(0.35277774,0,0,-0.35277774,19.903685,1315.3785)"><path
       inkscape:connector-curvature="0"
       d="m 0,0 c -33.741,-19.644 -56.42,-56.202 -56.42,-98.058 0,-41.972 22.805,-78.619 56.701,-98.222 l -0.001,6.61 c -30.63,18.993 -51.03,52.921 -51.03,91.612 0,38.576 20.277,72.415 50.756,91.442 L 0,0 Z"
       style="fill:none;fill-opacity:1;fill-rule:nonzero;stroke:#000000;stroke-opacity:1"
       id="path3647" /></g><g
     style="fill:none;stroke:#000000;stroke-opacity:1"
     id="g3649"
     transform="matrix(0.35277774,0,0,-0.35277774,19.903685,1315.3785)"><path
       inkscape:connector-curvature="0"
       d="m 0,0 c -33.741,-19.644 -56.42,-56.202 -56.42,-98.058 0,-41.972 22.805,-78.619 56.701,-98.222 l -0.001,6.61 c -30.63,18.993 -51.03,52.921 -51.03,91.612 0,38.576 20.277,72.415 50.756,91.442 L 0,0 Z"
       style="fill:none;stroke:#000000;stroke-width:0.99199998;stroke-linecap:butt;stroke-linejoin:miter;stroke-miterlimit:4;stroke-dasharray:none;stroke-opacity:1"
       id="path3651" /></g><g
     style="fill:none;stroke:#000000;stroke-opacity:1"
     id="g3653"
     transform="matrix(0.35277774,0,0,-0.35277774,1184.6216,19.903866)"><path
       inkscape:connector-curvature="0"
       d="m 0,0 c -19.644,33.741 -56.202,56.42 -98.058,56.42 -41.972,0 -78.619,-22.805 -98.222,-56.701 l 6.61,0.001 c 18.993,30.63 52.921,51.03 91.612,51.03 38.576,0 72.415,-20.277 91.442,-50.756 L 0,0 Z"
       style="fill:none;fill-opacity:1;fill-rule:nonzero;stroke:#000000;stroke-opacity:1"
       id="path3655" /></g><g
     style="fill:none;stroke:#000000;stroke-opacity:1"
     id="g3657"
     transform="matrix(0.35277774,0,0,-0.35277774,1184.6216,19.903866)"><path
       inkscape:connector-curvature="0"
       d="m 0,0 c -19.644,33.741 -56.202,56.42 -98.058,56.42 -41.972,0 -78.619,-22.805 -98.222,-56.701 l 6.61,0.001 c 18.993,30.63 52.921,51.03 91.612,51.03 38.576,0 72.415,-20.277 91.442,-50.756 L 0,0 Z"
       style="fill:none;stroke:#000000;stroke-width:0.99199998;stroke-linecap:butt;stroke-linejoin:miter;stroke-miterlimit:4;stroke-dasharray:none;stroke-opacity:1"
       id="path3659" /></g><g
     style="fill:none;stroke:#000000;stroke-opacity:1"
     id="g3661"
     transform="matrix(0.35277774,0,0,-0.35277774,1884.6216,19.903866)"><path
       inkscape:connector-curvature="0"
       d="m 0,0 c -19.644,33.741 -56.202,56.42 -98.058,56.42 -41.972,0 -78.619,-22.805 -98.222,-56.701 l 6.61,0.001 c 18.993,30.63 52.921,51.03 91.612,51.03 38.577,0 72.415,-20.277 91.442,-50.756 L 0,0 Z"
       style="fill:none;fill-opacity:1;fill-rule:nonzero;stroke:#000000;stroke-opacity:1"
       id="path3663" /></g><g
     style="fill:none;stroke:#000000;stroke-opacity:1"
     id="g3665"
     transform="matrix(0.35277774,0,0,-0.35277774,1884.6216,19.903866)"><path
       inkscape:connector-curvature="0"
       d="m 0,0 c -19.644,33.741 -56.202,56.42 -98.058,56.42 -41.972,0 -78.619,-22.805 -98.222,-56.701 l 6.61,0.001 c 18.993,30.63 52.921,51.03 91.612,51.03 38.577,0 72.415,-20.277 91.442,-50.756 L 0,0 Z"
       style="fill:none;stroke:#000000;stroke-width:0.99199998;stroke-linecap:butt;stroke-linejoin:miter;stroke-miterlimit:4;stroke-dasharray:none;stroke-opacity:1"
       id="path3667" /></g><g
     style="fill:none;stroke:#000000;stroke-opacity:1"
     id="g3669"
     transform="matrix(0.35277774,0,0,-0.35277774,2980.0962,1315.3785)"><path
       inkscape:connector-curvature="0"
       d="m 0,0 c 33.74,-19.644 56.42,-56.202 56.42,-98.058 0,-41.972 -22.805,-78.619 -56.701,-98.222 l 0,6.61 c 30.631,18.993 51.031,52.921 51.031,91.612 0,38.576 -20.277,72.415 -50.756,91.442 L 0,0 Z"
       style="fill:none;fill-opacity:1;fill-rule:nonzero;stroke:#000000;stroke-opacity:1"
       id="path3671" /></g><g
     style="fill:none;stroke:#000000;stroke-opacity:1"
     id="g3673"
     transform="matrix(0.35277774,0,0,-0.35277774,2980.0962,1315.3785)"><path
       inkscape:connector-curvature="0"
       d="m 0,0 c 33.74,-19.644 56.42,-56.202 56.42,-98.058 0,-41.972 -22.805,-78.619 -56.701,-98.222 l 0,6.61 c 30.631,18.993 51.031,52.921 51.031,91.612 0,38.576 -20.277,72.415 -50.756,91.442 L 0,0 Z"
       style="fill:none;stroke:#000000;stroke-width:0.99199998;stroke-linecap:butt;stroke-linejoin:miter;stroke-miterlimit:4;stroke-dasharray:none;stroke-opacity:1"
       id="path3675" /></g><g
     style="fill:none;stroke:#000000;stroke-opacity:1"
     id="g3677"
     transform="matrix(0.35277774,0,0,-0.35277774,1446.1193,1202.2867)"><path
       inkscape:connector-curvature="0"
       d="M 0,0 0,-1700.787"
       style="fill:none;fill-opacity:1;fill-rule:nonzero;stroke:#000000;stroke-width:79.37000275;stroke-linecap:butt;stroke-linejoin:miter;stroke-miterlimit:4;stroke-dasharray:none;stroke-opacity:1"
       id="path3679" /></g><g
     style="fill:none;stroke:#000000;stroke-opacity:1"
     id="g3681"
     transform="matrix(0.35277774,0,0,-0.35277774,1553.8804,1202.2867)"><path
       inkscape:connector-curvature="0"
       d="M 0,0 0,-1700.787"
       style="fill:none;fill-opacity:1;fill-rule:nonzero;stroke:#000000;stroke-width:79.37000275;stroke-linecap:butt;stroke-linejoin:miter;stroke-miterlimit:4;stroke-dasharray:none;stroke-opacity:1"
       id="path3683" /></g><g
     style="fill:none;stroke:#000000;stroke-opacity:1"
     id="g3685"
     transform="matrix(0.35277774,0,0,-0.35277774,2026.2473,1397.7428)"><path
       inkscape:connector-curvature="0"
       d="M 0,0 -1202.639,-1202.639"
       style="fill:none;fill-opacity:1;fill-rule:nonzero;stroke:#000000;stroke-width:79.37000275;stroke-linecap:butt;stroke-linejoin:miter;stroke-miterlimit:4;stroke-dasharray:none;stroke-opacity:1"
       id="path3687" /></g><g
     style="fill:none;stroke:#000000;stroke-opacity:1"
     id="g3689"
     transform="matrix(0.35277774,0,0,-0.35277774,2102.4459,1473.9414)"><path
       inkscape:connector-curvature="0"
       d="M 0,0 -1202.639,-1202.638"
       style="fill:none;fill-opacity:1;fill-rule:nonzero;stroke:#000000;stroke-width:79.37000275;stroke-linecap:butt;stroke-linejoin:miter;stroke-miterlimit:4;stroke-dasharray:none;stroke-opacity:1"
       id="path3691" /></g><g
     style="fill:none;stroke:#000000;stroke-opacity:1"
     id="g3693"
     transform="matrix(0.35277774,0,0,-0.35277774,973.70325,1397.7428)"><path
       inkscape:connector-curvature="0"
       d="M 0,0 1202.639,-1202.639"
       style="fill:none;fill-opacity:1;fill-rule:nonzero;stroke:#000000;stroke-width:79.37000275;stroke-linecap:butt;stroke-linejoin:miter;stroke-miterlimit:4;stroke-dasharray:none;stroke-opacity:1"
       id="path3695" /></g><g
     style="fill:none;stroke:#000000;stroke-opacity:1"
     id="g3697"
     transform="matrix(0.35277774,0,0,-0.35277774,897.50499,1473.9414)"><path
       inkscape:connector-curvature="0"
       d="M 0,0 1202.638,-1202.638"
       style="fill:none;fill-opacity:1;fill-rule:nonzero;stroke:#000000;stroke-width:79.37000275;stroke-linecap:butt;stroke-linejoin:miter;stroke-miterlimit:4;stroke-dasharray:none;stroke-opacity:1"
       id="path3699" /></g><g
     style="fill:#007cb0;fill-opacity:1"
     id="g3709"
     transform="matrix(0.35277774,0,0,-0.35277774,231.50006,600.00001)"><path
       inkscape:connector-curvature="0"
       d="m 0,0 c 0,-49.314 -39.978,-89.292 -89.291,-89.292 -49.314,0 -89.292,39.978 -89.292,89.292 0,49.314 39.978,89.291 89.292,89.291 C -39.978,89.291 0,49.314 0,0 Z"
       style="fill:#007cb0;stroke:#231f20;stroke-width:0.99199998;stroke-linecap:butt;stroke-linejoin:miter;stroke-miterlimit:4;stroke-dasharray:none;stroke-opacity:1;fill-opacity:1"
       id="path3711" /></g><path
     inkscape:connector-curvature="0"
     d="m 200.50017,600.50021 -0.99977,0 0,-1.00012 0.99977,0 0,1.00012 z"
     style="fill:#007cb0;fill-opacity:1;fill-rule:nonzero;stroke:#231f20;stroke-width:0.3499555;stroke-linecap:butt;stroke-linejoin:miter;stroke-miterlimit:4;stroke-dasharray:none;stroke-opacity:1"
     id="path3713" /><g
     style="fill:none"
     id="g3715"
     transform="matrix(0.35277774,0,0,-0.35277774,1031.5002,600.00001)"><path
       inkscape:connector-curvature="0"
       d="m 0,0 c 0,-49.314 -39.979,-89.292 -89.291,-89.292 -49.314,0 -89.293,39.978 -89.293,89.292 0,49.314 39.979,89.291 89.293,89.291 C -39.979,89.291 0,49.314 0,0 Z"
       style="fill:none;stroke:#231f20;stroke-width:0.99199998;stroke-linecap:butt;stroke-linejoin:miter;stroke-miterlimit:4;stroke-dasharray:none;stroke-opacity:1"
       id="path3717" /></g><path
     inkscape:connector-curvature="0"
     d="m 1000.4999,600.50021 -0.99978,0 0,-1.00012 0.99978,0 0,1.00012 z"
     style="fill:none;fill-opacity:1;fill-rule:nonzero;stroke:#231f20;stroke-width:0.3499555;stroke-linecap:butt;stroke-linejoin:miter;stroke-miterlimit:4;stroke-dasharray:none;stroke-opacity:1"
     id="path3719" /><g
     style="fill:none"
     id="g3721"
     transform="matrix(0.35277774,0,0,-0.35277774,2031.5001,600.00001)"><path
       inkscape:connector-curvature="0"
       d="m 0,0 c 0,-49.314 -39.978,-89.292 -89.291,-89.292 -49.314,0 -89.293,39.978 -89.293,89.292 0,49.314 39.979,89.291 89.293,89.291 C -39.978,89.291 0,49.314 0,0 Z"
       style="fill:none;stroke:#231f20;stroke-width:0.99199998;stroke-linecap:butt;stroke-linejoin:miter;stroke-miterlimit:4;stroke-dasharray:none;stroke-opacity:1"
       id="path3723" /></g><path
     inkscape:connector-curvature="0"
     d="m 2000.4996,600.50021 -0.9998,0 0,-1.00012 0.9998,0 0,1.00012 z"
     style="fill:none;fill-opacity:1;fill-rule:nonzero;stroke:#231f20;stroke-width:0.3499555;stroke-linecap:butt;stroke-linejoin:miter;stroke-miterlimit:4;stroke-dasharray:none;stroke-opacity:1"
     id="path3725" /><g
     style="fill:#f7b500;fill-opacity:1"
     id="g3727"
     transform="matrix(0.35277774,0,0,-0.35277774,2831.5001,600.00001)"><path
       inkscape:connector-curvature="0"
       d="m 0,0 c 0,-49.314 -39.979,-89.292 -89.291,-89.292 -49.314,0 -89.293,39.978 -89.293,89.292 0,49.314 39.979,89.291 89.293,89.291 C -39.979,89.291 0,49.314 0,0 Z"
       style="fill:#f7b500;stroke:#231f20;stroke-width:0.99199998;stroke-linecap:butt;stroke-linejoin:miter;stroke-miterlimit:4;stroke-dasharray:none;stroke-opacity:1;fill-opacity:1"
       id="path3729" /></g><path
     inkscape:connector-curvature="0"
     d="m 2800.4996,600.50021 -0.9997,0 0,-1.00012 0.9997,0 0,1.00012 z"
     style="fill:#f7b500;fill-opacity:1;fill-rule:nonzero;stroke:#231f20;stroke-width:0.3499555;stroke-linecap:butt;stroke-linejoin:miter;stroke-miterlimit:4;stroke-dasharray:none;stroke-opacity:1"
     id="path3731" /><g
     style="fill:#007cb0;fill-opacity:1"
     id="g3733"
     transform="matrix(0.35277774,0,0,-0.35277774,981.5002,200.00001)"><path
       inkscape:connector-curvature="0"
       d="m 0,0 c 0,-49.314 -39.979,-89.292 -89.291,-89.292 -49.314,0 -89.293,39.978 -89.293,89.292 0,49.314 39.979,89.291 89.293,89.291 C -39.979,89.291 0,49.314 0,0 Z"
       style="fill:#007cb0;stroke:#231f20;stroke-width:0.99199998;stroke-linecap:butt;stroke-linejoin:miter;stroke-miterlimit:4;stroke-dasharray:none;stroke-opacity:1;fill-opacity:1"
       id="path3735" /></g><path
     inkscape:connector-curvature="0"
     d="m 950.5,200.50035 -0.99977,0 0,-1.00012 0.99977,0 0,1.00012 z"
     style="fill:#007cb0;fill-opacity:1;fill-rule:nonzero;stroke:#231f20;stroke-width:0.3499555;stroke-linecap:butt;stroke-linejoin:miter;stroke-miterlimit:4;stroke-dasharray:none;stroke-opacity:1"
     id="path3737" /><g
     style="fill:#f7b500;fill-opacity:1"
     id="g3739"
     transform="matrix(0.35277774,0,0,-0.35277774,2081.5001,200.00001)"><path
       inkscape:connector-curvature="0"
       d="m 0,0 c 0,-49.314 -39.979,-89.292 -89.291,-89.292 -49.314,0 -89.293,39.978 -89.293,89.292 0,49.314 39.979,89.291 89.293,89.291 C -39.979,89.291 0,49.314 0,0 Z"
       style="fill:#f7b500;stroke:#231f20;stroke-width:0.99199998;stroke-linecap:butt;stroke-linejoin:miter;stroke-miterlimit:4;stroke-dasharray:none;stroke-opacity:1;fill-opacity:1"
       id="path3741" /></g><path
     inkscape:connector-curvature="0"
     d="m 2050.4998,200.50035 -0.9998,0 0,-1.00012 0.9998,0 0,1.00012 z"
     style="fill:#f7b500;fill-opacity:1;fill-rule:nonzero;stroke:#231f20;stroke-width:0.3499555;stroke-linecap:butt;stroke-linejoin:miter;stroke-miterlimit:4;stroke-dasharray:none;stroke-opacity:1"
     id="path3743" /><g
     style="fill:none"
     id="g3745"
     transform="matrix(0.35277774,0,0,-0.35277774,531.50013,1100.0001)"><path
       inkscape:connector-curvature="0"
       d="m 0,0 c 0,-49.314 -39.979,-89.291 -89.291,-89.291 -49.314,0 -89.293,39.977 -89.293,89.291 0,49.314 39.979,89.291 89.293,89.291 C -39.979,89.291 0,49.314 0,0 Z"
       style="fill:none;stroke:#231f20;stroke-width:0.99199998;stroke-linecap:butt;stroke-linejoin:miter;stroke-miterlimit:4;stroke-dasharray:none;stroke-opacity:1"
       id="path3747" /></g><path
     inkscape:connector-curvature="0"
     d="m 500.49989,1100.5002 -0.99977,0 0,-1.0005 0.99977,0 0,1.0005 z"
     style="fill:none;fill-opacity:1;fill-rule:nonzero;stroke:#231f20;stroke-width:0.3499555;stroke-linecap:butt;stroke-linejoin:miter;stroke-miterlimit:4;stroke-dasharray:none;stroke-opacity:1"
     id="path3749" /><g
     style="fill:none"
     id="g3751"
     transform="matrix(0.35277774,0,0,-0.35277774,68.609238,1350)"><path
       inkscape:connector-curvature="0"
       d="m 0,0 c 0,-49.314 -39.979,-89.292 -89.291,-89.292 -49.314,0 -89.293,39.978 -89.293,89.292 0,49.313 39.979,89.291 89.293,89.291 C -39.979,89.291 0,49.313 0,0 Z"
       style="fill:none;stroke:#231f20;stroke-width:0.99199998;stroke-linecap:butt;stroke-linejoin:miter;stroke-miterlimit:4;stroke-dasharray:none;stroke-opacity:1"
       id="path3753" /></g><path
     inkscape:connector-curvature="0"
     d="m 37.608929,1350.5 -0.999772,0 0,-1.0001 0.999772,0 0,1.0001 z"
     style="fill:none;fill-opacity:1;fill-rule:nonzero;stroke:#231f20;stroke-width:0.3499555;stroke-linecap:butt;stroke-linejoin:miter;stroke-miterlimit:4;stroke-dasharray:none;stroke-opacity:1"
     id="path3755" /><g
     style="fill:#007cb0;fill-opacity:1"
     id="g3757"
     transform="matrix(0.35277774,0,0,-0.35277774,831.50006,1850.0001)"><path
       inkscape:connector-curvature="0"
       d="m 0,0 c 0,-49.314 -39.979,-89.291 -89.291,-89.291 -49.314,0 -89.293,39.977 -89.293,89.291 0,49.314 39.979,89.291 89.293,89.291 C -39.979,89.291 0,49.314 0,0 Z"
       style="fill:#007cb0;stroke:#231f20;stroke-width:0.99199998;stroke-linecap:butt;stroke-linejoin:miter;stroke-miterlimit:4;stroke-dasharray:none;stroke-opacity:1;fill-opacity:1"
       id="path3759" /></g><path
     inkscape:connector-curvature="0"
     d="m 800.49961,1850.5004 -0.99977,0 0,-1.0005 0.99977,0 0,1.0005 z"
     style="fill:#007cb0;fill-opacity:1;fill-rule:nonzero;stroke:#231f20;stroke-width:0.3499555;stroke-linecap:butt;stroke-linejoin:miter;stroke-miterlimit:4;stroke-dasharray:none;stroke-opacity:1"
     id="path3761" /><g
     style="fill:none"
     id="g3763"
     transform="matrix(0.35277774,0,0,-0.35277774,931.50013,1400)"><path
       inkscape:connector-curvature="0"
       d="m 0,0 c 0,-49.314 -39.979,-89.292 -89.291,-89.292 -49.314,0 -89.293,39.978 -89.293,89.292 0,49.313 39.979,89.291 89.293,89.291 C -39.979,89.291 0,49.313 0,0 Z"
       style="fill:none;stroke:#231f20;stroke-width:0.99199998;stroke-linecap:butt;stroke-linejoin:miter;stroke-miterlimit:4;stroke-dasharray:none;stroke-opacity:1"
       id="path3765" /></g><path
     inkscape:connector-curvature="0"
     d="m 900.49975,1400.5003 -0.99977,0 0,-1.0001 0.99977,0 0,1.0001 z"
     style="fill:none;fill-opacity:1;fill-rule:nonzero;stroke:#231f20;stroke-width:0.3499555;stroke-linecap:butt;stroke-linejoin:miter;stroke-miterlimit:4;stroke-dasharray:none;stroke-opacity:1"
     id="path3767" /><g
     style="fill:none"
     id="g3769"
     transform="matrix(0.35277774,0,0,-0.35277774,2131.4998,1400)"><path
       inkscape:connector-curvature="0"
       d="m 0,0 c 0,-49.314 -39.979,-89.292 -89.291,-89.292 -49.314,0 -89.293,39.978 -89.293,89.292 0,49.313 39.979,89.291 89.293,89.291 C -39.979,89.291 0,49.313 0,0 Z"
       style="fill:none;stroke:#231f20;stroke-width:0.99199998;stroke-linecap:butt;stroke-linejoin:miter;stroke-miterlimit:4;stroke-dasharray:none;stroke-opacity:1"
       id="path3771" /></g><path
     inkscape:connector-curvature="0"
     d="m 2100.4993,1400.5003 -0.9997,0 0,-1.0001 0.9997,0 0,1.0001 z"
     style="fill:none;fill-opacity:1;fill-rule:nonzero;stroke:#231f20;stroke-width:0.3499555;stroke-linecap:butt;stroke-linejoin:miter;stroke-miterlimit:4;stroke-dasharray:none;stroke-opacity:1"
     id="path3773" /><g
     style="fill:none"
     id="g3775"
     transform="matrix(0.35277774,0,0,-0.35277774,2531.5001,1100.0001)"><path
       inkscape:connector-curvature="0"
       d="m 0,0 c 0,-49.314 -39.979,-89.291 -89.291,-89.291 -49.314,0 -89.293,39.977 -89.293,89.291 0,49.314 39.979,89.291 89.293,89.291 C -39.979,89.291 0,49.314 0,0 Z"
       style="fill:none;stroke:#231f20;stroke-width:0.99199998;stroke-linecap:butt;stroke-linejoin:miter;stroke-miterlimit:4;stroke-dasharray:none;stroke-opacity:1"
       id="path3777" /></g><path
     inkscape:connector-curvature="0"
     d="m 2500.4999,1100.5002 -0.9998,0 0,-1.0005 0.9998,0 0,1.0005 z"
     style="fill:none;fill-opacity:1;fill-rule:nonzero;stroke:#231f20;stroke-width:0.3499555;stroke-linecap:butt;stroke-linejoin:miter;stroke-miterlimit:4;stroke-dasharray:none;stroke-opacity:1"
     id="path3779" /><g
     style="fill:none"
     id="g3781"
     transform="matrix(0.35277774,0,0,-0.35277774,2991.5001,1350)"><path
       inkscape:connector-curvature="0"
       d="m 0,0 c 0,-49.314 -39.979,-89.292 -89.291,-89.292 -49.314,0 -89.293,39.978 -89.293,89.292 0,49.313 39.979,89.291 89.293,89.291 C -39.979,89.291 0,49.313 0,0 Z"
       style="fill:none;stroke:#231f20;stroke-width:0.99199998;stroke-linecap:butt;stroke-linejoin:miter;stroke-miterlimit:4;stroke-dasharray:none;stroke-opacity:1"
       id="path3783" /></g><path
     inkscape:connector-curvature="0"
     d="m 2960.4999,1350.5 -0.9998,0 0,-1.0001 0.9998,0 0,1.0001 z"
     style="fill:none;fill-opacity:1;fill-rule:nonzero;stroke:#231f20;stroke-width:0.3499555;stroke-linecap:butt;stroke-linejoin:miter;stroke-miterlimit:4;stroke-dasharray:none;stroke-opacity:1"
     id="path3785" /><g
     style="fill:#f7b500;fill-opacity:1"
     id="g3787"
     transform="matrix(0.35277774,0,0,-0.35277774,2231.4999,1850.0001)"><path
       inkscape:connector-curvature="0"
       d="m 0,0 c 0,-49.314 -39.979,-89.291 -89.291,-89.291 -49.314,0 -89.293,39.977 -89.293,89.291 0,49.314 39.979,89.291 89.293,89.291 C -39.979,89.291 0,49.314 0,0 Z"
       style="fill:#f7b500;stroke:#231f20;stroke-width:0.99199998;stroke-linecap:butt;stroke-linejoin:miter;stroke-miterlimit:4;stroke-dasharray:none;stroke-opacity:1;fill-opacity:1"
       id="path3789" /></g><path
     inkscape:connector-curvature="0"
     d="m 2200.4995,1850.5004 -0.9998,0 0,-1.0005 0.9998,0 0,1.0005 z"
     style="fill:#f7b500;fill-opacity:1;fill-rule:nonzero;stroke:#231f20;stroke-width:0.3499555;stroke-linecap:butt;stroke-linejoin:miter;stroke-miterlimit:4;stroke-dasharray:none;stroke-opacity:1"
     id="path3791" /><g
     style="fill:none"
     id="g3793"
     transform="matrix(0.35277774,0,0,-0.35277774,1181.5,38.722018)"><path
       inkscape:connector-curvature="0"
       d="m 0,0 c 0,-49.314 -39.979,-89.292 -89.291,-89.292 -49.314,0 -89.293,39.978 -89.293,89.292 0,49.314 39.979,89.291 89.293,89.291 C -39.979,89.291 0,49.314 0,0 Z"
       style="fill:none;stroke:#231f20;stroke-width:0.99199998;stroke-linecap:butt;stroke-linejoin:miter;stroke-miterlimit:4;stroke-dasharray:none;stroke-opacity:1"
       id="path3795" /></g><path
     inkscape:connector-curvature="0"
     d="m 1150.4996,39.222363 -0.9998,0 0,-1.000125 0.9998,0 0,1.000125 z"
     style="fill:none;fill-opacity:1;fill-rule:nonzero;stroke:#231f20;stroke-width:0.3499555;stroke-linecap:butt;stroke-linejoin:miter;stroke-miterlimit:4;stroke-dasharray:none;stroke-opacity:1"
     id="path3797" /><g
     style="fill:none"
     id="g3799"
     transform="matrix(0.35277774,0,0,-0.35277774,1881.5003,39.222081)"><path
       inkscape:connector-curvature="0"
       d="m 0,0 c 0,-49.314 -39.979,-89.292 -89.291,-89.292 -49.314,0 -89.293,39.978 -89.293,89.292 0,49.314 39.979,89.291 89.293,89.291 C -39.979,89.291 0,49.314 0,0 Z"
       style="fill:none;stroke:#231f20;stroke-width:0.99199998;stroke-linecap:butt;stroke-linejoin:miter;stroke-miterlimit:4;stroke-dasharray:none;stroke-opacity:1"
       id="path3801" /></g><path
     inkscape:connector-curvature="0"
     d="m 1850.4999,39.722249 -0.9998,0 0,-1.000125 0.9998,0 0,1.000125 z"
     style="fill:none;fill-opacity:1;fill-rule:nonzero;stroke:#231f20;stroke-width:0.3499555;stroke-linecap:butt;stroke-linejoin:miter;stroke-miterlimit:4;stroke-dasharray:none;stroke-opacity:1"
     id="path3803" /><rect
     style="opacity:1;fill:none;fill-opacity:1;stroke:#000000;stroke-width:1;stroke-miterlimit:4;stroke-dasharray:none;stroke-dashoffset:0;stroke-opacity:1"
     id="rect4324"
     width="2996.9668"
     height="1996.9668"
     x="1.5166551"
     y="1.516548" /></svg>