<?xml version="1.0" encoding="UTF-8" standalone="no"?>
<svg
   xmlns:dc="http://purl.org/dc/elements/1.1/"
   xmlns:cc="http://creativecommons.org/ns#"
   xmlns:rdf="http://www.w3.org/1999/02/22-rdf-syntax-ns#"
   xmlns:svg="http://www.w3.org/2000/svg"
   xmlns="http://www.w3.org/2000/svg"
   xmlns:sodipodi="http://sodipodi.sourceforge.net/DTD/sodipodi-0.dtd"
   xmlns:inkscape="http://www.inkscape.org/namespaces/inkscape"
   viewBox="0 0 3000.0001 2000"
   height="2000"
   width="3000"
   xml:space="preserve"
   version="1.1"
   id="svg3393"
   inkscape:version="0.91 r13725"
   sodipodi:docname="playing_area.svg"><sodipodi:namedview
     pagecolor="#ffffff"
     bordercolor="#666666"
     borderopacity="1"
     objecttolerance="10"
     gridtolerance="10"
     guidetolerance="10"
     inkscape:pageopacity="0"
     inkscape:pageshadow="2"
     inkscape:window-width="1366"
     inkscape:window-height="692"
     id="namedview3786"
     showgrid="false"
     inkscape:zoom="0.26741214"
     inkscape:cx="1493.4124"
     inkscape:cy="987.27628"
     inkscape:window-x="0"
     inkscape:window-y="23"
     inkscape:window-maximized="1"
     inkscape:current-layer="svg3393"
     showguides="true" /><metadata
     id="metadata3399"><rdf:RDF><cc:Work
         rdf:about=""><dc:format>image/svg+xml</dc:format><dc:type
           rdf:resource="http://purl.org/dc/dcmitype/StillImage" /><dc:title /></cc:Work></rdf:RDF></metadata><defs
     id="defs3397"><clipPath
       id="clipPath3407"
       clipPathUnits="userSpaceOnUse"><path
         id="path3409"
         d="m 0,0 8503.937,0 0,5669.291 L 0,5669.291 0,0 Z"
         inkscape:connector-curvature="0" /></clipPath><clipPath
       id="clipPath3433"
       clipPathUnits="userSpaceOnUse"><path
         id="path3435"
         d="m 0,5669.292 8503.938,0 L 8503.938,0 0,0 0,5669.292 Z"
         inkscape:connector-curvature="0" /></clipPath><clipPath
       id="clipPath3449"
       clipPathUnits="userSpaceOnUse"><path
         id="path3451"
         d="m 0,5669.292 8503.938,0 L 8503.938,0 0,0 0,5669.292 Z"
         inkscape:connector-curvature="0" /></clipPath><clipPath
       id="clipPath3705"
       clipPathUnits="userSpaceOnUse"><path
         id="path3707"
         d="m 0,5669.292 8503.938,0 L 8503.938,0 0,0 0,5669.292 Z"
         inkscape:connector-curvature="0" /></clipPath></defs><path
     inkscape:connector-curvature="0"
     d="m 2999.9999,1640.0159 -360.0002,0 0,360.0002 360.0002,0 0,-360.0002 z"
     style="fill:#007cb0;fill-opacity:1;fill-rule:nonzero;stroke:none"
     id="path3417" /><path
     inkscape:connector-curvature="0"
     d="m -1.4793967e-4,1640.0163 359.99979793967,0 0,360.0001 -359.99979793967,0 0,-360.0001 z"
     style="fill:#f7b500;fill-opacity:1;fill-rule:nonzero;stroke:none"
     id="path3419" /><path
     inkscape:connector-curvature="0"
     d="m 1930,1640.0163 360.0001,0 0,360.0001 -360.0001,0 0,-360.0001 z"
     style="fill:#007cb0;fill-opacity:1;fill-rule:nonzero;stroke:none"
     id="path3421" /><path
     inkscape:connector-curvature="0"
     d="m 710.00035,1640.0163 360.00015,0 0,360.0001 -360.00015,0 0,-360.0001 z"
     style="fill:#f7b500;fill-opacity:1;fill-rule:nonzero;stroke:none;stroke-width:0.28346461;stroke-miterlimit:4;stroke-dasharray:none"
     id="path3423" /><g
     style="fill:none"
     id="g3425"
     transform="matrix(-0.35277774,0,0,0.35277774,2999.9999,1629.016)"><path
       inkscape:connector-curvature="0"
       d="M 0,0 2012.598,0 0,0 Z"
       style="fill:none;fill-opacity:1;fill-rule:nonzero;stroke:none"
       id="path3427" /></g><g
     clip-path="url(#clipPath3433)"
     id="g3431"
     style="fill:none"
     transform="matrix(-0.35277774,0,0,0.35277774,2999.9999,0.01640127)"><g
       transform="translate(0,4617.6387)"
       id="g3437"
       style="fill:none"><path
         id="path3439"
         style="fill:none;stroke:#dadbd5;stroke-width:62.36199951;stroke-linecap:butt;stroke-linejoin:miter;stroke-miterlimit:4;stroke-dasharray:none;stroke-opacity:1"
         d="M 0,0 2012.599,0"
         inkscape:connector-curvature="0" /></g></g><g
     style="fill:none"
     id="g3441"
     transform="matrix(-0.35277774,0,0,0.35277774,709.99985,1630.0166)"><path
       inkscape:connector-curvature="0"
       d="M 0,0 2012.598,0 0,0 Z"
       style="fill:none;fill-opacity:1;fill-rule:nonzero;stroke:none"
       id="path3443" /></g><g
     style="fill:none;stroke:#000000;stroke-opacity:1"
     id="g3453"
     transform="matrix(-0.35277774,0,0,0.35277774,709.99945,1630.0165)"><path
       inkscape:connector-curvature="0"
       d="M 0,0 2012.597,0"
       style="fill:none;stroke:#000000;stroke-width:62.36199951;stroke-linecap:butt;stroke-linejoin:miter;stroke-miterlimit:4;stroke-dasharray:none;stroke-opacity:1"
       id="path3455" /></g><g
     style="fill:none;stroke:#000000;stroke-opacity:1"
     id="g3457"
     transform="matrix(-0.35277774,0,0,0.35277774,1300,0.01640127)"><path
       inkscape:connector-curvature="0"
       d="M 0,0 C 0,313.107 -253.824,566.93 -566.93,566.93 -880.036,566.93 -1133.859,313.107 -1133.859,0 L 0,0 Z"
       style="fill:none;fill-opacity:1;fill-rule:nonzero;stroke:#000000;stroke-opacity:1"
       id="path3459" /></g><g
     style="fill:none;stroke:#000000;stroke-opacity:1"
     id="g3461"
     transform="matrix(-0.35277774,0,0,0.35277774,1300,0.01640127)"><path
       inkscape:connector-curvature="0"
       d="M 0,0 C 0,313.107 -253.824,566.93 -566.93,566.93 -880.036,566.93 -1133.859,313.107 -1133.859,0 L 0,0 Z"
       style="fill:none;stroke:#000000;stroke-width:1;stroke-linecap:butt;stroke-linejoin:miter;stroke-miterlimit:4;stroke-dasharray:none;stroke-opacity:1"
       id="path3463" /></g><g
     style="fill:none;stroke:#000000;stroke-opacity:1"
     id="g3465"
     transform="matrix(-0.35277774,0,0,0.35277774,2444.011,1522.7874)"><path
       inkscape:connector-curvature="0"
       d="M 0,0 245.488,141.732"
       style="fill:none;fill-opacity:1;fill-rule:nonzero;stroke:#000000;stroke-width:85.03900146;stroke-linecap:butt;stroke-linejoin:miter;stroke-miterlimit:4;stroke-dasharray:none;stroke-opacity:1"
       id="path3467" /></g><g
     style="fill:none;stroke:#000000;stroke-opacity:1"
     id="g3469"
     transform="matrix(-0.35277774,0,0,0.35277774,2342.5915,1572.7874)"><path
       inkscape:connector-curvature="0"
       d="M 0,0 245.488,-141.732"
       style="fill:none;fill-opacity:1;fill-rule:nonzero;stroke:#000000;stroke-width:85.03900146;stroke-linecap:butt;stroke-linejoin:miter;stroke-miterlimit:4;stroke-dasharray:none;stroke-opacity:1"
       id="path3471" /></g><g
     style="fill:none;stroke:#000000;stroke-opacity:1"
     id="g3473"
     transform="matrix(-0.35277774,0,0,0.35277774,2248.5803,1410.0401)"><path
       inkscape:connector-curvature="0"
       d="M 0,0 0,283.465"
       style="fill:none;fill-opacity:1;fill-rule:nonzero;stroke:#000000;stroke-width:85.03900146;stroke-linecap:butt;stroke-linejoin:miter;stroke-miterlimit:4;stroke-dasharray:none;stroke-opacity:1"
       id="path3475" /></g><g
     style="fill:none;stroke:#000000;stroke-opacity:1"
     id="g3477"
     transform="matrix(-0.35277774,0,0,0.35277774,2255.9887,1397.2455)"><path
       inkscape:connector-curvature="0"
       d="M 0,0 -245.488,-141.732"
       style="fill:none;fill-opacity:1;fill-rule:nonzero;stroke:#000000;stroke-width:85.03900146;stroke-linecap:butt;stroke-linejoin:miter;stroke-miterlimit:4;stroke-dasharray:none;stroke-opacity:1"
       id="path3479" /></g><g
     style="fill:none;stroke:#000000;stroke-opacity:1"
     id="g3481"
     transform="matrix(-0.35277774,0,0,0.35277774,2357.4081,1347.2455)"><path
       inkscape:connector-curvature="0"
       d="M 0,0 -245.488,141.732"
       style="fill:none;fill-opacity:1;fill-rule:nonzero;stroke:#000000;stroke-width:85.03900146;stroke-linecap:butt;stroke-linejoin:miter;stroke-miterlimit:4;stroke-dasharray:none;stroke-opacity:1"
       id="path3483" /></g><g
     style="fill:none;stroke:#000000;stroke-opacity:1"
     id="g3485"
     transform="matrix(-0.35277774,0,0,0.35277774,2451.4196,1509.9928)"><path
       inkscape:connector-curvature="0"
       d="M 0,0 0,-283.465"
       style="fill:none;fill-opacity:1;fill-rule:nonzero;stroke:#000000;stroke-width:85.03900146;stroke-linecap:butt;stroke-linejoin:miter;stroke-miterlimit:4;stroke-dasharray:none;stroke-opacity:1"
       id="path3487" /></g><path
     inkscape:connector-curvature="0"
     d="m 2920.0001,1300.0165 79.9998,0 0,21.9999 -79.9998,0 0,-21.9999 z"
     style="fill:none;fill-opacity:1;fill-rule:nonzero;stroke:#000000;stroke-width:0.35277775;stroke-opacity:1"
     id="path3489" /><path
     inkscape:connector-curvature="0"
     d="m 2920.0001,828.0164 79.9998,0 0,22 -79.9998,0 0,-22 z"
     style="fill:none;fill-opacity:1;fill-rule:nonzero;stroke:#000000;stroke-width:0.35277775;stroke-opacity:1"
     id="path3491" /><path
     inkscape:connector-curvature="0"
     d="m 2891.9998,850.0164 27.9999,0 0,450.0001 -27.9999,0 0,-450.0001 z"
     style="fill:none;fill-opacity:1;fill-rule:nonzero;stroke:#000000;stroke-width:0.35277775;stroke-opacity:1"
     id="path3493" /><g
     style="fill:none;stroke:#000000;stroke-opacity:1"
     id="g3495"
     transform="matrix(-0.35277774,0,0,0.35277774,744.01155,1522.7874)"><path
       inkscape:connector-curvature="0"
       d="M 0,0 245.488,141.732"
       style="fill:none;fill-opacity:1;fill-rule:nonzero;stroke:#000000;stroke-width:85.03900146;stroke-linecap:butt;stroke-linejoin:miter;stroke-miterlimit:4;stroke-dasharray:none;stroke-opacity:1"
       id="path3497" /></g><g
     style="fill:none;stroke:#000000;stroke-opacity:1"
     id="g3499"
     transform="matrix(-0.35277774,0,0,0.35277774,642.59205,1572.7874)"><path
       inkscape:connector-curvature="0"
       d="M 0,0 245.488,-141.732"
       style="fill:none;fill-opacity:1;fill-rule:nonzero;stroke:#000000;stroke-width:85.03900146;stroke-linecap:butt;stroke-linejoin:miter;stroke-miterlimit:4;stroke-dasharray:none;stroke-opacity:1"
       id="path3501" /></g><g
     style="fill:none;stroke:#000000;stroke-opacity:1"
     id="g3503"
     transform="matrix(-0.35277774,0,0,0.35277774,548.58025,1410.0401)"><path
       inkscape:connector-curvature="0"
       d="M 0,0 0,283.465"
       style="fill:none;fill-opacity:1;fill-rule:nonzero;stroke:#000000;stroke-width:85.03900146;stroke-linecap:butt;stroke-linejoin:miter;stroke-miterlimit:4;stroke-dasharray:none;stroke-opacity:1"
       id="path3505" /></g><g
     style="fill:none;stroke:#000000;stroke-opacity:1"
     id="g3507"
     transform="matrix(-0.35277774,0,0,0.35277774,555.98855,1397.2455)"><path
       inkscape:connector-curvature="0"
       d="M 0,0 -245.488,-141.732"
       style="fill:none;fill-opacity:1;fill-rule:nonzero;stroke:#000000;stroke-width:85.03900146;stroke-linecap:butt;stroke-linejoin:miter;stroke-miterlimit:4;stroke-dasharray:none;stroke-opacity:1"
       id="path3509" /></g><g
     style="fill:none;stroke:#000000;stroke-opacity:1"
     id="g3511"
     transform="matrix(-0.35277774,0,0,0.35277774,657.40805,1347.2455)"><path
       inkscape:connector-curvature="0"
       d="M 0,0 -245.488,141.732"
       style="fill:none;fill-opacity:1;fill-rule:nonzero;stroke:#000000;stroke-width:85.03900146;stroke-linecap:butt;stroke-linejoin:miter;stroke-miterlimit:4;stroke-dasharray:none;stroke-opacity:1"
       id="path3513" /></g><g
     style="fill:none;stroke:#000000;stroke-opacity:1"
     id="g3515"
     transform="matrix(-0.35277774,0,0,0.35277774,751.41985,1509.9928)"><path
       inkscape:connector-curvature="0"
       d="M 0,0 0,-283.465"
       style="fill:none;fill-opacity:1;fill-rule:nonzero;stroke:#000000;stroke-width:85.03900146;stroke-linecap:butt;stroke-linejoin:miter;stroke-miterlimit:4;stroke-dasharray:none;stroke-opacity:1"
       id="path3517" /></g><g
     style="fill:none;stroke:#000000;stroke-opacity:1"
     id="g3519"
     transform="matrix(-0.35277774,0,0,0.35277774,1164.0114,192.7874)"><path
       inkscape:connector-curvature="0"
       d="M 0,0 245.488,141.732"
       style="fill:none;fill-opacity:1;fill-rule:nonzero;stroke:#000000;stroke-width:85.03900146;stroke-linecap:butt;stroke-linejoin:miter;stroke-miterlimit:4;stroke-dasharray:none;stroke-opacity:1"
       id="path3521" /></g><g
     style="fill:none;stroke:#000000;stroke-opacity:1"
     id="g3523"
     transform="matrix(-0.35277774,0,0,0.35277774,1062.5919,242.7874)"><path
       inkscape:connector-curvature="0"
       d="M 0,0 245.488,-141.732"
       style="fill:none;fill-opacity:1;fill-rule:nonzero;stroke:#000000;stroke-width:85.03900146;stroke-linecap:butt;stroke-linejoin:miter;stroke-miterlimit:4;stroke-dasharray:none;stroke-opacity:1"
       id="path3525" /></g><g
     style="fill:none;stroke:#000000;stroke-opacity:1"
     id="g3527"
     transform="matrix(-0.35277774,0,0,0.35277774,968.58005,80.039801)"><path
       inkscape:connector-curvature="0"
       d="M 0,0 0,283.465"
       style="fill:none;fill-opacity:1;fill-rule:nonzero;stroke:#000000;stroke-width:85.03900146;stroke-linecap:butt;stroke-linejoin:miter;stroke-miterlimit:4;stroke-dasharray:none;stroke-opacity:1"
       id="path3529" /></g><g
     style="fill:none;stroke:#000000;stroke-opacity:1"
     id="g3531"
     transform="matrix(-0.35277774,0,0,0.35277774,975.98835,67.245401)"><path
       inkscape:connector-curvature="0"
       d="M 0,0 -245.489,-141.732"
       style="fill:none;fill-opacity:1;fill-rule:nonzero;stroke:#000000;stroke-width:85.03900146;stroke-linecap:butt;stroke-linejoin:miter;stroke-miterlimit:4;stroke-dasharray:none;stroke-opacity:1"
       id="path3533" /></g><g
     style="fill:none;stroke:#000000;stroke-opacity:1"
     id="g3535"
     transform="matrix(-0.35277774,0,0,0.35277774,1077.4082,17.245301)"><path
       inkscape:connector-curvature="0"
       d="M 0,0 -245.488,141.732"
       style="fill:none;fill-opacity:1;fill-rule:nonzero;stroke:#000000;stroke-width:85.03900146;stroke-linecap:butt;stroke-linejoin:miter;stroke-miterlimit:4;stroke-dasharray:none;stroke-opacity:1"
       id="path3537" /></g><g
     style="fill:none;stroke:#000000;stroke-opacity:1"
     id="g3539"
     transform="matrix(-0.35277774,0,0,0.35277774,1171.4197,179.993)"><path
       inkscape:connector-curvature="0"
       d="M 0,0 0,-283.465"
       style="fill:none;fill-opacity:1;fill-rule:nonzero;stroke:#000000;stroke-width:85.03900146;stroke-linecap:butt;stroke-linejoin:miter;stroke-miterlimit:4;stroke-dasharray:none;stroke-opacity:1"
       id="path3541" /></g><g
     style="fill:none;stroke:#000000;stroke-opacity:1"
     id="g3543"
     transform="matrix(-0.35277774,0,0,0.35277774,2024.0111,192.7874)"><path
       inkscape:connector-curvature="0"
       d="M 0,0 245.488,141.732"
       style="fill:none;fill-opacity:1;fill-rule:nonzero;stroke:#000000;stroke-width:85.03900146;stroke-linecap:butt;stroke-linejoin:miter;stroke-miterlimit:4;stroke-dasharray:none;stroke-opacity:1"
       id="path3545" /></g><g
     style="fill:none;stroke:#000000;stroke-opacity:1"
     id="g3547"
     transform="matrix(-0.35277774,0,0,0.35277774,1922.5917,242.7874)"><path
       inkscape:connector-curvature="0"
       d="M 0,0 245.488,-141.732"
       style="fill:none;fill-opacity:1;fill-rule:nonzero;stroke:#000000;stroke-width:85.03900146;stroke-linecap:butt;stroke-linejoin:miter;stroke-miterlimit:4;stroke-dasharray:none;stroke-opacity:1"
       id="path3549" /></g><g
     style="fill:none;stroke:#000000;stroke-opacity:1"
     id="g3551"
     transform="matrix(-0.35277774,0,0,0.35277774,1828.5806,80.039801)"><path
       inkscape:connector-curvature="0"
       d="M 0,0 0,283.465"
       style="fill:none;fill-opacity:1;fill-rule:nonzero;stroke:#000000;stroke-width:85.03900146;stroke-linecap:butt;stroke-linejoin:miter;stroke-miterlimit:4;stroke-dasharray:none;stroke-opacity:1"
       id="path3553" /></g><g
     style="fill:none;stroke:#000000;stroke-opacity:1"
     id="g3555"
     transform="matrix(-0.35277774,0,0,0.35277774,1835.9889,67.245401)"><path
       inkscape:connector-curvature="0"
       d="M 0,0 -245.488,-141.732"
       style="fill:none;fill-opacity:1;fill-rule:nonzero;stroke:#000000;stroke-width:85.03900146;stroke-linecap:butt;stroke-linejoin:miter;stroke-miterlimit:4;stroke-dasharray:none;stroke-opacity:1"
       id="path3557" /></g><g
     style="fill:none;stroke:#000000;stroke-opacity:1"
     id="g3559"
     transform="matrix(-0.35277774,0,0,0.35277774,1937.4084,17.245301)"><path
       inkscape:connector-curvature="0"
       d="M 0,0 -245.488,141.732"
       style="fill:none;fill-opacity:1;fill-rule:nonzero;stroke:#000000;stroke-width:85.03900146;stroke-linecap:butt;stroke-linejoin:miter;stroke-miterlimit:4;stroke-dasharray:none;stroke-opacity:1"
       id="path3561" /></g><g
     style="fill:none;stroke:#000000;stroke-opacity:1"
     id="g3563"
     transform="matrix(-0.35277774,0,0,0.35277774,2031.4195,179.993)"><path
       inkscape:connector-curvature="0"
       d="M 0,0 0,-283.465"
       style="fill:none;fill-opacity:1;fill-rule:nonzero;stroke:#000000;stroke-width:85.03900146;stroke-linecap:butt;stroke-linejoin:miter;stroke-miterlimit:4;stroke-dasharray:none;stroke-opacity:1"
       id="path3565" /></g><path
     inkscape:connector-curvature="0"
     d="m 79.999952,850.0167 -79.99979993967,0 0,-21.9999 79.99979993967,0 0,21.9999 z"
     style="fill:none;fill-opacity:1;fill-rule:nonzero;stroke:#000000;stroke-width:0.35277775;stroke-opacity:1"
     id="path3567" /><path
     inkscape:connector-curvature="0"
     d="m 79.999952,1322.0164 -79.99979993967,0 0,-21.9996 79.99979993967,0 0,21.9996 z"
     style="fill:none;fill-opacity:1;fill-rule:nonzero;stroke:#000000;stroke-width:0.35277775;stroke-opacity:1"
     id="path3569" /><path
     inkscape:connector-curvature="0"
     d="m 107.99955,1300.0168 -27.999598,0 0,-450.0001 27.999598,0 0,450.0001 z"
     style="fill:none;fill-opacity:1;fill-rule:nonzero;stroke:#000000;stroke-width:0.35277775;stroke-opacity:1"
     id="path3571" /><g
     style="fill:none;stroke:#000000;stroke-opacity:1"
     id="g3573"
     transform="matrix(-0.35277774,0,0,0.35277774,2489.9999,0.01640127)"><path
       inkscape:connector-curvature="0"
       d="m 0,0 -1445.669,0 0,1445.67 C -647.249,1445.67 0,798.422 0,0 Z"
       style="fill:none;stroke:#000000;stroke-width:1;stroke-linecap:butt;stroke-linejoin:miter;stroke-miterlimit:4;stroke-dasharray:none;stroke-opacity:1"
       id="path3575" /></g><g
     style="fill:none;stroke:#000000;stroke-opacity:1"
     id="g3577"
     transform="matrix(-0.35277774,0,0,0.35277774,2470.1544,102.4667)"><path
       inkscape:connector-curvature="0"
       d="M 0,0 27.662,-282.111 -56.973,-290.41 -84.634,-8.297 0,0 Z"
       style="fill:none;fill-opacity:1;fill-rule:nonzero;stroke:#000000;stroke-opacity:1"
       id="path3579" /></g><g
     style="fill:none;stroke:#000000;stroke-opacity:1"
     id="g3581"
     transform="matrix(-0.35277774,0,0,0.35277774,2528.8109,195.4015)"><path
       inkscape:connector-curvature="0"
       d="M 0,0 -133.515,250.053 -58.499,290.107 75.016,40.055 0,0 Z"
       style="fill:none;fill-opacity:1;fill-rule:nonzero;stroke:#000000;stroke-opacity:1"
       id="path3583" /></g><g
     style="fill:none;stroke:#000000;stroke-opacity:1"
     id="g3585"
     transform="matrix(-0.35277774,0,0,0.35277774,2471.1233,108.3653)"><path
       inkscape:connector-curvature="0"
       d="M 0,0 -82.405,271.225 -163.772,246.502 -81.369,-24.719 0,0 Z"
       style="fill:none;fill-opacity:1;fill-rule:nonzero;stroke:#000000;stroke-opacity:1"
       id="path3587" /></g><g
     style="fill:none;stroke:#000000;stroke-opacity:1"
     id="g3589"
     transform="matrix(-0.35277774,0,0,0.35277774,2576.1341,283.5525)"><path
       inkscape:connector-curvature="0"
       d="M 0,0 -179.923,219.043 -114.21,273.02 65.714,53.977 0,0 Z"
       style="fill:none;fill-opacity:1;fill-rule:nonzero;stroke:#000000;stroke-opacity:1"
       id="path3591" /></g><g
     style="fill:none;stroke:#000000;stroke-opacity:1"
     id="g3593"
     transform="matrix(-0.35277774,0,0,0.35277774,2897.5496,530.1394)"><path
       inkscape:connector-curvature="0"
       d="M 0,0 -282.112,27.662 -290.41,-56.973 -8.298,-84.635 0,0 Z"
       style="fill:none;fill-opacity:1;fill-rule:nonzero;stroke:#000000;stroke-opacity:1"
       id="path3595" /></g><g
     style="fill:none;stroke:#000000;stroke-opacity:1"
     id="g3597"
     transform="matrix(-0.35277774,0,0,0.35277774,2804.6147,471.4832)"><path
       inkscape:connector-curvature="0"
       d="M 0,0 250.052,-133.516 290.107,-58.5 40.055,75.016 0,0 Z"
       style="fill:none;fill-opacity:1;fill-rule:nonzero;stroke:#000000;stroke-opacity:1"
       id="path3599" /></g><g
     style="fill:none;stroke:#000000;stroke-opacity:1"
     id="g3601"
     transform="matrix(-0.35277774,0,0,0.35277774,2891.6513,529.1706)"><path
       inkscape:connector-curvature="0"
       d="M 0,0 271.225,-82.404 246.502,-163.771 -24.719,-81.369 0,0 Z"
       style="fill:none;fill-opacity:1;fill-rule:nonzero;stroke:#000000;stroke-opacity:1"
       id="path3603" /></g><g
     style="fill:none;stroke:#000000;stroke-opacity:1"
     id="g3605"
     transform="matrix(-0.35277774,0,0,0.35277774,2716.4641,424.16)"><path
       inkscape:connector-curvature="0"
       d="m 0,0 219.043,-179.924 53.978,65.713 L 53.977,65.713 0,0 Z"
       style="fill:none;fill-opacity:1;fill-rule:nonzero;stroke:#000000;stroke-opacity:1"
       id="path3607" /></g><g
     style="fill:none;stroke:#000000;stroke-opacity:1"
     id="g3609"
     transform="matrix(-0.35277774,0,0,0.35277774,509.99995,0.01640127)"><path
       inkscape:connector-curvature="0"
       d="m 0,0 1445.669,0 0,1445.67 C 647.248,1445.67 0,798.422 0,0 Z"
       style="fill:none;stroke:#000000;stroke-width:1;stroke-linecap:butt;stroke-linejoin:miter;stroke-miterlimit:4;stroke-dasharray:none;stroke-opacity:1"
       id="path3611" /></g><g
     style="fill:none;stroke:#000000;stroke-opacity:1"
     id="g3613"
     transform="matrix(-0.35277774,0,0,0.35277774,529.84545,102.4667)"><path
       inkscape:connector-curvature="0"
       d="M 0,0 -27.661,-282.111 56.973,-290.41 84.634,-8.297 0,0 Z"
       style="fill:none;fill-opacity:1;fill-rule:nonzero;stroke:#000000;stroke-opacity:1"
       id="path3615" /></g><g
     style="fill:none;stroke:#000000;stroke-opacity:1"
     id="g3617"
     transform="matrix(-0.35277774,0,0,0.35277774,471.18895,195.4015)"><path
       inkscape:connector-curvature="0"
       d="M 0,0 133.516,250.053 58.499,290.107 -75.016,40.055 0,0 Z"
       style="fill:none;fill-opacity:1;fill-rule:nonzero;stroke:#000000;stroke-opacity:1"
       id="path3619" /></g><g
     style="fill:none;stroke:#000000;stroke-opacity:1"
     id="g3621"
     transform="matrix(-0.35277774,0,0,0.35277774,528.87635,108.3653)"><path
       inkscape:connector-curvature="0"
       d="M 0,0 82.404,271.225 163.771,246.502 81.368,-24.719 0,0 Z"
       style="fill:none;fill-opacity:1;fill-rule:nonzero;stroke:#000000;stroke-opacity:1"
       id="path3623" /></g><g
     style="fill:none;stroke:#000000;stroke-opacity:1"
     id="g3625"
     transform="matrix(-0.35277774,0,0,0.35277774,423.86575,283.5525)"><path
       inkscape:connector-curvature="0"
       d="M 0,0 179.923,219.043 114.21,273.02 -65.714,53.977 0,0 Z"
       style="fill:none;fill-opacity:1;fill-rule:nonzero;stroke:#000000;stroke-opacity:1"
       id="path3627" /></g><g
     style="fill:none;stroke:#000000;stroke-opacity:1"
     id="g3629"
     transform="matrix(-0.35277774,0,0,0.35277774,102.45025,530.1394)"><path
       inkscape:connector-curvature="0"
       d="M 0,0 282.111,27.662 290.41,-56.973 8.297,-84.635 0,0 Z"
       style="fill:none;fill-opacity:1;fill-rule:nonzero;stroke:#000000;stroke-opacity:1"
       id="path3631" /></g><g
     style="fill:none;stroke:#000000;stroke-opacity:1"
     id="g3633"
     transform="matrix(-0.35277774,0,0,0.35277774,195.38495,471.4832)"><path
       inkscape:connector-curvature="0"
       d="M 0,0 -250.053,-133.516 -290.107,-58.5 -40.055,75.016 0,0 Z"
       style="fill:none;fill-opacity:1;fill-rule:nonzero;stroke:#000000;stroke-opacity:1"
       id="path3635" /></g><g
     style="fill:none;stroke:#000000;stroke-opacity:1"
     id="g3637"
     transform="matrix(-0.35277774,0,0,0.35277774,108.34895,529.1706)"><path
       inkscape:connector-curvature="0"
       d="m 0,0 -271.224,-82.404 24.723,-81.367 271.22,82.402 L 0,0 Z"
       style="fill:none;fill-opacity:1;fill-rule:nonzero;stroke:#000000;stroke-opacity:1"
       id="path3639" /></g><g
     style="fill:none;stroke:#000000;stroke-opacity:1"
     id="g3641"
     transform="matrix(-0.35277774,0,0,0.35277774,283.53595,424.16)"><path
       inkscape:connector-curvature="0"
       d="M 0,0 -219.043,-179.924 -273.02,-114.211 -53.977,65.713 0,0 Z"
       style="fill:none;fill-opacity:1;fill-rule:nonzero;stroke:#000000;stroke-opacity:1"
       id="path3643" /></g><g
     style="fill:none;stroke:#000000;stroke-opacity:1"
     id="g3645"
     transform="matrix(-0.35277774,0,0,0.35277774,2980.0962,684.6381)"><path
       inkscape:connector-curvature="0"
       d="m 0,0 c -33.741,-19.644 -56.42,-56.202 -56.42,-98.058 0,-41.972 22.805,-78.619 56.701,-98.222 l -0.001,6.61 c -30.63,18.993 -51.03,52.921 -51.03,91.612 0,38.576 20.277,72.415 50.756,91.442 L 0,0 Z"
       style="fill:none;fill-opacity:1;fill-rule:nonzero;stroke:#000000;stroke-opacity:1"
       id="path3647" /></g><g
     style="fill:none;stroke:#000000;stroke-opacity:1"
     id="g3649"
     transform="matrix(-0.35277774,0,0,0.35277774,2980.0962,684.6381)"><path
       inkscape:connector-curvature="0"
       d="m 0,0 c -33.741,-19.644 -56.42,-56.202 -56.42,-98.058 0,-41.972 22.805,-78.619 56.701,-98.222 l -0.001,6.61 c -30.63,18.993 -51.03,52.921 -51.03,91.612 0,38.576 20.277,72.415 50.756,91.442 L 0,0 Z"
       style="fill:none;stroke:#000000;stroke-width:0.99199998;stroke-linecap:butt;stroke-linejoin:miter;stroke-miterlimit:4;stroke-dasharray:none;stroke-opacity:1"
       id="path3651" /></g><g
     style="fill:none;stroke:#000000;stroke-opacity:1"
     id="g3653"
     transform="matrix(-0.35277774,0,0,0.35277774,1815.3783,1980.1127)"><path
       inkscape:connector-curvature="0"
       d="m 0,0 c -19.644,33.741 -56.202,56.42 -98.058,56.42 -41.972,0 -78.619,-22.805 -98.222,-56.701 l 6.61,0.001 c 18.993,30.63 52.921,51.03 91.612,51.03 38.576,0 72.415,-20.277 91.442,-50.756 L 0,0 Z"
       style="fill:none;fill-opacity:1;fill-rule:nonzero;stroke:#000000;stroke-opacity:1"
       id="path3655" /></g><g
     style="fill:none;stroke:#000000;stroke-opacity:1"
     id="g3657"
     transform="matrix(-0.35277774,0,0,0.35277774,1815.3783,1980.1127)"><path
       inkscape:connector-curvature="0"
       d="m 0,0 c -19.644,33.741 -56.202,56.42 -98.058,56.42 -41.972,0 -78.619,-22.805 -98.222,-56.701 l 6.61,0.001 c 18.993,30.63 52.921,51.03 91.612,51.03 38.576,0 72.415,-20.277 91.442,-50.756 L 0,0 Z"
       style="fill:none;stroke:#000000;stroke-width:0.99199998;stroke-linecap:butt;stroke-linejoin:miter;stroke-miterlimit:4;stroke-dasharray:none;stroke-opacity:1"
       id="path3659" /></g><g
     style="fill:none;stroke:#000000;stroke-opacity:1"
     id="g3661"
     transform="matrix(-0.35277774,0,0,0.35277774,1115.3783,1980.1127)"><path
       inkscape:connector-curvature="0"
       d="m 0,0 c -19.644,33.741 -56.202,56.42 -98.058,56.42 -41.972,0 -78.619,-22.805 -98.222,-56.701 l 6.61,0.001 c 18.993,30.63 52.921,51.03 91.612,51.03 38.577,0 72.415,-20.277 91.442,-50.756 L 0,0 Z"
       style="fill:none;fill-opacity:1;fill-rule:nonzero;stroke:#000000;stroke-opacity:1"
       id="path3663" /></g><g
     style="fill:none;stroke:#000000;stroke-opacity:1"
     id="g3665"
     transform="matrix(-0.35277774,0,0,0.35277774,1115.3783,1980.1127)"><path
       inkscape:connector-curvature="0"
       d="m 0,0 c -19.644,33.741 -56.202,56.42 -98.058,56.42 -41.972,0 -78.619,-22.805 -98.222,-56.701 l 6.61,0.001 c 18.993,30.63 52.921,51.03 91.612,51.03 38.577,0 72.415,-20.277 91.442,-50.756 L 0,0 Z"
       style="fill:none;stroke:#000000;stroke-width:0.99199998;stroke-linecap:butt;stroke-linejoin:miter;stroke-miterlimit:4;stroke-dasharray:none;stroke-opacity:1"
       id="path3667" /></g><g
     style="fill:none;stroke:#000000;stroke-opacity:1"
     id="g3669"
     transform="matrix(-0.35277774,0,0,0.35277774,19.903652,684.6381)"><path
       inkscape:connector-curvature="0"
       d="m 0,0 c 33.74,-19.644 56.42,-56.202 56.42,-98.058 0,-41.972 -22.805,-78.619 -56.701,-98.222 l 0,6.61 c 30.631,18.993 51.031,52.921 51.031,91.612 0,38.576 -20.277,72.415 -50.756,91.442 L 0,0 Z"
       style="fill:none;fill-opacity:1;fill-rule:nonzero;stroke:#000000;stroke-opacity:1"
       id="path3671" /></g><g
     style="fill:none;stroke:#000000;stroke-opacity:1"
     id="g3673"
     transform="matrix(-0.35277774,0,0,0.35277774,19.903652,684.6381)"><path
       inkscape:connector-curvature="0"
       d="m 0,0 c 33.74,-19.644 56.42,-56.202 56.42,-98.058 0,-41.972 -22.805,-78.619 -56.701,-98.222 l 0,6.61 c 30.631,18.993 51.031,52.921 51.031,91.612 0,38.576 -20.277,72.415 -50.756,91.442 L 0,0 Z"
       style="fill:none;stroke:#000000;stroke-width:0.99199998;stroke-linecap:butt;stroke-linejoin:miter;stroke-miterlimit:4;stroke-dasharray:none;stroke-opacity:1"
       id="path3675" /></g><g
     style="fill:none;stroke:#000000;stroke-opacity:1"
     id="g3677"
     transform="matrix(-0.35277774,0,0,0.35277774,1553.8806,797.7299)"><path
       inkscape:connector-curvature="0"
       d="M 0,0 0,-1700.787"
       style="fill:none;fill-opacity:1;fill-rule:nonzero;stroke:#000000;stroke-width:79.37000275;stroke-linecap:butt;stroke-linejoin:miter;stroke-miterlimit:4;stroke-dasharray:none;stroke-opacity:1"
       id="path3679" /></g><g
     style="fill:none;stroke:#000000;stroke-opacity:1"
     id="g3681"
     transform="matrix(-0.35277774,0,0,0.35277774,1446.1195,797.7299)"><path
       inkscape:connector-curvature="0"
       d="M 0,0 0,-1700.787"
       style="fill:none;fill-opacity:1;fill-rule:nonzero;stroke:#000000;stroke-width:79.37000275;stroke-linecap:butt;stroke-linejoin:miter;stroke-miterlimit:4;stroke-dasharray:none;stroke-opacity:1"
       id="path3683" /></g><g
     style="fill:none;stroke:#000000;stroke-opacity:1"
     id="g3685"
     transform="matrix(-0.35277774,0,0,0.35277774,973.75255,602.2738)"><path
       inkscape:connector-curvature="0"
       d="M 0,0 -1202.639,-1202.639"
       style="fill:none;fill-opacity:1;fill-rule:nonzero;stroke:#000000;stroke-width:79.37000275;stroke-linecap:butt;stroke-linejoin:miter;stroke-miterlimit:4;stroke-dasharray:none;stroke-opacity:1"
       id="path3687" /></g><g
     style="fill:none;stroke:#000000;stroke-opacity:1"
     id="g3689"
     transform="matrix(-0.35277774,0,0,0.35277774,897.55395,526.0752)"><path
       inkscape:connector-curvature="0"
       d="M 0,0 -1202.639,-1202.638"
       style="fill:none;fill-opacity:1;fill-rule:nonzero;stroke:#000000;stroke-width:79.37000275;stroke-linecap:butt;stroke-linejoin:miter;stroke-miterlimit:4;stroke-dasharray:none;stroke-opacity:1"
       id="path3691" /></g><g
     style="fill:none;stroke:#000000;stroke-opacity:1"
     id="g3693"
     transform="matrix(-0.35277774,0,0,0.35277774,2026.2966,602.2738)"><path
       inkscape:connector-curvature="0"
       d="M 0,0 1202.639,-1202.639"
       style="fill:none;fill-opacity:1;fill-rule:nonzero;stroke:#000000;stroke-width:79.37000275;stroke-linecap:butt;stroke-linejoin:miter;stroke-miterlimit:4;stroke-dasharray:none;stroke-opacity:1"
       id="path3695" /></g><g
     style="fill:none;stroke:#000000;stroke-opacity:1"
     id="g3697"
     transform="matrix(-0.35277774,0,0,0.35277774,2102.4949,526.0752)"><path
       inkscape:connector-curvature="0"
       d="M 0,0 1202.638,-1202.638"
       style="fill:none;fill-opacity:1;fill-rule:nonzero;stroke:#000000;stroke-width:79.37000275;stroke-linecap:butt;stroke-linejoin:miter;stroke-miterlimit:4;stroke-dasharray:none;stroke-opacity:1"
       id="path3699" /></g><g
     style="fill:#007cb0;fill-opacity:1"
     id="g3709"
     transform="matrix(-0.35277774,0,0,0.35277774,2768.4998,1400.0166)"><path
       inkscape:connector-curvature="0"
       d="m 0,0 c 0,-49.314 -39.978,-89.292 -89.291,-89.292 -49.314,0 -89.292,39.978 -89.292,89.292 0,49.314 39.978,89.291 89.292,89.291 C -39.978,89.291 0,49.314 0,0 Z"
       style="fill:#007cb0;fill-opacity:1;stroke:#231f20;stroke-width:0.99199998;stroke-linecap:butt;stroke-linejoin:miter;stroke-miterlimit:4;stroke-dasharray:none;stroke-opacity:1"
       id="path3711" /></g><path
     inkscape:connector-curvature="0"
     d="m 2799.4997,1399.5164 0.9998,0 0,1.0001 -0.9998,0 0,-1.0001 z"
     style="fill:#007cb0;fill-opacity:1;fill-rule:nonzero;stroke:#231f20;stroke-width:0.3499555;stroke-linecap:butt;stroke-linejoin:miter;stroke-miterlimit:4;stroke-dasharray:none;stroke-opacity:1"
     id="path3713" /><g
     style="fill:none"
     id="g3715"
     transform="matrix(-0.35277774,0,0,0.35277774,1968.4997,1400.0166)"><path
       inkscape:connector-curvature="0"
       d="m 0,0 c 0,-49.314 -39.979,-89.292 -89.291,-89.292 -49.314,0 -89.293,39.978 -89.293,89.292 0,49.314 39.979,89.291 89.293,89.291 C -39.979,89.291 0,49.314 0,0 Z"
       style="fill:none;stroke:#231f20;stroke-width:0.99199998;stroke-linecap:butt;stroke-linejoin:miter;stroke-miterlimit:4;stroke-dasharray:none;stroke-opacity:1"
       id="path3717" /></g><path
     inkscape:connector-curvature="0"
     d="m 1999.5,1399.5164 0.9997,0 0,1.0001 -0.9997,0 0,-1.0001 z"
     style="fill:none;fill-opacity:1;fill-rule:nonzero;stroke:#231f20;stroke-width:0.3499555;stroke-linecap:butt;stroke-linejoin:miter;stroke-miterlimit:4;stroke-dasharray:none;stroke-opacity:1"
     id="path3719" /><g
     style="fill:none"
     id="g3721"
     transform="matrix(-0.35277774,0,0,0.35277774,968.49975,1400.0166)"><path
       inkscape:connector-curvature="0"
       d="m 0,0 c 0,-49.314 -39.978,-89.292 -89.291,-89.292 -49.314,0 -89.293,39.978 -89.293,89.292 0,49.314 39.979,89.291 89.293,89.291 C -39.978,89.291 0,49.314 0,0 Z"
       style="fill:none;stroke:#231f20;stroke-width:0.99199998;stroke-linecap:butt;stroke-linejoin:miter;stroke-miterlimit:4;stroke-dasharray:none;stroke-opacity:1"
       id="path3723" /></g><path
     inkscape:connector-curvature="0"
     d="m 999.50025,1399.5164 0.99985,0 0,1.0001 -0.99985,0 0,-1.0001 z"
     style="fill:none;fill-opacity:1;fill-rule:nonzero;stroke:#231f20;stroke-width:0.3499555;stroke-linecap:butt;stroke-linejoin:miter;stroke-miterlimit:4;stroke-dasharray:none;stroke-opacity:1"
     id="path3725" /><g
     style="fill:#f7b500;fill-opacity:1"
     id="g3727"
     transform="matrix(-0.35277774,0,0,0.35277774,168.49975,1400.0166)"><path
       inkscape:connector-curvature="0"
       d="m 0,0 c 0,-49.314 -39.979,-89.292 -89.291,-89.292 -49.314,0 -89.293,39.978 -89.293,89.292 0,49.314 39.979,89.291 89.293,89.291 C -39.979,89.291 0,49.314 0,0 Z"
       style="fill:#f7b500;fill-opacity:1;stroke:#231f20;stroke-width:0.99199998;stroke-linecap:butt;stroke-linejoin:miter;stroke-miterlimit:4;stroke-dasharray:none;stroke-opacity:1"
       id="path3729" /></g><path
     inkscape:connector-curvature="0"
     d="m 199.50025,1399.5164 0.9997,0 0,1.0001 -0.9997,0 0,-1.0001 z"
     style="fill:#f7b500;fill-opacity:1;fill-rule:nonzero;stroke:#231f20;stroke-width:0.3499555;stroke-linecap:butt;stroke-linejoin:miter;stroke-miterlimit:4;stroke-dasharray:none;stroke-opacity:1"
     id="path3731" /><g
     style="fill:#007cb0;fill-opacity:1"
     id="g3733"
     transform="matrix(-0.35277774,0,0,0.35277774,2018.4997,1800.0166)"><path
       inkscape:connector-curvature="0"
       d="m 0,0 c 0,-49.314 -39.979,-89.292 -89.291,-89.292 -49.314,0 -89.293,39.978 -89.293,89.292 0,49.314 39.979,89.291 89.293,89.291 C -39.979,89.291 0,49.314 0,0 Z"
       style="fill:#007cb0;fill-opacity:1;stroke:#231f20;stroke-width:0.99199998;stroke-linecap:butt;stroke-linejoin:miter;stroke-miterlimit:4;stroke-dasharray:none;stroke-opacity:1"
       id="path3735" /></g><path
     inkscape:connector-curvature="0"
     d="m 2049.4999,1799.5163 0.9997,0 0,1.0001 -0.9997,0 0,-1.0001 z"
     style="fill:#007cb0;fill-opacity:1;fill-rule:nonzero;stroke:#231f20;stroke-width:0.3499555;stroke-linecap:butt;stroke-linejoin:miter;stroke-miterlimit:4;stroke-dasharray:none;stroke-opacity:1"
     id="path3737" /><g
     style="fill:#f7b500;fill-opacity:1"
     id="g3739"
     transform="matrix(-0.35277774,0,0,0.35277774,918.49975,1800.0166)"><path
       inkscape:connector-curvature="0"
       d="m 0,0 c 0,-49.314 -39.979,-89.292 -89.291,-89.292 -49.314,0 -89.293,39.978 -89.293,89.292 0,49.314 39.979,89.291 89.293,89.291 C -39.979,89.291 0,49.314 0,0 Z"
       style="fill:#f7b500;fill-opacity:1;stroke:#231f20;stroke-width:0.99199998;stroke-linecap:butt;stroke-linejoin:miter;stroke-miterlimit:4;stroke-dasharray:none;stroke-opacity:1"
       id="path3741" /></g><path
     inkscape:connector-curvature="0"
     d="m 949.50005,1799.5163 0.9998,0 0,1.0001 -0.9998,0 0,-1.0001 z"
     style="fill:#f7b500;fill-opacity:1;fill-rule:nonzero;stroke:#231f20;stroke-width:0.3499555;stroke-linecap:butt;stroke-linejoin:miter;stroke-miterlimit:4;stroke-dasharray:none;stroke-opacity:1"
     id="path3743" /><g
     style="fill:none"
     id="g3745"
     transform="matrix(-0.35277774,0,0,0.35277774,2468.4997,900.0165)"><path
       inkscape:connector-curvature="0"
       d="m 0,0 c 0,-49.314 -39.979,-89.291 -89.291,-89.291 -49.314,0 -89.293,39.977 -89.293,89.291 0,49.314 39.979,89.291 89.293,89.291 C -39.979,89.291 0,49.314 0,0 Z"
       style="fill:none;stroke:#231f20;stroke-width:0.99199998;stroke-linecap:butt;stroke-linejoin:miter;stroke-miterlimit:4;stroke-dasharray:none;stroke-opacity:1"
       id="path3747" /></g><path
     inkscape:connector-curvature="0"
     d="m 2499.5,899.5164 0.9997,0 0,1.0005 -0.9997,0 0,-1.0005 z"
     style="fill:none;fill-opacity:1;fill-rule:nonzero;stroke:#231f20;stroke-width:0.3499555;stroke-linecap:butt;stroke-linejoin:miter;stroke-miterlimit:4;stroke-dasharray:none;stroke-opacity:1"
     id="path3749" /><g
     style="fill:none"
     id="g3751"
     transform="matrix(-0.35277774,0,0,0.35277774,2931.3906,650.0166)"><path
       inkscape:connector-curvature="0"
       d="m 0,0 c 0,-49.314 -39.979,-89.292 -89.291,-89.292 -49.314,0 -89.293,39.978 -89.293,89.292 0,49.313 39.979,89.291 89.293,89.291 C -39.979,89.291 0,49.313 0,0 Z"
       style="fill:none;stroke:#231f20;stroke-width:0.99199998;stroke-linecap:butt;stroke-linejoin:miter;stroke-miterlimit:4;stroke-dasharray:none;stroke-opacity:1"
       id="path3753" /></g><path
     inkscape:connector-curvature="0"
     d="m 2962.3909,649.5166 0.9998,0 0,1.0001 -0.9998,0 0,-1.0001 z"
     style="fill:none;fill-opacity:1;fill-rule:nonzero;stroke:#231f20;stroke-width:0.3499555;stroke-linecap:butt;stroke-linejoin:miter;stroke-miterlimit:4;stroke-dasharray:none;stroke-opacity:1"
     id="path3755" /><g
     style="fill:#007cb0;fill-opacity:1"
     id="g3757"
     transform="matrix(-0.35277774,0,0,0.35277774,2168.4998,150.0165)"><path
       inkscape:connector-curvature="0"
       d="m 0,0 c 0,-49.314 -39.979,-89.291 -89.291,-89.291 -49.314,0 -89.293,39.977 -89.293,89.291 0,49.314 39.979,89.291 89.293,89.291 C -39.979,89.291 0,49.314 0,0 Z"
       style="fill:#007cb0;fill-opacity:1;stroke:#231f20;stroke-width:0.99199998;stroke-linecap:butt;stroke-linejoin:miter;stroke-miterlimit:4;stroke-dasharray:none;stroke-opacity:1"
       id="path3759" /></g><path
     inkscape:connector-curvature="0"
     d="m 2199.5002,149.5162 0.9998,0 0,1.0005 -0.9998,0 0,-1.0005 z"
     style="fill:#007cb0;fill-opacity:1;fill-rule:nonzero;stroke:#231f20;stroke-width:0.3499555;stroke-linecap:butt;stroke-linejoin:miter;stroke-miterlimit:4;stroke-dasharray:none;stroke-opacity:1"
     id="path3761" /><g
     style="fill:none"
     id="g3763"
     transform="matrix(-0.35277774,0,0,0.35277774,2068.4997,600.0166)"><path
       inkscape:connector-curvature="0"
       d="m 0,0 c 0,-49.314 -39.979,-89.292 -89.291,-89.292 -49.314,0 -89.293,39.978 -89.293,89.292 0,49.313 39.979,89.291 89.293,89.291 C -39.979,89.291 0,49.313 0,0 Z"
       style="fill:none;stroke:#231f20;stroke-width:0.99199998;stroke-linecap:butt;stroke-linejoin:miter;stroke-miterlimit:4;stroke-dasharray:none;stroke-opacity:1"
       id="path3765" /></g><path
     inkscape:connector-curvature="0"
     d="m 2099.5001,599.5163 0.9998,0 0,1.0001 -0.9998,0 0,-1.0001 z"
     style="fill:none;fill-opacity:1;fill-rule:nonzero;stroke:#231f20;stroke-width:0.3499555;stroke-linecap:butt;stroke-linejoin:miter;stroke-miterlimit:4;stroke-dasharray:none;stroke-opacity:1"
     id="path3767" /><g
     style="fill:none"
     id="g3769"
     transform="matrix(-0.35277774,0,0,0.35277774,868.50005,600.0166)"><path
       inkscape:connector-curvature="0"
       d="m 0,0 c 0,-49.314 -39.979,-89.292 -89.291,-89.292 -49.314,0 -89.293,39.978 -89.293,89.292 0,49.313 39.979,89.291 89.293,89.291 C -39.979,89.291 0,49.313 0,0 Z"
       style="fill:none;stroke:#231f20;stroke-width:0.99199998;stroke-linecap:butt;stroke-linejoin:miter;stroke-miterlimit:4;stroke-dasharray:none;stroke-opacity:1"
       id="path3771" /></g><path
     inkscape:connector-curvature="0"
     d="m 899.50055,599.5163 0.9997,0 0,1.0001 -0.9997,0 0,-1.0001 z"
     style="fill:none;fill-opacity:1;fill-rule:nonzero;stroke:#231f20;stroke-width:0.3499555;stroke-linecap:butt;stroke-linejoin:miter;stroke-miterlimit:4;stroke-dasharray:none;stroke-opacity:1"
     id="path3773" /><g
     style="fill:none"
     id="g3775"
     transform="matrix(-0.35277774,0,0,0.35277774,468.49975,900.0165)"><path
       inkscape:connector-curvature="0"
       d="m 0,0 c 0,-49.314 -39.979,-89.291 -89.291,-89.291 -49.314,0 -89.293,39.977 -89.293,89.291 0,49.314 39.979,89.291 89.293,89.291 C -39.979,89.291 0,49.314 0,0 Z"
       style="fill:none;stroke:#231f20;stroke-width:0.99199998;stroke-linecap:butt;stroke-linejoin:miter;stroke-miterlimit:4;stroke-dasharray:none;stroke-opacity:1"
       id="path3777" /></g><path
     inkscape:connector-curvature="0"
     d="m 499.49995,899.5164 0.9998,0 0,1.0005 -0.9998,0 0,-1.0005 z"
     style="fill:none;fill-opacity:1;fill-rule:nonzero;stroke:#231f20;stroke-width:0.3499555;stroke-linecap:butt;stroke-linejoin:miter;stroke-miterlimit:4;stroke-dasharray:none;stroke-opacity:1"
     id="path3779" /><g
     style="fill:none"
     id="g3781"
     transform="matrix(-0.35277774,0,0,0.35277774,8.4997521,650.0166)"><path
       inkscape:connector-curvature="0"
       d="m 0,0 c 0,-49.314 -39.979,-89.292 -89.291,-89.292 -49.314,0 -89.293,39.978 -89.293,89.292 0,49.313 39.979,89.291 89.293,89.291 C -39.979,89.291 0,49.313 0,0 Z"
       style="fill:none;stroke:#231f20;stroke-width:0.99199998;stroke-linecap:butt;stroke-linejoin:miter;stroke-miterlimit:4;stroke-dasharray:none;stroke-opacity:1"
       id="path3783" /></g><path
     inkscape:connector-curvature="0"
     d="m 39.499952,649.5166 0.9998,0 0,1.0001 -0.9998,0 0,-1.0001 z"
     style="fill:none;fill-opacity:1;fill-rule:nonzero;stroke:#231f20;stroke-width:0.3499555;stroke-linecap:butt;stroke-linejoin:miter;stroke-miterlimit:4;stroke-dasharray:none;stroke-opacity:1"
     id="path3785" /><g
     style="fill:#f7b500;fill-opacity:1"
     id="g3787"
     transform="matrix(-0.35277774,0,0,0.35277774,768.49995,150.0165)"><path
       inkscape:connector-curvature="0"
       d="m 0,0 c 0,-49.314 -39.979,-89.291 -89.291,-89.291 -49.314,0 -89.293,39.977 -89.293,89.291 0,49.314 39.979,89.291 89.293,89.291 C -39.979,89.291 0,49.314 0,0 Z"
       style="fill:#f7b500;fill-opacity:1;stroke:#231f20;stroke-width:0.99199998;stroke-linecap:butt;stroke-linejoin:miter;stroke-miterlimit:4;stroke-dasharray:none;stroke-opacity:1"
       id="path3789" /></g><path
     inkscape:connector-curvature="0"
     d="m 799.50035,149.5162 0.9998,0 0,1.0005 -0.9998,0 0,-1.0005 z"
     style="fill:#f7b500;fill-opacity:1;fill-rule:nonzero;stroke:#231f20;stroke-width:0.3499555;stroke-linecap:butt;stroke-linejoin:miter;stroke-miterlimit:4;stroke-dasharray:none;stroke-opacity:1"
     id="path3791" /><g
     style="fill:none"
     id="g3793"
     transform="matrix(-0.35277774,0,0,0.35277774,1818.4999,1961.2946)"><path
       inkscape:connector-curvature="0"
       d="m 0,0 c 0,-49.314 -39.979,-89.292 -89.291,-89.292 -49.314,0 -89.293,39.978 -89.293,89.292 0,49.314 39.979,89.291 89.293,89.291 C -39.979,89.291 0,49.314 0,0 Z"
       style="fill:none;stroke:#231f20;stroke-width:0.99199998;stroke-linecap:butt;stroke-linejoin:miter;stroke-miterlimit:4;stroke-dasharray:none;stroke-opacity:1"
       id="path3795" /></g><path
     inkscape:connector-curvature="0"
     d="m 1849.5003,1960.7942 0.9998,0 0,1.0002 -0.9998,0 0,-1.0002 z"
     style="fill:none;fill-opacity:1;fill-rule:nonzero;stroke:#231f20;stroke-width:0.3499555;stroke-linecap:butt;stroke-linejoin:miter;stroke-miterlimit:4;stroke-dasharray:none;stroke-opacity:1"
     id="path3797" /><g
     style="fill:none"
     id="g3799"
     transform="matrix(-0.35277774,0,0,0.35277774,1118.4996,1960.7945)"><path
       inkscape:connector-curvature="0"
       d="m 0,0 c 0,-49.314 -39.979,-89.292 -89.291,-89.292 -49.314,0 -89.293,39.978 -89.293,89.292 0,49.314 39.979,89.291 89.293,89.291 C -39.979,89.291 0,49.314 0,0 Z"
       style="fill:none;stroke:#231f20;stroke-width:0.99199998;stroke-linecap:butt;stroke-linejoin:miter;stroke-miterlimit:4;stroke-dasharray:none;stroke-opacity:1"
       id="path3801" /></g><path
     inkscape:connector-curvature="0"
     d="m 1149.5,1960.2944 0.9998,0 0,1.0001 -0.9998,0 0,-1.0001 z"
     style="fill:none;fill-opacity:1;fill-rule:nonzero;stroke:#231f20;stroke-width:0.3499555;stroke-linecap:butt;stroke-linejoin:miter;stroke-miterlimit:4;stroke-dasharray:none;stroke-opacity:1"
     id="path3803" /><rect
     style="opacity:1;fill:none;fill-opacity:1;stroke:#000000;stroke-width:1;stroke-miterlimit:4;stroke-dasharray:none;stroke-dashoffset:0;stroke-opacity:1"
     id="rect4324"
     width="2996.9668"
     height="1996.9668"
     x="-2998.4832"
     y="-1998.5"
     transform="scale(-1,-1)" /></svg>