<?xml version="1.0" encoding="UTF-8" standalone="no"?>
<svg
   xmlns:dc="http://purl.org/dc/elements/1.1/"
   xmlns:cc="http://creativecommons.org/ns#"
   xmlns:rdf="http://www.w3.org/1999/02/22-rdf-syntax-ns#"
   xmlns:svg="http://www.w3.org/2000/svg"
   xmlns="http://www.w3.org/2000/svg"
   xmlns:xlink="http://www.w3.org/1999/xlink"
   xmlns:sodipodi="http://sodipodi.sourceforge.net/DTD/sodipodi-0.dtd"
   xmlns:inkscape="http://www.inkscape.org/namespaces/inkscape"
   viewBox="0 0 899.99991 599.99994"
   height="599.99994"
   width="899.99988"
   xml:space="preserve"
   version="1.1"
   id="svg3393"
   inkscape:version="0.91 r13725"
   sodipodi:docname="Robot_playing_area_small.svg"><sodipodi:namedview
     pagecolor="#ffffff"
     bordercolor="#666666"
     borderopacity="1"
     objecttolerance="10"
     gridtolerance="10"
     guidetolerance="10"
     inkscape:pageopacity="0"
     inkscape:pageshadow="2"
     inkscape:window-width="1600"
     inkscape:window-height="836"
     id="namedview3786"
     showgrid="false"
     inkscape:zoom="0.70967068"
     inkscape:cx="583.72031"
     inkscape:cy="455.2107"
     inkscape:window-x="0"
     inkscape:window-y="27"
     inkscape:window-maximized="1"
     inkscape:current-layer="svg3393"
     fit-margin-top="0"
     fit-margin-left="0"
     fit-margin-right="0"
     fit-margin-bottom="0" /><metadata
     id="metadata3399"><rdf:RDF><cc:Work
         rdf:about=""><dc:format>image/svg+xml</dc:format><dc:type
           rdf:resource="http://purl.org/dc/dcmitype/StillImage" /><dc:title></dc:title></cc:Work></rdf:RDF></metadata><defs
     id="defs3397"><clipPath
       id="clipPath3407"
       clipPathUnits="userSpaceOnUse"><path
         id="path3409"
         d="m 0,0 8503.937,0 0,5669.291 L 0,5669.291 0,0 Z"
         inkscape:connector-curvature="0" /></clipPath><clipPath
       id="clipPath3433"
       clipPathUnits="userSpaceOnUse"><path
         id="path3435"
         d="m 0,5669.292 8503.938,0 L 8503.938,0 0,0 0,5669.292 Z"
         inkscape:connector-curvature="0" /></clipPath><clipPath
       id="clipPath3449"
       clipPathUnits="userSpaceOnUse"><path
         id="path3451"
         d="m 0,5669.292 8503.938,0 L 8503.938,0 0,0 0,5669.292 Z"
         inkscape:connector-curvature="0" /></clipPath><clipPath
       id="clipPath3705"
       clipPathUnits="userSpaceOnUse"><path
         id="path3707"
         d="m 0,5669.292 8503.938,0 L 8503.938,0 0,0 0,5669.292 Z"
         inkscape:connector-curvature="0" /></clipPath></defs><g
     transform="matrix(0.10583331,0,0,-0.10583331,0,599.99994)"
     id="g3401"><g
       id="g3403"><g
         clip-path="url(#clipPath3407)"
         id="g3405"><g
           id="g3411"><g
             transform="matrix(9592.7759,0,0,6661.6499,-454.42865,-76.812057)"
             id="g3413"><image
               sodipodi:absref="/home/stephenclymans/Perso/workspace/Robots/cogip-gui/svg/../../.././../../Printable_Playing_area_img0.png"
               xlink:href="../../.././../../Printable_Playing_area_img0.png"
               id="image3415"
               transform="matrix(1,0,0,-1,0,1)"
               preserveAspectRatio="none"
               height="1"
               width="1" /></g></g></g></g><path
       id="path3417"
       style="fill:#0070b5;fill-opacity:1;fill-rule:nonzero;stroke:none"
       d="m 0,4648.818 1020.473,0 0,1020.473 -1020.473,0 0,-1020.473 z"
       inkscape:connector-curvature="0" /><path
       id="path3419"
       style="fill:#f2bf00;fill-opacity:1;fill-rule:nonzero;stroke:none"
       d="m 8503.938,4648.819 -1020.472,0 0,1020.473 1020.472,0 0,-1020.473 z"
       inkscape:connector-curvature="0" /><path
       id="path3421"
       style="fill:#0070b5;fill-opacity:1;fill-rule:nonzero;stroke:none"
       d="m 3033.071,4648.819 -1020.473,0 0,1020.473 1020.473,0 0,-1020.473 z"
       inkscape:connector-curvature="0" /><path
       id="path3423"
       style="fill:#f2bf00;fill-opacity:1;fill-rule:nonzero;stroke:none"
       d="m 6491.338,4648.819 -1020.473,0 0,1020.473 1020.473,0 0,-1020.473 z"
       inkscape:connector-curvature="0" /><g
       transform="translate(0,4617.6372)"
       id="g3425"><path
         id="path3427"
         style="fill:#f9a72b;fill-opacity:1;fill-rule:nonzero;stroke:none"
         d="M 0,0 2012.598,0 0,0 Z"
         inkscape:connector-curvature="0" /></g><g
       id="g3429"><g
         clip-path="url(#clipPath3433)"
         id="g3431"><g
           transform="translate(0,4617.6387)"
           id="g3437"><path
             id="path3439"
             style="fill:none;stroke:#dadbd5;stroke-width:62.36199951;stroke-linecap:butt;stroke-linejoin:miter;stroke-miterlimit:4;stroke-dasharray:none;stroke-opacity:1"
             d="M 0,0 2012.599,0"
             inkscape:connector-curvature="0" /></g></g></g><g
       transform="translate(6491.3394,4620.4736)"
       id="g3441"><path
         id="path3443"
         style="fill:#f9a72b;fill-opacity:1;fill-rule:nonzero;stroke:none"
         d="M 0,0 2012.598,0 0,0 Z"
         inkscape:connector-curvature="0" /></g><g
       id="g3445"><g
         clip-path="url(#clipPath3449)"
         id="g3447"><g
           transform="translate(6491.3403,4620.4731)"
           id="g3453"><path
             id="path3455"
             style="fill:none;stroke:#dadbd5;stroke-width:62.36199951;stroke-linecap:butt;stroke-linejoin:miter;stroke-miterlimit:4;stroke-dasharray:none;stroke-opacity:1"
             d="M 0,0 2012.597,0"
             inkscape:connector-curvature="0" /></g><g
           transform="translate(4818.8979,0)"
           id="g3457"><path
             id="path3459"
             style="fill:#dadbd5;fill-opacity:1;fill-rule:nonzero;stroke:none"
             d="M 0,0 C 0,313.107 -253.824,566.93 -566.93,566.93 -880.036,566.93 -1133.859,313.107 -1133.859,0 L 0,0 Z"
             inkscape:connector-curvature="0" /></g><g
           transform="translate(4818.8979,0)"
           id="g3461"><path
             id="path3463"
             style="fill:none;stroke:#dadbd5;stroke-width:1;stroke-linecap:butt;stroke-linejoin:miter;stroke-miterlimit:4;stroke-dasharray:none;stroke-opacity:1"
             d="M 0,0 C 0,313.107 -253.824,566.93 -566.93,566.93 -880.036,566.93 -1133.859,313.107 -1133.859,0 L 0,0 Z"
             inkscape:connector-curvature="0" /></g><g
           transform="translate(1576.0317,4316.5166)"
           id="g3465"><path
             id="path3467"
             style="fill:#f9a72b;fill-opacity:1;fill-rule:nonzero;stroke:#dadbd5;stroke-width:85.03900146;stroke-linecap:butt;stroke-linejoin:miter;stroke-miterlimit:4;stroke-dasharray:none;stroke-opacity:1"
             d="M 0,0 245.488,141.732"
             inkscape:connector-curvature="0" /></g><g
           transform="translate(1863.52,4458.249)"
           id="g3469"><path
             id="path3471"
             style="fill:#f9a72b;fill-opacity:1;fill-rule:nonzero;stroke:#dadbd5;stroke-width:85.03900146;stroke-linecap:butt;stroke-linejoin:miter;stroke-miterlimit:4;stroke-dasharray:none;stroke-opacity:1"
             d="M 0,0 245.488,-141.732"
             inkscape:connector-curvature="0" /></g><g
           transform="translate(2130.0083,3996.918)"
           id="g3473"><path
             id="path3475"
             style="fill:#f9a72b;fill-opacity:1;fill-rule:nonzero;stroke:#dadbd5;stroke-width:85.03900146;stroke-linecap:butt;stroke-linejoin:miter;stroke-miterlimit:4;stroke-dasharray:none;stroke-opacity:1"
             d="M 0,0 0,283.465"
             inkscape:connector-curvature="0" /></g><g
           transform="translate(2109.0083,3960.6499)"
           id="g3477"><path
             id="path3479"
             style="fill:#f9a72b;fill-opacity:1;fill-rule:nonzero;stroke:#dadbd5;stroke-width:85.03900146;stroke-linecap:butt;stroke-linejoin:miter;stroke-miterlimit:4;stroke-dasharray:none;stroke-opacity:1"
             d="M 0,0 -245.488,-141.732"
             inkscape:connector-curvature="0" /></g><g
           transform="translate(1821.52,3818.9175)"
           id="g3481"><path
             id="path3483"
             style="fill:#f9a72b;fill-opacity:1;fill-rule:nonzero;stroke:#dadbd5;stroke-width:85.03900146;stroke-linecap:butt;stroke-linejoin:miter;stroke-miterlimit:4;stroke-dasharray:none;stroke-opacity:1"
             d="M 0,0 -245.488,141.732"
             inkscape:connector-curvature="0" /></g><g
           transform="translate(1555.0308,4280.2485)"
           id="g3485"><path
             id="path3487"
             style="fill:#f9a72b;fill-opacity:1;fill-rule:nonzero;stroke:#dadbd5;stroke-width:85.03900146;stroke-linecap:butt;stroke-linejoin:miter;stroke-miterlimit:4;stroke-dasharray:none;stroke-opacity:1"
             d="M 0,0 0,-283.465"
             inkscape:connector-curvature="0" /></g><path
           id="path3489"
           style="fill:#dadbd5;fill-opacity:1;fill-rule:nonzero;stroke:none"
           d="m 226.771,3685.04 -226.771,0 0,62.362 226.771,0 0,-62.362 z"
           inkscape:connector-curvature="0" /><path
           id="path3491"
           style="fill:#dadbd5;fill-opacity:1;fill-rule:nonzero;stroke:none"
           d="m 226.771,2347.087 -226.771,0 0,62.362 226.771,0 0,-62.362 z"
           inkscape:connector-curvature="0" /><path
           id="path3493"
           style="fill:#dadbd5;fill-opacity:1;fill-rule:nonzero;stroke:none"
           d="m 306.142,2409.449 -79.37,0 0,1275.591 79.37,0 0,-1275.591 z"
           inkscape:connector-curvature="0" /><g
           transform="translate(6394.9282,4316.5166)"
           id="g3495"><path
             id="path3497"
             style="fill:#f9a72b;fill-opacity:1;fill-rule:nonzero;stroke:#dadbd5;stroke-width:85.03900146;stroke-linecap:butt;stroke-linejoin:miter;stroke-miterlimit:4;stroke-dasharray:none;stroke-opacity:1"
             d="M 0,0 245.488,141.732"
             inkscape:connector-curvature="0" /></g><g
           transform="translate(6682.4165,4458.249)"
           id="g3499"><path
             id="path3501"
             style="fill:#f9a72b;fill-opacity:1;fill-rule:nonzero;stroke:#dadbd5;stroke-width:85.03900146;stroke-linecap:butt;stroke-linejoin:miter;stroke-miterlimit:4;stroke-dasharray:none;stroke-opacity:1"
             d="M 0,0 245.488,-141.732"
             inkscape:connector-curvature="0" /></g><g
           transform="translate(6948.9067,3996.918)"
           id="g3503"><path
             id="path3505"
             style="fill:#f9a72b;fill-opacity:1;fill-rule:nonzero;stroke:#dadbd5;stroke-width:85.03900146;stroke-linecap:butt;stroke-linejoin:miter;stroke-miterlimit:4;stroke-dasharray:none;stroke-opacity:1"
             d="M 0,0 0,283.465"
             inkscape:connector-curvature="0" /></g><g
           transform="translate(6927.9067,3960.6499)"
           id="g3507"><path
             id="path3509"
             style="fill:#f9a72b;fill-opacity:1;fill-rule:nonzero;stroke:#dadbd5;stroke-width:85.03900146;stroke-linecap:butt;stroke-linejoin:miter;stroke-miterlimit:4;stroke-dasharray:none;stroke-opacity:1"
             d="M 0,0 -245.488,-141.732"
             inkscape:connector-curvature="0" /></g><g
           transform="translate(6640.4185,3818.9175)"
           id="g3511"><path
             id="path3513"
             style="fill:#f9a72b;fill-opacity:1;fill-rule:nonzero;stroke:#dadbd5;stroke-width:85.03900146;stroke-linecap:butt;stroke-linejoin:miter;stroke-miterlimit:4;stroke-dasharray:none;stroke-opacity:1"
             d="M 0,0 -245.488,141.732"
             inkscape:connector-curvature="0" /></g><g
           transform="translate(6373.9282,4280.2485)"
           id="g3515"><path
             id="path3517"
             style="fill:#f9a72b;fill-opacity:1;fill-rule:nonzero;stroke:#dadbd5;stroke-width:85.03900146;stroke-linecap:butt;stroke-linejoin:miter;stroke-miterlimit:4;stroke-dasharray:none;stroke-opacity:1"
             d="M 0,0 0,-283.465"
             inkscape:connector-curvature="0" /></g><g
           transform="translate(5204.3774,546.4375)"
           id="g3519"><path
             id="path3521"
             style="fill:#f9a72b;fill-opacity:1;fill-rule:nonzero;stroke:#dadbd5;stroke-width:85.03900146;stroke-linecap:butt;stroke-linejoin:miter;stroke-miterlimit:4;stroke-dasharray:none;stroke-opacity:1"
             d="M 0,0 245.488,141.732"
             inkscape:connector-curvature="0" /></g><g
           transform="translate(5491.8657,688.1699)"
           id="g3523"><path
             id="path3525"
             style="fill:#f9a72b;fill-opacity:1;fill-rule:nonzero;stroke:#dadbd5;stroke-width:85.03900146;stroke-linecap:butt;stroke-linejoin:miter;stroke-miterlimit:4;stroke-dasharray:none;stroke-opacity:1"
             d="M 0,0 245.488,-141.732"
             inkscape:connector-curvature="0" /></g><g
           transform="translate(5758.356,226.8379)"
           id="g3527"><path
             id="path3529"
             style="fill:#f9a72b;fill-opacity:1;fill-rule:nonzero;stroke:#dadbd5;stroke-width:85.03900146;stroke-linecap:butt;stroke-linejoin:miter;stroke-miterlimit:4;stroke-dasharray:none;stroke-opacity:1"
             d="M 0,0 0,283.465"
             inkscape:connector-curvature="0" /></g><g
           transform="translate(5737.356,190.5703)"
           id="g3531"><path
             id="path3533"
             style="fill:#f9a72b;fill-opacity:1;fill-rule:nonzero;stroke:#dadbd5;stroke-width:85.03900146;stroke-linecap:butt;stroke-linejoin:miter;stroke-miterlimit:4;stroke-dasharray:none;stroke-opacity:1"
             d="M 0,0 -245.489,-141.732"
             inkscape:connector-curvature="0" /></g><g
           transform="translate(5449.8667,48.8379)"
           id="g3535"><path
             id="path3537"
             style="fill:#f9a72b;fill-opacity:1;fill-rule:nonzero;stroke:#dadbd5;stroke-width:85.03900146;stroke-linecap:butt;stroke-linejoin:miter;stroke-miterlimit:4;stroke-dasharray:none;stroke-opacity:1"
             d="M 0,0 -245.488,141.732"
             inkscape:connector-curvature="0" /></g><g
           transform="translate(5183.3774,510.1699)"
           id="g3539"><path
             id="path3541"
             style="fill:#f9a72b;fill-opacity:1;fill-rule:nonzero;stroke:#dadbd5;stroke-width:85.03900146;stroke-linecap:butt;stroke-linejoin:miter;stroke-miterlimit:4;stroke-dasharray:none;stroke-opacity:1"
             d="M 0,0 0,-283.465"
             inkscape:connector-curvature="0" /></g><g
           transform="translate(2766.5825,546.4375)"
           id="g3543"><path
             id="path3545"
             style="fill:#f9a72b;fill-opacity:1;fill-rule:nonzero;stroke:#dadbd5;stroke-width:85.03900146;stroke-linecap:butt;stroke-linejoin:miter;stroke-miterlimit:4;stroke-dasharray:none;stroke-opacity:1"
             d="M 0,0 245.488,141.732"
             inkscape:connector-curvature="0" /></g><g
           transform="translate(3054.0708,688.1699)"
           id="g3547"><path
             id="path3549"
             style="fill:#f9a72b;fill-opacity:1;fill-rule:nonzero;stroke:#dadbd5;stroke-width:85.03900146;stroke-linecap:butt;stroke-linejoin:miter;stroke-miterlimit:4;stroke-dasharray:none;stroke-opacity:1"
             d="M 0,0 245.488,-141.732"
             inkscape:connector-curvature="0" /></g><g
           transform="translate(3320.5591,226.8379)"
           id="g3551"><path
             id="path3553"
             style="fill:#f9a72b;fill-opacity:1;fill-rule:nonzero;stroke:#dadbd5;stroke-width:85.03900146;stroke-linecap:butt;stroke-linejoin:miter;stroke-miterlimit:4;stroke-dasharray:none;stroke-opacity:1"
             d="M 0,0 0,283.465"
             inkscape:connector-curvature="0" /></g><g
           transform="translate(3299.5591,190.5703)"
           id="g3555"><path
             id="path3557"
             style="fill:#f9a72b;fill-opacity:1;fill-rule:nonzero;stroke:#dadbd5;stroke-width:85.03900146;stroke-linecap:butt;stroke-linejoin:miter;stroke-miterlimit:4;stroke-dasharray:none;stroke-opacity:1"
             d="M 0,0 -245.488,-141.732"
             inkscape:connector-curvature="0" /></g><g
           transform="translate(3012.0708,48.8379)"
           id="g3559"><path
             id="path3561"
             style="fill:#f9a72b;fill-opacity:1;fill-rule:nonzero;stroke:#dadbd5;stroke-width:85.03900146;stroke-linecap:butt;stroke-linejoin:miter;stroke-miterlimit:4;stroke-dasharray:none;stroke-opacity:1"
             d="M 0,0 -245.488,141.732"
             inkscape:connector-curvature="0" /></g><g
           transform="translate(2745.5825,510.1699)"
           id="g3563"><path
             id="path3565"
             style="fill:#f9a72b;fill-opacity:1;fill-rule:nonzero;stroke:#dadbd5;stroke-width:85.03900146;stroke-linecap:butt;stroke-linejoin:miter;stroke-miterlimit:4;stroke-dasharray:none;stroke-opacity:1"
             d="M 0,0 0,-283.465"
             inkscape:connector-curvature="0" /></g><path
           id="path3567"
           style="fill:#dadbd5;fill-opacity:1;fill-rule:nonzero;stroke:none"
           d="m 8277.166,2409.45 226.771,0 0,-62.362 -226.771,0 0,62.362 z"
           inkscape:connector-curvature="0" /><path
           id="path3569"
           style="fill:#dadbd5;fill-opacity:1;fill-rule:nonzero;stroke:none"
           d="m 8277.166,3747.402 226.771,0 0,-62.361 -226.771,0 0,62.361 z"
           inkscape:connector-curvature="0" /><path
           id="path3571"
           style="fill:#dadbd5;fill-opacity:1;fill-rule:nonzero;stroke:none"
           d="m 8197.797,3685.041 79.369,0 0,-1275.591 -79.369,0 0,1275.591 z"
           inkscape:connector-curvature="0" /><g
           transform="translate(1445.6694,0)"
           id="g3573"><path
             id="path3575"
             style="fill:none;stroke:#231f20;stroke-width:1;stroke-linecap:butt;stroke-linejoin:miter;stroke-miterlimit:4;stroke-dasharray:none;stroke-opacity:1"
             d="m 0,0 -1445.669,0 0,1445.67 C -647.249,1445.67 0,798.422 0,0 Z"
             inkscape:connector-curvature="0" /></g><g
           transform="translate(1501.9243,290.4102)"
           id="g3577"><path
             id="path3579"
             style="fill:#dadbd5;fill-opacity:1;fill-rule:nonzero;stroke:none"
             d="M 0,0 27.662,-282.111 -56.973,-290.41 -84.634,-8.297 0,0 Z"
             inkscape:connector-curvature="0" /></g><g
           transform="translate(1335.6538,553.8477)"
           id="g3581"><path
             id="path3583"
             style="fill:#dadbd5;fill-opacity:1;fill-rule:nonzero;stroke:none"
             d="M 0,0 -133.515,250.053 -58.499,290.107 75.016,40.055 0,0 Z"
             inkscape:connector-curvature="0" /></g><g
           transform="translate(1499.1777,307.1309)"
           id="g3585"><path
             id="path3587"
             style="fill:#dadbd5;fill-opacity:1;fill-rule:nonzero;stroke:none"
             d="M 0,0 -82.405,271.225 -163.772,246.502 -81.369,-24.719 0,0 Z"
             inkscape:connector-curvature="0" /></g><g
           transform="translate(1201.5093,803.7246)"
           id="g3589"><path
             id="path3591"
             style="fill:#dadbd5;fill-opacity:1;fill-rule:nonzero;stroke:none"
             d="M 0,0 -179.923,219.043 -114.21,273.02 65.714,53.977 0,0 Z"
             inkscape:connector-curvature="0" /></g><g
           transform="translate(290.4102,1502.7109)"
           id="g3593"><path
             id="path3595"
             style="fill:#dadbd5;fill-opacity:1;fill-rule:nonzero;stroke:none"
             d="M 0,0 -282.112,27.662 -290.41,-56.973 -8.298,-84.635 0,0 Z"
             inkscape:connector-curvature="0" /></g><g
           transform="translate(553.8477,1336.4414)"
           id="g3597"><path
             id="path3599"
             style="fill:#dadbd5;fill-opacity:1;fill-rule:nonzero;stroke:none"
             d="M 0,0 250.052,-133.516 290.107,-58.5 40.055,75.016 0,0 Z"
             inkscape:connector-curvature="0" /></g><g
           transform="translate(307.1299,1499.9648)"
           id="g3601"><path
             id="path3603"
             style="fill:#dadbd5;fill-opacity:1;fill-rule:nonzero;stroke:none"
             d="M 0,0 271.225,-82.404 246.502,-163.771 -24.719,-81.369 0,0 Z"
             inkscape:connector-curvature="0" /></g><g
           transform="translate(803.7236,1202.2969)"
           id="g3605"><path
             id="path3607"
             style="fill:#dadbd5;fill-opacity:1;fill-rule:nonzero;stroke:none"
             d="m 0,0 219.043,-179.924 53.978,65.713 L 53.977,65.713 0,0 Z"
             inkscape:connector-curvature="0" /></g><g
           transform="translate(7058.2681,0)"
           id="g3609"><path
             id="path3611"
             style="fill:none;stroke:#231f20;stroke-width:1;stroke-linecap:butt;stroke-linejoin:miter;stroke-miterlimit:4;stroke-dasharray:none;stroke-opacity:1"
             d="m 0,0 1445.669,0 0,1445.67 C 647.248,1445.67 0,798.422 0,0 Z"
             inkscape:connector-curvature="0" /></g><g
           transform="translate(7002.0132,290.4102)"
           id="g3613"><path
             id="path3615"
             style="fill:#dadbd5;fill-opacity:1;fill-rule:nonzero;stroke:none"
             d="M 0,0 -27.661,-282.111 56.973,-290.41 84.634,-8.297 0,0 Z"
             inkscape:connector-curvature="0" /></g><g
           transform="translate(7168.2837,553.8477)"
           id="g3617"><path
             id="path3619"
             style="fill:#dadbd5;fill-opacity:1;fill-rule:nonzero;stroke:none"
             d="M 0,0 133.516,250.053 58.499,290.107 -75.016,40.055 0,0 Z"
             inkscape:connector-curvature="0" /></g><g
           transform="translate(7004.7603,307.1309)"
           id="g3621"><path
             id="path3623"
             style="fill:#dadbd5;fill-opacity:1;fill-rule:nonzero;stroke:none"
             d="M 0,0 82.404,271.225 163.771,246.502 81.368,-24.719 0,0 Z"
             inkscape:connector-curvature="0" /></g><g
           transform="translate(7302.4282,803.7246)"
           id="g3625"><path
             id="path3627"
             style="fill:#dadbd5;fill-opacity:1;fill-rule:nonzero;stroke:none"
             d="M 0,0 179.923,219.043 114.21,273.02 -65.714,53.977 0,0 Z"
             inkscape:connector-curvature="0" /></g><g
           transform="translate(8213.5273,1502.7109)"
           id="g3629"><path
             id="path3631"
             style="fill:#dadbd5;fill-opacity:1;fill-rule:nonzero;stroke:none"
             d="M 0,0 282.111,27.662 290.41,-56.973 8.297,-84.635 0,0 Z"
             inkscape:connector-curvature="0" /></g><g
           transform="translate(7950.0903,1336.4414)"
           id="g3633"><path
             id="path3635"
             style="fill:#dadbd5;fill-opacity:1;fill-rule:nonzero;stroke:none"
             d="M 0,0 -250.053,-133.516 -290.107,-58.5 -40.055,75.016 0,0 Z"
             inkscape:connector-curvature="0" /></g><g
           transform="translate(8196.8066,1499.9648)"
           id="g3637"><path
             id="path3639"
             style="fill:#dadbd5;fill-opacity:1;fill-rule:nonzero;stroke:none"
             d="m 0,0 -271.224,-82.404 24.723,-81.367 271.22,82.402 L 0,0 Z"
             inkscape:connector-curvature="0" /></g><g
           transform="translate(7700.2134,1202.2969)"
           id="g3641"><path
             id="path3643"
             style="fill:#dadbd5;fill-opacity:1;fill-rule:nonzero;stroke:none"
             d="M 0,0 -219.043,-179.924 -273.02,-114.211 -53.977,65.713 0,0 Z"
             inkscape:connector-curvature="0" /></g><g
           transform="translate(56.4199,1940.6602)"
           id="g3645"><path
             id="path3647"
             style="fill:#dadbd5;fill-opacity:1;fill-rule:nonzero;stroke:none"
             d="m 0,0 c -33.741,-19.644 -56.42,-56.202 -56.42,-98.058 0,-41.972 22.805,-78.619 56.701,-98.222 l -0.001,6.61 c -30.63,18.993 -51.03,52.921 -51.03,91.612 0,38.576 20.277,72.415 50.756,91.442 L 0,0 Z"
             inkscape:connector-curvature="0" /></g><g
           transform="translate(56.4199,1940.6602)"
           id="g3649"><path
             id="path3651"
             style="fill:none;stroke:#dadbd5;stroke-width:0.99199998;stroke-linecap:butt;stroke-linejoin:miter;stroke-miterlimit:4;stroke-dasharray:none;stroke-opacity:1"
             d="m 0,0 c -33.741,-19.644 -56.42,-56.202 -56.42,-98.058 0,-41.972 22.805,-78.619 56.701,-98.222 l -0.001,6.61 c -30.63,18.993 -51.03,52.921 -51.03,91.612 0,38.576 20.277,72.415 50.756,91.442 L 0,0 Z"
             inkscape:connector-curvature="0" /></g><g
           transform="translate(3357.9829,5612.8721)"
           id="g3653"><path
             id="path3655"
             style="fill:#dadbd5;fill-opacity:1;fill-rule:nonzero;stroke:none"
             d="m 0,0 c -19.644,33.741 -56.202,56.42 -98.058,56.42 -41.972,0 -78.619,-22.805 -98.222,-56.701 l 6.61,0.001 c 18.993,30.63 52.921,51.03 91.612,51.03 38.576,0 72.415,-20.277 91.442,-50.756 L 0,0 Z"
             inkscape:connector-curvature="0" /></g><g
           transform="translate(3357.9829,5612.8721)"
           id="g3657"><path
             id="path3659"
             style="fill:none;stroke:#dadbd5;stroke-width:0.99199998;stroke-linecap:butt;stroke-linejoin:miter;stroke-miterlimit:4;stroke-dasharray:none;stroke-opacity:1"
             d="m 0,0 c -19.644,33.741 -56.202,56.42 -98.058,56.42 -41.972,0 -78.619,-22.805 -98.222,-56.701 l 6.61,0.001 c 18.993,30.63 52.921,51.03 91.612,51.03 38.576,0 72.415,-20.277 91.442,-50.756 L 0,0 Z"
             inkscape:connector-curvature="0" /></g><g
           transform="translate(5342.2349,5612.8721)"
           id="g3661"><path
             id="path3663"
             style="fill:#dadbd5;fill-opacity:1;fill-rule:nonzero;stroke:none"
             d="m 0,0 c -19.644,33.741 -56.202,56.42 -98.058,56.42 -41.972,0 -78.619,-22.805 -98.222,-56.701 l 6.61,0.001 c 18.993,30.63 52.921,51.03 91.612,51.03 38.577,0 72.415,-20.277 91.442,-50.756 L 0,0 Z"
             inkscape:connector-curvature="0" /></g><g
           transform="translate(5342.2349,5612.8721)"
           id="g3665"><path
             id="path3667"
             style="fill:none;stroke:#dadbd5;stroke-width:0.99199998;stroke-linecap:butt;stroke-linejoin:miter;stroke-miterlimit:4;stroke-dasharray:none;stroke-opacity:1"
             d="m 0,0 c -19.644,33.741 -56.202,56.42 -98.058,56.42 -41.972,0 -78.619,-22.805 -98.222,-56.701 l 6.61,0.001 c 18.993,30.63 52.921,51.03 91.612,51.03 38.577,0 72.415,-20.277 91.442,-50.756 L 0,0 Z"
             inkscape:connector-curvature="0" /></g><g
           transform="translate(8447.5176,1940.6602)"
           id="g3669"><path
             id="path3671"
             style="fill:#dadbd5;fill-opacity:1;fill-rule:nonzero;stroke:none"
             d="m 0,0 c 33.74,-19.644 56.42,-56.202 56.42,-98.058 0,-41.972 -22.805,-78.619 -56.701,-98.222 l 0,6.61 c 30.631,18.993 51.031,52.921 51.031,91.612 0,38.576 -20.277,72.415 -50.756,91.442 L 0,0 Z"
             inkscape:connector-curvature="0" /></g><g
           transform="translate(8447.5176,1940.6602)"
           id="g3673"><path
             id="path3675"
             style="fill:none;stroke:#dadbd5;stroke-width:0.99199998;stroke-linecap:butt;stroke-linejoin:miter;stroke-miterlimit:4;stroke-dasharray:none;stroke-opacity:1"
             d="m 0,0 c 33.74,-19.644 56.42,-56.202 56.42,-98.058 0,-41.972 -22.805,-78.619 -56.701,-98.222 l 0,6.61 c 30.631,18.993 51.031,52.921 51.031,91.612 0,38.576 -20.277,72.415 -50.756,91.442 L 0,0 Z"
             inkscape:connector-curvature="0" /></g><g
           transform="translate(4099.2363,2261.2354)"
           id="g3677"><path
             id="path3679"
             style="fill:#f9a72b;fill-opacity:1;fill-rule:nonzero;stroke:#dadbd5;stroke-width:79.37000275;stroke-linecap:butt;stroke-linejoin:miter;stroke-miterlimit:4;stroke-dasharray:none;stroke-opacity:1"
             d="M 0,0 0,-1700.787"
             inkscape:connector-curvature="0" /></g><g
           transform="translate(4404.7007,2261.2354)"
           id="g3681"><path
             id="path3683"
             style="fill:#f9a72b;fill-opacity:1;fill-rule:nonzero;stroke:#dadbd5;stroke-width:79.37000275;stroke-linecap:butt;stroke-linejoin:miter;stroke-miterlimit:4;stroke-dasharray:none;stroke-opacity:1"
             d="M 0,0 0,-1700.787"
             inkscape:connector-curvature="0" /></g><g
           transform="translate(5743.6938,1707.1865)"
           id="g3685"><path
             id="path3687"
             style="fill:#f9a72b;fill-opacity:1;fill-rule:nonzero;stroke:#dadbd5;stroke-width:79.37000275;stroke-linecap:butt;stroke-linejoin:miter;stroke-miterlimit:4;stroke-dasharray:none;stroke-opacity:1"
             d="M 0,0 -1202.639,-1202.639"
             inkscape:connector-curvature="0" /></g><g
           transform="translate(5959.6899,1491.1904)"
           id="g3689"><path
             id="path3691"
             style="fill:#f9a72b;fill-opacity:1;fill-rule:nonzero;stroke:#dadbd5;stroke-width:79.37000275;stroke-linecap:butt;stroke-linejoin:miter;stroke-miterlimit:4;stroke-dasharray:none;stroke-opacity:1"
             d="M 0,0 -1202.639,-1202.638"
             inkscape:connector-curvature="0" /></g><g
           transform="translate(2760.104,1707.1865)"
           id="g3693"><path
             id="path3695"
             style="fill:#f9a72b;fill-opacity:1;fill-rule:nonzero;stroke:#dadbd5;stroke-width:79.37000275;stroke-linecap:butt;stroke-linejoin:miter;stroke-miterlimit:4;stroke-dasharray:none;stroke-opacity:1"
             d="M 0,0 1202.639,-1202.639"
             inkscape:connector-curvature="0" /></g><g
           transform="translate(2544.1089,1491.1904)"
           id="g3697"><path
             id="path3699"
             style="fill:#f9a72b;fill-opacity:1;fill-rule:nonzero;stroke:#dadbd5;stroke-width:79.37000275;stroke-linecap:butt;stroke-linejoin:miter;stroke-miterlimit:4;stroke-dasharray:none;stroke-opacity:1"
             d="M 0,0 1202.638,-1202.638"
             inkscape:connector-curvature="0" /></g></g></g><g
       id="g3701"><g
         clip-path="url(#clipPath3705)"
         id="g3703"><g
           transform="translate(656.2207,3968.5049)"
           id="g3709"><path
             id="path3711"
             style="fill:none;stroke:#231f20;stroke-width:0.99199998;stroke-linecap:butt;stroke-linejoin:miter;stroke-miterlimit:4;stroke-dasharray:none;stroke-opacity:1"
             d="m 0,0 c 0,-49.314 -39.978,-89.292 -89.291,-89.292 -49.314,0 -89.292,39.978 -89.292,89.292 0,49.314 39.978,89.291 89.292,89.291 C -39.978,89.291 0,49.314 0,0 Z"
             inkscape:connector-curvature="0" /></g><path
           id="path3713"
           style="fill:#231f20;fill-opacity:1;fill-rule:nonzero;stroke:#231f20;stroke-width:0.99199998;stroke-linecap:butt;stroke-linejoin:miter;stroke-miterlimit:4;stroke-dasharray:none;stroke-opacity:1"
           d="m 568.347,3967.087 -2.834,0 0,2.835 2.834,0 0,-2.835 z"
           inkscape:connector-curvature="0" /><g
           transform="translate(2923.938,3968.5049)"
           id="g3715"><path
             id="path3717"
             style="fill:none;stroke:#231f20;stroke-width:0.99199998;stroke-linecap:butt;stroke-linejoin:miter;stroke-miterlimit:4;stroke-dasharray:none;stroke-opacity:1"
             d="m 0,0 c 0,-49.314 -39.979,-89.292 -89.291,-89.292 -49.314,0 -89.293,39.978 -89.293,89.292 0,49.314 39.979,89.291 89.293,89.291 C -39.979,89.291 0,49.314 0,0 Z"
             inkscape:connector-curvature="0" /></g><path
           id="path3719"
           style="fill:#231f20;fill-opacity:1;fill-rule:nonzero;stroke:#231f20;stroke-width:0.99199998;stroke-linecap:butt;stroke-linejoin:miter;stroke-miterlimit:4;stroke-dasharray:none;stroke-opacity:1"
           d="m 2836.063,3967.087 -2.834,0 0,2.835 2.834,0 0,-2.835 z"
           inkscape:connector-curvature="0" /><g
           transform="translate(5758.5835,3968.5049)"
           id="g3721"><path
             id="path3723"
             style="fill:none;stroke:#231f20;stroke-width:0.99199998;stroke-linecap:butt;stroke-linejoin:miter;stroke-miterlimit:4;stroke-dasharray:none;stroke-opacity:1"
             d="m 0,0 c 0,-49.314 -39.978,-89.292 -89.291,-89.292 -49.314,0 -89.293,39.978 -89.293,89.292 0,49.314 39.979,89.291 89.293,89.291 C -39.978,89.291 0,49.314 0,0 Z"
             inkscape:connector-curvature="0" /></g><path
           id="path3725"
           style="fill:#231f20;fill-opacity:1;fill-rule:nonzero;stroke:#231f20;stroke-width:0.99199998;stroke-linecap:butt;stroke-linejoin:miter;stroke-miterlimit:4;stroke-dasharray:none;stroke-opacity:1"
           d="m 5670.708,3967.087 -2.834,0 0,2.835 2.834,0 0,-2.835 z"
           inkscape:connector-curvature="0" /><g
           transform="translate(8026.3003,3968.5049)"
           id="g3727"><path
             id="path3729"
             style="fill:none;stroke:#231f20;stroke-width:0.99199998;stroke-linecap:butt;stroke-linejoin:miter;stroke-miterlimit:4;stroke-dasharray:none;stroke-opacity:1"
             d="m 0,0 c 0,-49.314 -39.979,-89.292 -89.291,-89.292 -49.314,0 -89.293,39.978 -89.293,89.292 0,49.314 39.979,89.291 89.293,89.291 C -39.979,89.291 0,49.314 0,0 Z"
             inkscape:connector-curvature="0" /></g><path
           id="path3731"
           style="fill:#231f20;fill-opacity:1;fill-rule:nonzero;stroke:#231f20;stroke-width:0.99199998;stroke-linecap:butt;stroke-linejoin:miter;stroke-miterlimit:4;stroke-dasharray:none;stroke-opacity:1"
           d="m 7938.425,3967.087 -2.834,0 0,2.835 2.834,0 0,-2.835 z"
           inkscape:connector-curvature="0" /><g
           transform="translate(2782.2056,5102.3633)"
           id="g3733"><path
             id="path3735"
             style="fill:none;stroke:#231f20;stroke-width:0.99199998;stroke-linecap:butt;stroke-linejoin:miter;stroke-miterlimit:4;stroke-dasharray:none;stroke-opacity:1"
             d="m 0,0 c 0,-49.314 -39.979,-89.292 -89.291,-89.292 -49.314,0 -89.293,39.978 -89.293,89.292 0,49.314 39.979,89.291 89.293,89.291 C -39.979,89.291 0,49.314 0,0 Z"
             inkscape:connector-curvature="0" /></g><path
           id="path3737"
           style="fill:#231f20;fill-opacity:1;fill-rule:nonzero;stroke:#231f20;stroke-width:0.99199998;stroke-linecap:butt;stroke-linejoin:miter;stroke-miterlimit:4;stroke-dasharray:none;stroke-opacity:1"
           d="m 2694.331,5100.945 -2.834,0 0,2.835 2.834,0 0,-2.835 z"
           inkscape:connector-curvature="0" /><g
           transform="translate(5900.3159,5102.3633)"
           id="g3739"><path
             id="path3741"
             style="fill:none;stroke:#231f20;stroke-width:0.99199998;stroke-linecap:butt;stroke-linejoin:miter;stroke-miterlimit:4;stroke-dasharray:none;stroke-opacity:1"
             d="m 0,0 c 0,-49.314 -39.979,-89.292 -89.291,-89.292 -49.314,0 -89.293,39.978 -89.293,89.292 0,49.314 39.979,89.291 89.293,89.291 C -39.979,89.291 0,49.314 0,0 Z"
             inkscape:connector-curvature="0" /></g><path
           id="path3743"
           style="fill:#231f20;fill-opacity:1;fill-rule:nonzero;stroke:#231f20;stroke-width:0.99199998;stroke-linecap:butt;stroke-linejoin:miter;stroke-miterlimit:4;stroke-dasharray:none;stroke-opacity:1"
           d="m 5812.441,5100.945 -2.834,0 0,2.835 2.834,0 0,-2.835 z"
           inkscape:connector-curvature="0" /><g
           transform="translate(1506.6147,2551.1816)"
           id="g3745"><path
             id="path3747"
             style="fill:none;stroke:#231f20;stroke-width:0.99199998;stroke-linecap:butt;stroke-linejoin:miter;stroke-miterlimit:4;stroke-dasharray:none;stroke-opacity:1"
             d="m 0,0 c 0,-49.314 -39.979,-89.291 -89.291,-89.291 -49.314,0 -89.293,39.977 -89.293,89.291 0,49.314 39.979,89.291 89.293,89.291 C -39.979,89.291 0,49.314 0,0 Z"
             inkscape:connector-curvature="0" /></g><path
           id="path3749"
           style="fill:#231f20;fill-opacity:1;fill-rule:nonzero;stroke:#231f20;stroke-width:0.99199998;stroke-linecap:butt;stroke-linejoin:miter;stroke-miterlimit:4;stroke-dasharray:none;stroke-opacity:1"
           d="m 1418.74,2549.764 -2.834,0 0,2.836 2.834,0 0,-2.836 z"
           inkscape:connector-curvature="0" /><g
           transform="translate(194.4829,1842.5205)"
           id="g3751"><path
             id="path3753"
             style="fill:none;stroke:#231f20;stroke-width:0.99199998;stroke-linecap:butt;stroke-linejoin:miter;stroke-miterlimit:4;stroke-dasharray:none;stroke-opacity:1"
             d="m 0,0 c 0,-49.314 -39.979,-89.292 -89.291,-89.292 -49.314,0 -89.293,39.978 -89.293,89.292 0,49.313 39.979,89.291 89.293,89.291 C -39.979,89.291 0,49.313 0,0 Z"
             inkscape:connector-curvature="0" /></g><path
           id="path3755"
           style="fill:#231f20;fill-opacity:1;fill-rule:nonzero;stroke:#231f20;stroke-width:0.99199998;stroke-linecap:butt;stroke-linejoin:miter;stroke-miterlimit:4;stroke-dasharray:none;stroke-opacity:1"
           d="m 106.608,1841.103 -2.834,0 0,2.835 2.834,0 0,-2.835 z"
           inkscape:connector-curvature="0" /><g
           transform="translate(2357.0083,425.1973)"
           id="g3757"><path
             id="path3759"
             style="fill:none;stroke:#231f20;stroke-width:0.99199998;stroke-linecap:butt;stroke-linejoin:miter;stroke-miterlimit:4;stroke-dasharray:none;stroke-opacity:1"
             d="m 0,0 c 0,-49.314 -39.979,-89.291 -89.291,-89.291 -49.314,0 -89.293,39.977 -89.293,89.291 0,49.314 39.979,89.291 89.293,89.291 C -39.979,89.291 0,49.314 0,0 Z"
             inkscape:connector-curvature="0" /></g><path
           id="path3761"
           style="fill:#231f20;fill-opacity:1;fill-rule:nonzero;stroke:#231f20;stroke-width:0.99199998;stroke-linecap:butt;stroke-linejoin:miter;stroke-miterlimit:4;stroke-dasharray:none;stroke-opacity:1"
           d="m 2269.133,423.779 -2.834,0 0,2.836 2.834,0 0,-2.836 z"
           inkscape:connector-curvature="0" /><g
           transform="translate(2640.4731,1700.7881)"
           id="g3763"><path
             id="path3765"
             style="fill:none;stroke:#231f20;stroke-width:0.99199998;stroke-linecap:butt;stroke-linejoin:miter;stroke-miterlimit:4;stroke-dasharray:none;stroke-opacity:1"
             d="m 0,0 c 0,-49.314 -39.979,-89.292 -89.291,-89.292 -49.314,0 -89.293,39.978 -89.293,89.292 0,49.313 39.979,89.291 89.293,89.291 C -39.979,89.291 0,49.313 0,0 Z"
             inkscape:connector-curvature="0" /></g><path
           id="path3767"
           style="fill:#231f20;fill-opacity:1;fill-rule:nonzero;stroke:#231f20;stroke-width:0.99199998;stroke-linecap:butt;stroke-linejoin:miter;stroke-miterlimit:4;stroke-dasharray:none;stroke-opacity:1"
           d="m 2552.598,1699.37 -2.834,0 0,2.835 2.834,0 0,-2.835 z"
           inkscape:connector-curvature="0" /><g
           transform="translate(6042.0474,1700.7881)"
           id="g3769"><path
             id="path3771"
             style="fill:none;stroke:#231f20;stroke-width:0.99199998;stroke-linecap:butt;stroke-linejoin:miter;stroke-miterlimit:4;stroke-dasharray:none;stroke-opacity:1"
             d="m 0,0 c 0,-49.314 -39.979,-89.292 -89.291,-89.292 -49.314,0 -89.293,39.978 -89.293,89.292 0,49.313 39.979,89.291 89.293,89.291 C -39.979,89.291 0,49.313 0,0 Z"
             inkscape:connector-curvature="0" /></g><path
           id="path3773"
           style="fill:#231f20;fill-opacity:1;fill-rule:nonzero;stroke:#231f20;stroke-width:0.99199998;stroke-linecap:butt;stroke-linejoin:miter;stroke-miterlimit:4;stroke-dasharray:none;stroke-opacity:1"
           d="m 5954.172,1699.37 -2.834,0 0,2.835 2.834,0 0,-2.835 z"
           inkscape:connector-curvature="0" /><g
           transform="translate(7175.9067,2551.1816)"
           id="g3775"><path
             id="path3777"
             style="fill:none;stroke:#231f20;stroke-width:0.99199998;stroke-linecap:butt;stroke-linejoin:miter;stroke-miterlimit:4;stroke-dasharray:none;stroke-opacity:1"
             d="m 0,0 c 0,-49.314 -39.979,-89.291 -89.291,-89.291 -49.314,0 -89.293,39.977 -89.293,89.291 0,49.314 39.979,89.291 89.293,89.291 C -39.979,89.291 0,49.314 0,0 Z"
             inkscape:connector-curvature="0" /></g><path
           id="path3779"
           style="fill:#231f20;fill-opacity:1;fill-rule:nonzero;stroke:#231f20;stroke-width:0.99199998;stroke-linecap:butt;stroke-linejoin:miter;stroke-miterlimit:4;stroke-dasharray:none;stroke-opacity:1"
           d="m 7088.032,2549.764 -2.834,0 0,2.836 2.834,0 0,-2.836 z"
           inkscape:connector-curvature="0" /><g
           transform="translate(8479.8438,1842.5205)"
           id="g3781"><path
             id="path3783"
             style="fill:none;stroke:#231f20;stroke-width:0.99199998;stroke-linecap:butt;stroke-linejoin:miter;stroke-miterlimit:4;stroke-dasharray:none;stroke-opacity:1"
             d="m 0,0 c 0,-49.314 -39.979,-89.292 -89.291,-89.292 -49.314,0 -89.293,39.978 -89.293,89.292 0,49.313 39.979,89.291 89.293,89.291 C -39.979,89.291 0,49.313 0,0 Z"
             inkscape:connector-curvature="0" /></g><path
           id="path3785"
           style="fill:#231f20;fill-opacity:1;fill-rule:nonzero;stroke:#231f20;stroke-width:0.99199998;stroke-linecap:butt;stroke-linejoin:miter;stroke-miterlimit:4;stroke-dasharray:none;stroke-opacity:1"
           d="m 8391.969,1841.103 -2.834,0 0,2.835 2.834,0 0,-2.835 z"
           inkscape:connector-curvature="0" /><g
           transform="translate(6325.5122,425.1973)"
           id="g3787"><path
             id="path3789"
             style="fill:none;stroke:#231f20;stroke-width:0.99199998;stroke-linecap:butt;stroke-linejoin:miter;stroke-miterlimit:4;stroke-dasharray:none;stroke-opacity:1"
             d="m 0,0 c 0,-49.314 -39.979,-89.291 -89.291,-89.291 -49.314,0 -89.293,39.977 -89.293,89.291 0,49.314 39.979,89.291 89.293,89.291 C -39.979,89.291 0,49.314 0,0 Z"
             inkscape:connector-curvature="0" /></g><path
           id="path3791"
           style="fill:#231f20;fill-opacity:1;fill-rule:nonzero;stroke:#231f20;stroke-width:0.99199998;stroke-linecap:butt;stroke-linejoin:miter;stroke-miterlimit:4;stroke-dasharray:none;stroke-opacity:1"
           d="m 6237.637,423.779 -2.834,0 0,2.836 2.834,0 0,-2.836 z"
           inkscape:connector-curvature="0" /><g
           transform="translate(3349.1343,5559.5293)"
           id="g3793"><path
             id="path3795"
             style="fill:none;stroke:#231f20;stroke-width:0.99199998;stroke-linecap:butt;stroke-linejoin:miter;stroke-miterlimit:4;stroke-dasharray:none;stroke-opacity:1"
             d="m 0,0 c 0,-49.314 -39.979,-89.292 -89.291,-89.292 -49.314,0 -89.293,39.978 -89.293,89.292 0,49.314 39.979,89.291 89.293,89.291 C -39.979,89.291 0,49.314 0,0 Z"
             inkscape:connector-curvature="0" /></g><path
           id="path3797"
           style="fill:#231f20;fill-opacity:1;fill-rule:nonzero;stroke:#231f20;stroke-width:0.99199998;stroke-linecap:butt;stroke-linejoin:miter;stroke-miterlimit:4;stroke-dasharray:none;stroke-opacity:1"
           d="m 3261.259,5558.111 -2.834,0 0,2.835 2.834,0 0,-2.835 z"
           inkscape:connector-curvature="0" /><g
           transform="translate(5333.3872,5558.1118)"
           id="g3799"><path
             id="path3801"
             style="fill:none;stroke:#231f20;stroke-width:0.99199998;stroke-linecap:butt;stroke-linejoin:miter;stroke-miterlimit:4;stroke-dasharray:none;stroke-opacity:1"
             d="m 0,0 c 0,-49.314 -39.979,-89.292 -89.291,-89.292 -49.314,0 -89.293,39.978 -89.293,89.292 0,49.314 39.979,89.291 89.293,89.291 C -39.979,89.291 0,49.314 0,0 Z"
             inkscape:connector-curvature="0" /></g><path
           id="path3803"
           style="fill:#231f20;fill-opacity:1;fill-rule:nonzero;stroke:#231f20;stroke-width:0.99199998;stroke-linecap:butt;stroke-linejoin:miter;stroke-miterlimit:4;stroke-dasharray:none;stroke-opacity:1"
           d="m 5245.512,5556.694 -2.834,0 0,2.835 2.834,0 0,-2.835 z"
           inkscape:connector-curvature="0" /></g></g></g></svg>